<?xml version="1.0" encoding="UTF-8"?>
<svg xmlns="http://www.w3.org/2000/svg" xmlns:xlink="http://www.w3.org/1999/xlink" width="525pt" height="149.999998pt" viewBox="0 0 525 149.999998" version="1.2">
<defs>
<clipPath id="clip1">
  <path d="M 225.617188 60 L 258 60 L 258 99 L 225.617188 99 Z M 225.617188 60 "/>
</clipPath>
<clipPath id="clip2">
  <path d="M 295 30.714844 L 426 30.714844 L 426 119.144531 L 295 119.144531 Z M 295 30.714844 "/>
</clipPath>
<clipPath id="clip3">
  <path d="M 456 60 L 494.867188 60 L 494.867188 99 L 456 99 Z M 456 60 "/>
</clipPath>
<clipPath id="clip4">
  <path d="M 0 30.714844 L 186.75 30.714844 L 186.75 119.144531 L 0 119.144531 Z M 0 30.714844 "/>
</clipPath>
<clipPath id="clip5">
  <path d="M 190 30.714844 L 225.644531 30.714844 L 225.644531 119 L 190 119 Z M 190 30.714844 "/>
</clipPath>
<clipPath id="clip6">
  <path d="M 194 116 L 199 116 L 199 119.144531 L 194 119.144531 Z M 194 116 "/>
</clipPath>
<clipPath id="clip7">
  <path d="M 186.644531 36 L 200 36 L 200 52 L 186.644531 52 Z M 186.644531 36 "/>
</clipPath>
</defs>
<g id="surface1">
<g clip-path="url(#clip1)" clip-rule="nonzero">
<path style=" stroke:none;fill-rule:nonzero;fill:rgb(0%,0%,0%);fill-opacity:1;" d="M 238.867188 69.820312 L 257.71875 69.820312 L 257.71875 60.144531 L 225.617188 60.144531 L 225.617188 98.160156 L 238.867188 98.160156 L 238.867188 85.898438 L 255.394531 85.898438 L 255.394531 76.359375 L 238.867188 76.359375 Z M 238.867188 69.820312 "/>
</g>
<path style=" stroke:none;fill-rule:nonzero;fill:rgb(0%,0%,0%);fill-opacity:1;" d="M 286.539062 60.144531 L 273.425781 60.144531 L 256.214844 98.160156 L 269.738281 98.160156 L 272.332031 91.484375 L 287.359375 91.484375 L 289.953125 98.160156 L 303.75 98.160156 Z M 276.15625 82.21875 L 279.980469 72.679688 L 283.808594 82.21875 Z M 276.15625 82.21875 "/>
<g clip-path="url(#clip2)" clip-rule="nonzero">
<path style=" stroke:none;fill-rule:nonzero;fill:rgb(0%,0%,0%);fill-opacity:1;" d="M 401.6875 60.144531 L 394.996094 60.144531 L 422.726562 30.847656 L 379.5625 30.847656 L 360.984375 52.378906 L 341.722656 30.847656 L 296.785156 30.847656 L 323.011719 59.328125 C 322.875 59.328125 322.601562 59.328125 322.464844 59.328125 C 310.167969 59.328125 304.023438 65.050781 304.023438 72.136719 C 304.023438 85.761719 324.101562 82.765625 325.742188 86.714844 L 323.417969 89.167969 C 322.738281 89.304688 321.78125 89.304688 320.6875 89.304688 C 316.316406 89.304688 311.398438 87.941406 307.710938 85.898438 L 303.476562 95.027344 C 306.207031 96.664062 310.167969 97.890625 314.539062 98.433594 L 295.28125 119.007812 L 340.902344 119.007812 L 359.890625 96.117188 L 379.425781 119.007812 L 425.183594 119.007812 L 401.6875 93.9375 Z M 388.4375 79.765625 L 382.566406 73.5 L 388.4375 67.230469 Z M 317.273438 71.453125 C 317.273438 70.089844 318.503906 69 322.464844 69 C 325.878906 69 329.566406 69.957031 333.527344 71.863281 L 333.9375 70.910156 L 337.351562 74.589844 L 334.484375 77.722656 C 327.925781 73.769531 317.273438 74.589844 317.273438 71.453125 Z M 422.589844 117.78125 L 379.96875 117.78125 L 359.890625 94.210938 L 340.359375 117.78125 L 298.011719 117.78125 L 316.042969 98.707031 C 317.546875 98.84375 319.183594 98.980469 320.6875 98.980469 C 332.980469 98.980469 339.128906 93.121094 339.128906 86.171875 C 339.128906 82.492188 337.625 80.039062 335.304688 78.265625 L 338.855469 74.589844 L 334.347656 69.683594 L 337.488281 62.597656 C 333.9375 60.691406 329.429688 59.601562 324.785156 59.328125 L 299.515625 32.074219 L 341.3125 32.074219 L 360.984375 54.285156 L 380.242188 32.074219 L 420.128906 32.074219 L 393.492188 60.144531 L 388.4375 60.144531 L 388.4375 65.457031 L 382.019531 72.273438 L 382.019531 60.144531 L 368.769531 60.144531 L 368.769531 73.632812 L 356.476562 73.632812 L 356.476562 60.144531 L 343.089844 60.144531 L 343.089844 98.160156 L 356.339844 98.160156 L 356.339844 84.125 L 368.632812 84.125 L 368.632812 98.160156 L 381.882812 98.160156 L 381.882812 74.589844 L 388.304688 81.402344 L 388.304688 98.023438 L 401.550781 98.023438 L 401.550781 95.574219 Z M 422.589844 117.78125 "/>
</g>
<path style=" stroke:none;fill-rule:nonzero;fill:rgb(0%,0%,0%);fill-opacity:1;" d="M 428.871094 59.191406 C 416.03125 59.191406 406.605469 67.503906 406.605469 79.085938 C 406.605469 90.53125 416.03125 98.980469 428.871094 98.980469 C 441.710938 98.980469 451.136719 90.667969 451.136719 79.085938 C 451.136719 67.640625 441.710938 59.191406 428.871094 59.191406 Z M 428.871094 88.625 C 423.953125 88.625 419.992188 85.082031 419.992188 79.085938 C 419.992188 73.226562 423.953125 69.546875 428.871094 69.546875 C 433.789062 69.546875 437.75 73.089844 437.75 79.085938 C 437.75 85.082031 433.789062 88.625 428.871094 88.625 Z M 428.871094 88.625 "/>
<g clip-path="url(#clip3)" clip-rule="nonzero">
<path style=" stroke:none;fill-rule:nonzero;fill:rgb(0%,0%,0%);fill-opacity:1;" d="M 482.007812 60.144531 L 482.007812 77.449219 L 466.980469 60.144531 L 456.054688 60.144531 L 456.054688 98.160156 L 469.03125 98.160156 L 469.03125 80.855469 L 484.054688 98.160156 L 494.984375 98.160156 L 494.984375 60.144531 Z M 482.007812 60.144531 "/>
</g>
<g clip-path="url(#clip4)" clip-rule="nonzero">
<path style=" stroke:none;fill-rule:nonzero;fill:rgb(0%,0%,0%);fill-opacity:1;" d="M 17.226562 98.96875 C 10.578125 98.96875 3.933594 97.382812 0 95.046875 L 4.304688 85.710938 C 8.050781 87.859375 13.011719 89.167969 17.320312 89.167969 C 21.0625 89.167969 22.46875 88.417969 22.46875 87.113281 C 22.46875 82.351562 0.65625 86.179688 0.65625 71.988281 C 0.65625 64.894531 6.832031 59.199219 19.097656 59.199219 C 24.433594 59.199219 29.863281 60.316406 33.980469 62.464844 L 29.957031 71.800781 C 26.023438 69.933594 22.375 69 18.910156 69 C 14.976562 69 13.761719 70.121094 13.761719 71.429688 C 13.761719 76.003906 35.574219 72.175781 35.574219 86.179688 C 35.667969 93.085938 29.488281 98.96875 17.226562 98.96875 Z M 146.507812 98.128906 L 169.164062 119.042969 L 116.269531 119.042969 L 95.675781 98.128906 L 91.554688 98.128906 L 71.523438 119.042969 L 18.816406 119.042969 L 47.648438 92.714844 L 47.648438 70.027344 L 36.042969 70.027344 L 36.042969 60.132812 L 51.957031 60.132812 L 20.5 30.816406 L 72.457031 30.816406 L 94.738281 52.476562 L 116.550781 30.816406 L 166.449219 30.816406 L 132.558594 61.8125 L 132.558594 85.246094 L 135.835938 88.234375 L 150.4375 88.234375 L 150.4375 98.128906 Z M 132.464844 86.738281 L 132.464844 88.140625 L 134.058594 88.140625 Z M 60.941406 80.484375 L 67.402344 74.601562 L 62.535156 70.027344 L 60.851562 70.027344 L 60.851562 80.484375 Z M 144.824219 98.128906 L 119.171875 98.128906 L 119.171875 74.507812 L 118.046875 73.480469 L 119.171875 72.453125 L 119.171875 60.132812 L 132.464844 60.132812 L 132.464844 60.226562 L 163.359375 32.03125 L 117.019531 32.03125 L 94.832031 54.15625 L 71.988281 31.9375 L 23.496094 31.9375 L 53.640625 60.039062 L 72.550781 60.039062 L 72.550781 70.027344 L 64.3125 70.027344 L 69.179688 74.507812 L 61.035156 81.976562 L 61.035156 98.035156 L 47.554688 98.035156 L 47.554688 94.113281 L 21.8125 117.828125 L 71.054688 117.828125 L 90.058594 98.128906 L 89.308594 98.128906 L 89.308594 84.125 L 74.332031 60.132812 L 88.371094 60.132812 L 96.421875 73.296875 L 104.566406 60.132812 L 117.488281 60.132812 L 102.601562 84.3125 L 102.601562 98.128906 L 97.359375 98.128906 L 116.832031 117.828125 L 166.261719 117.828125 Z M 167.101562 88.417969 L 167.101562 83.378906 L 183.859375 83.378906 L 183.859375 74.136719 L 167.101562 74.136719 L 167.101562 69.652344 L 186.105469 69.652344 L 186.105469 60.132812 L 153.996094 60.132812 L 153.996094 98.128906 L 186.855469 98.128906 L 186.855469 88.417969 Z M 167.101562 88.417969 "/>
</g>
<g clip-path="url(#clip5)" clip-rule="nonzero">
<path style=" stroke:none;fill-rule:nonzero;fill:rgb(0%,0%,0%);fill-opacity:1;" d="M 206.0625 33.488281 C 206.410156 33.488281 206.851562 33.511719 207.019531 33.546875 C 207.332031 33.613281 207.695312 33.742188 207.941406 33.867188 C 208.089844 33.945312 208.132812 33.96875 208.09375 33.96875 C 208.082031 33.96875 208.0625 33.964844 208.03125 33.960938 C 207.792969 33.929688 205.644531 33.691406 205.433594 33.671875 C 205.3125 33.664062 205.207031 33.644531 205.199219 33.628906 C 205.183594 33.609375 205.324219 33.570312 205.664062 33.507812 C 205.738281 33.492188 205.886719 33.488281 206.0625 33.488281 Z M 204.515625 35.648438 C 204.644531 35.648438 204.777344 35.703125 204.84375 35.800781 C 204.90625 35.898438 204.933594 36.027344 204.914062 36.128906 L 204.894531 36.214844 L 204.566406 36.214844 C 204.546875 36.214844 204.527344 36.214844 204.507812 36.214844 C 204.195312 36.214844 204.175781 36.195312 204.152344 35.992188 C 204.136719 35.84375 204.160156 35.792969 204.308594 35.703125 C 204.367188 35.664062 204.441406 35.648438 204.515625 35.648438 Z M 210.933594 37.339844 L 210.988281 37.441406 C 211.113281 37.671875 211.171875 37.925781 211.179688 38.265625 L 211.1875 38.59375 L 211.089844 38.679688 C 211.046875 38.71875 211.015625 38.742188 210.988281 38.742188 C 210.9375 38.742188 210.898438 38.679688 210.824219 38.53125 C 210.671875 38.222656 210.6875 37.769531 210.859375 37.472656 Z M 206.066406 37.4375 C 205.859375 37.4375 205.636719 37.496094 205.480469 37.601562 C 205.167969 37.824219 205.03125 38.214844 205.039062 38.882812 C 205.042969 39.394531 205.105469 40.09375 205.144531 40.09375 C 205.144531 40.09375 205.144531 40.09375 205.148438 40.09375 C 205.164062 40.089844 205.382812 40.015625 205.628906 39.933594 C 206.101562 39.773438 206.65625 39.636719 206.960938 39.605469 C 207.128906 39.585938 207.144531 39.578125 207.128906 39.519531 C 207.125 39.484375 207.101562 39.308594 207.082031 39.128906 C 207.0625 38.945312 207.042969 38.792969 207.039062 38.789062 C 207.039062 38.789062 207.035156 38.789062 207.03125 38.789062 C 207.003906 38.789062 206.890625 38.796875 206.761719 38.8125 C 206.65625 38.828125 206.515625 38.835938 206.398438 38.835938 C 206.355469 38.835938 206.316406 38.832031 206.285156 38.832031 C 205.851562 38.796875 205.207031 38.605469 205.3125 38.546875 C 205.339844 38.535156 205.667969 38.390625 206.042969 38.234375 C 206.417969 38.074219 206.730469 37.9375 206.738281 37.933594 C 206.746094 37.921875 206.734375 37.871094 206.71875 37.816406 C 206.671875 37.679688 206.515625 37.535156 206.355469 37.480469 C 206.269531 37.453125 206.167969 37.4375 206.066406 37.4375 Z M 205.273438 34.929688 C 205.441406 34.929688 205.707031 34.953125 206.203125 35.007812 C 207.675781 35.167969 208.023438 35.230469 208.417969 35.40625 C 208.832031 35.589844 209.144531 35.871094 209.316406 36.214844 C 209.425781 36.429688 209.429688 36.457031 209.433594 36.726562 C 209.433594 37 209.429688 37.027344 209.304688 37.300781 C 209.027344 37.914062 209.046875 37.796875 209.050781 38.664062 C 209.058594 39.574219 209.039062 39.65625 208.789062 40.03125 C 208.4375 40.554688 207.816406 40.90625 206.980469 41.054688 C 206.757812 41.09375 206.28125 41.113281 205.867188 41.113281 C 205.550781 41.113281 205.273438 41.101562 205.167969 41.078125 C 204.820312 40.992188 204.570312 40.804688 204.394531 40.496094 C 204.292969 40.308594 203.988281 39.558594 203.6875 38.757812 C 203.433594 38.078125 203.433594 37.734375 203.683594 37.476562 C 203.796875 37.355469 203.867188 37.324219 204.183594 37.253906 C 204.492188 37.179688 204.859375 37 205.042969 36.832031 C 205.230469 36.660156 205.378906 36.382812 205.402344 36.144531 C 205.4375 35.753906 205.195312 35.332031 204.878906 35.25 C 204.800781 35.226562 204.742188 35.203125 204.742188 35.1875 C 204.742188 35.136719 204.890625 35.007812 204.996094 34.96875 C 205.070312 34.941406 205.144531 34.929688 205.273438 34.929688 Z M 203.457031 42.640625 C 203.519531 42.640625 203.519531 42.746094 203.523438 43.066406 C 203.523438 43.460938 203.527344 43.488281 203.585938 43.503906 C 203.675781 43.527344 203.65625 43.5625 203.542969 43.601562 C 203.507812 43.617188 203.46875 43.621094 203.425781 43.621094 C 203.25 43.621094 203.0625 43.5 202.996094 43.320312 C 202.945312 43.195312 202.945312 43.175781 202.992188 43.058594 C 203.042969 42.917969 203.179688 42.769531 203.324219 42.695312 C 203.386719 42.664062 203.425781 42.640625 203.457031 42.640625 Z M 211.59375 41.746094 L 211.664062 41.835938 C 211.773438 41.964844 211.992188 42.339844 212.117188 42.605469 C 212.308594 43.023438 212.425781 43.464844 212.511719 44.078125 C 212.519531 44.128906 212.5 44.136719 212.375 44.144531 C 212.292969 44.148438 212.179688 44.164062 212.125 44.183594 C 212.023438 44.21875 212.019531 44.222656 212.019531 44.390625 C 212.019531 44.472656 212.015625 44.515625 212.003906 44.515625 C 211.984375 44.515625 211.945312 44.398438 211.867188 44.136719 C 211.667969 43.449219 211.53125 42.394531 211.578125 41.910156 Z M 217.828125 49.164062 C 217.863281 49.164062 218.167969 49.4375 218.285156 49.570312 C 218.484375 49.808594 218.671875 50.203125 218.71875 50.496094 L 218.742188 50.617188 L 218.347656 50.660156 L 217.949219 50.699219 L 217.972656 50.777344 C 218.023438 50.976562 218.027344 51.199219 217.980469 51.359375 C 217.921875 51.566406 217.882812 51.617188 217.730469 51.617188 C 217.703125 51.617188 217.675781 51.617188 217.640625 51.613281 C 217.082031 51.574219 216.683594 50.925781 216.851562 50.335938 C 216.945312 50.007812 217.195312 49.675781 217.613281 49.324219 C 217.722656 49.234375 217.820312 49.164062 217.828125 49.164062 Z M 201.917969 50.421875 C 201.929688 50.421875 201.9375 50.4375 201.949219 50.460938 C 201.964844 50.496094 201.96875 50.640625 201.964844 50.78125 C 201.953125 51.078125 201.871094 51.269531 201.664062 51.496094 C 201.554688 51.617188 201.421875 51.707031 201.371094 51.707031 C 201.359375 51.707031 201.355469 51.707031 201.351562 51.703125 C 201.339844 51.691406 201.324219 51.589844 201.320312 51.476562 C 201.296875 51.105469 201.445312 50.785156 201.765625 50.527344 C 201.855469 50.453125 201.894531 50.421875 201.917969 50.421875 Z M 211.980469 52.855469 C 212.019531 52.855469 212.039062 52.9375 212.078125 53.226562 C 212.160156 53.84375 211.953125 54.324219 211.519531 54.527344 C 211.429688 54.570312 211.363281 54.59375 211.3125 54.59375 C 211.207031 54.59375 211.191406 54.480469 211.230469 54.199219 C 211.292969 53.730469 211.453125 53.394531 211.761719 53.0625 C 211.867188 52.949219 211.964844 52.855469 211.976562 52.855469 Z M 208.886719 52.8125 C 208.9375 52.816406 208.902344 54.917969 208.847656 55.273438 C 208.742188 55.964844 208.503906 56.421875 208.152344 56.621094 L 208.03125 56.6875 L 208.003906 56.488281 C 207.960938 56.144531 207.972656 55.382812 208.027344 55.027344 C 208.140625 54.316406 208.375 53.652344 208.75 53 C 208.8125 52.898438 208.871094 52.816406 208.886719 52.8125 Z M 201.972656 56.097656 C 201.984375 56.097656 202.050781 56.164062 202.132812 56.253906 C 202.816406 57.015625 203.0625 57.625 202.890625 58.160156 L 202.835938 58.324219 L 202.753906 58.144531 C 202.554688 57.714844 202.300781 57.089844 202.144531 56.625 C 202.046875 56.34375 201.972656 56.109375 201.972656 56.097656 Z M 205.222656 42.546875 L 205.3125 42.5625 C 205.472656 42.59375 205.597656 42.667969 205.734375 42.816406 C 205.859375 42.953125 205.921875 43.0625 206.203125 43.652344 C 206.40625 44.082031 206.726562 44.347656 207.019531 44.347656 C 207.0625 44.347656 207.101562 44.34375 207.144531 44.332031 C 207.285156 44.292969 207.308594 44.234375 207.277344 43.976562 C 207.253906 43.800781 207.15625 43.550781 207.050781 43.40625 L 206.988281 43.320312 L 207.109375 43.265625 C 207.257812 43.199219 207.453125 42.988281 207.496094 42.84375 C 207.519531 42.769531 207.53125 42.746094 207.566406 42.746094 C 207.582031 42.746094 207.601562 42.75 207.625 42.757812 C 207.78125 42.789062 208.046875 42.933594 208.15625 43.046875 C 208.214844 43.109375 208.25 43.15625 208.230469 43.15625 C 208.179688 43.15625 208.101562 43.332031 208.101562 43.457031 C 208.101562 43.585938 208.144531 43.695312 208.191406 43.695312 C 208.21875 43.695312 208.644531 43.390625 208.84375 43.234375 C 208.847656 43.230469 208.855469 43.226562 208.859375 43.226562 C 208.90625 43.226562 208.960938 43.375 209.085938 43.804688 C 209.296875 44.5625 209.394531 45.320312 209.371094 46.058594 C 209.351562 46.707031 209.273438 46.972656 209.027344 47.242188 C 208.78125 47.511719 208.382812 47.644531 207.832031 47.644531 C 207.722656 47.644531 207.609375 47.640625 207.492188 47.632812 C 207.328125 47.617188 207.1875 47.605469 207.136719 47.605469 C 207.125 47.605469 207.117188 47.609375 207.117188 47.609375 C 207.109375 47.613281 207.0625 48.589844 207.007812 49.777344 C 206.921875 51.726562 206.898438 52.074219 206.875 52.074219 C 206.875 52.074219 206.871094 52.074219 206.871094 52.070312 C 206.824219 52.019531 206.617188 50.796875 206.539062 50.082031 C 206.503906 49.765625 206.488281 48.625 206.507812 47.5625 L 206.511719 47.320312 L 206.417969 47.3125 C 206.410156 47.3125 206.40625 47.3125 206.402344 47.3125 C 206.285156 47.3125 206.121094 47.457031 206.042969 47.625 C 205.980469 47.769531 205.730469 48.75 205.59375 49.398438 C 205.085938 51.789062 204.878906 54.121094 204.957031 56.601562 C 204.984375 57.382812 205.042969 58.324219 205.066406 58.351562 C 205.085938 58.351562 205.359375 58.285156 205.6875 58.203125 C 206.050781 58.109375 206.363281 58.046875 206.460938 58.046875 C 206.464844 58.046875 206.464844 58.046875 206.46875 58.046875 C 206.773438 58.046875 206.980469 58.210938 206.984375 58.449219 C 206.984375 58.546875 206.910156 58.695312 206.851562 58.714844 C 206.851562 58.714844 206.84375 58.714844 206.835938 58.714844 C 206.738281 58.714844 206.144531 58.644531 205.457031 58.550781 C 204.710938 58.449219 204.039062 58.359375 203.957031 58.347656 L 203.804688 58.332031 L 203.800781 57.933594 C 203.792969 57.21875 203.648438 56.757812 202.992188 55.351562 C 202.449219 54.199219 202.292969 53.714844 202.265625 53.089844 C 202.238281 52.515625 202.320312 52.246094 202.570312 52.113281 C 202.617188 52.085938 202.65625 52.066406 202.683594 52.066406 C 202.761719 52.066406 202.78125 52.191406 202.816406 52.566406 C 202.933594 53.917969 203.257812 55.019531 203.855469 56.144531 C 204 56.410156 204.058594 56.511719 204.097656 56.511719 C 204.121094 56.511719 204.136719 56.476562 204.164062 56.421875 C 204.257812 56.203125 204.226562 55.785156 204.078125 55.195312 C 203.738281 53.828125 203.679688 52.714844 203.890625 51.417969 C 203.976562 50.875 204.113281 50.390625 204.414062 49.53125 C 204.679688 48.773438 204.707031 48.582031 205.011719 44.984375 Z M 209.238281 68.355469 L 209.1875 68.445312 C 209.125 68.550781 209.011719 68.644531 208.847656 68.734375 C 208.769531 68.773438 208.601562 68.796875 208.429688 68.796875 C 208.328125 68.796875 208.222656 68.789062 208.132812 68.769531 L 207.976562 68.742188 L 208.074219 68.667969 C 208.203125 68.570312 208.433594 68.460938 208.636719 68.40625 C 208.726562 68.378906 208.898438 68.359375 209.019531 68.359375 Z M 209.558594 70.527344 C 209.679688 70.527344 209.804688 70.542969 209.933594 70.574219 C 210.003906 70.589844 210.0625 70.617188 210.0625 70.632812 C 210.0625 70.648438 209.992188 70.710938 209.90625 70.777344 C 209.617188 70.996094 209.296875 71.109375 208.980469 71.109375 C 208.910156 71.109375 208.835938 71.105469 208.765625 71.09375 C 208.648438 71.074219 208.542969 71.050781 208.527344 71.039062 C 208.488281 71.015625 208.78125 70.765625 208.957031 70.675781 C 209.039062 70.636719 209.191406 70.582031 209.292969 70.554688 C 209.375 70.535156 209.464844 70.527344 209.558594 70.527344 Z M 201.25 30.714844 C 201.238281 30.714844 201.199219 30.769531 201.160156 30.839844 C 201.125 30.914062 200.996094 31.136719 200.878906 31.339844 L 200.65625 31.710938 L 200.78125 31.882812 C 201.257812 32.582031 201.910156 33.210938 202.640625 33.6875 C 202.917969 33.863281 203.492188 34.160156 203.753906 34.253906 C 203.832031 34.285156 203.890625 34.324219 203.886719 34.339844 C 203.878906 34.359375 203.808594 34.414062 203.734375 34.460938 C 203.621094 34.53125 203.445312 34.570312 203.269531 34.570312 C 203.183594 34.570312 203.101562 34.5625 203.019531 34.542969 C 202.785156 34.496094 202.3125 34.261719 201.84375 33.964844 C 200.644531 33.203125 200.355469 33.082031 199.648438 33.082031 C 199.628906 33.082031 199.605469 33.082031 199.582031 33.082031 C 198.933594 33.085938 198.292969 33.261719 197.515625 33.644531 C 196.96875 33.914062 196.683594 34.089844 194.976562 35.191406 C 194.179688 35.703125 192.851562 36.558594 192.019531 37.09375 C 191.183594 37.632812 190.425781 38.121094 190.332031 38.179688 C 190.238281 38.246094 190.160156 38.300781 190.160156 38.3125 C 190.160156 38.324219 190.292969 38.453125 190.453125 38.605469 C 191.238281 39.335938 192.183594 39.878906 193.234375 40.191406 C 193.347656 40.226562 193.417969 40.242188 193.453125 40.242188 C 193.46875 40.242188 193.476562 40.238281 193.472656 40.226562 C 193.464844 40.207031 193.273438 39.941406 193.050781 39.640625 C 192.429688 38.796875 192.292969 38.597656 192.308594 38.558594 C 192.335938 38.480469 193.03125 37.75 193.367188 37.441406 C 195.179688 35.785156 197.359375 34.65625 199.699219 34.164062 C 200.160156 34.066406 200.628906 33.988281 200.730469 33.988281 C 200.738281 33.988281 200.746094 33.988281 200.746094 33.992188 C 200.753906 33.996094 200.734375 34.089844 200.707031 34.199219 C 200.679688 34.328125 200.664062 34.523438 200.667969 34.78125 C 200.671875 35.414062 200.792969 35.855469 201.320312 37.179688 C 201.488281 37.589844 201.671875 38.082031 201.730469 38.273438 C 202.058594 39.296875 201.992188 39.921875 201.496094 40.519531 C 201.257812 40.804688 201.164062 40.941406 201.050781 41.171875 C 200.75 41.78125 200.65625 42.515625 200.722656 43.703125 C 200.746094 44.078125 200.777344 44.636719 200.792969 44.949219 C 200.832031 45.601562 200.800781 46.234375 200.714844 46.683594 C 200.679688 46.84375 200.582031 47.191406 200.488281 47.453125 C 200.269531 48.09375 200.0625 48.816406 199.933594 49.398438 C 199.390625 51.890625 199.429688 54.492188 200.050781 56.933594 C 200.191406 57.488281 200.445312 58.308594 200.554688 58.570312 L 200.597656 58.671875 L 200.9375 58.554688 C 201.425781 58.390625 201.757812 58.335938 202.308594 58.332031 C 202.324219 58.332031 202.339844 58.332031 202.355469 58.332031 C 202.589844 58.332031 202.78125 58.34375 202.792969 58.351562 C 202.828125 58.386719 202.695312 58.585938 202.539062 58.730469 C 202.359375 58.894531 202.203125 58.964844 202 58.964844 C 201.960938 58.964844 201.917969 58.960938 201.871094 58.957031 C 201.765625 58.945312 201.589844 58.933594 201.480469 58.933594 C 201.480469 58.933594 201.476562 58.933594 201.472656 58.933594 C 200.871094 58.945312 200.3125 59.566406 200.140625 60.425781 C 200.070312 60.804688 200.101562 61.253906 200.257812 61.984375 C 200.5 63.097656 200.546875 63.484375 200.488281 63.886719 C 200.46875 64 200.457031 64.101562 200.464844 64.105469 C 200.472656 64.105469 200.523438 64.03125 200.570312 63.933594 C 200.832031 63.445312 201.40625 63.074219 202.085938 62.960938 C 202.195312 62.941406 202.347656 62.933594 202.503906 62.933594 C 202.792969 62.933594 203.121094 62.960938 203.316406 63.011719 C 203.902344 63.164062 204.269531 63.375 204.726562 63.820312 C 205.46875 64.539062 205.9375 65.484375 206.351562 67.066406 C 206.4375 67.386719 207.332031 71.339844 207.390625 71.660156 C 207.542969 72.46875 207.476562 73.050781 207.175781 73.449219 C 207.003906 73.675781 206.597656 73.859375 206.273438 73.859375 C 206.273438 73.859375 206.269531 73.859375 206.269531 73.859375 C 205.988281 73.859375 205.707031 73.71875 205.605469 73.527344 C 205.554688 73.433594 205.554688 73.433594 205.65625 73.359375 C 206.371094 72.828125 206.578125 71.757812 206.101562 71.042969 L 206.015625 70.90625 L 205.996094 71.222656 C 205.964844 71.828125 205.71875 72.285156 204.960938 73.167969 C 204.195312 74.066406 204.011719 74.308594 203.816406 74.703125 C 203.589844 75.15625 203.5625 75.519531 203.710938 76.164062 C 203.929688 77.113281 204.023438 77.824219 204.050781 78.792969 C 204.082031 80.015625 203.96875 81.125 203.6875 82.28125 C 203.613281 82.589844 203.390625 83.316406 203.371094 83.316406 C 203.355469 83.304688 203.285156 82.875 203.175781 82.144531 C 202.640625 78.589844 202.730469 76.277344 203.480469 74.242188 C 203.707031 73.625 204 73.082031 204.519531 72.3125 C 205.136719 71.402344 205.484375 70.390625 205.570312 69.257812 C 205.609375 68.765625 205.585938 68.292969 205.496094 67.773438 C 205.433594 67.425781 205.246094 66.742188 205.195312 66.6875 C 205.183594 66.6875 205.125 67.023438 205.066406 67.449219 C 204.84375 69.035156 204.632812 70 204.292969 70.914062 C 203.640625 72.683594 202.472656 74.007812 201.035156 74.601562 C 200.757812 74.714844 200.257812 74.855469 200.121094 74.855469 C 200.117188 74.855469 200.117188 74.855469 200.113281 74.855469 C 200.035156 74.855469 200.042969 74.84375 200.273438 74.546875 C 200.609375 74.117188 201.203125 73.210938 201.496094 72.679688 C 202.570312 70.722656 203.167969 68.589844 203.296875 66.289062 C 203.328125 65.742188 203.308594 64.851562 203.261719 64.417969 L 203.242188 64.246094 L 203.03125 64.144531 C 202.820312 64.042969 202.597656 63.996094 202.371094 63.996094 C 201.976562 63.996094 201.558594 64.140625 201.160156 64.425781 C 200.558594 64.855469 200.195312 65.601562 200.058594 66.679688 C 199.941406 67.644531 199.871094 75.039062 199.957031 77.871094 C 200.046875 80.941406 200.171875 82.699219 200.515625 85.671875 C 200.695312 87.234375 200.757812 87.867188 200.804688 88.59375 C 200.9375 90.789062 200.675781 92.484375 199.972656 93.90625 C 199.679688 94.507812 199.503906 94.796875 198.738281 95.972656 C 198.050781 97.027344 197.875 97.324219 197.621094 97.863281 C 197.019531 99.125 196.617188 100.46875 196.144531 102.769531 C 195.984375 103.554688 194.589844 110.75 194.535156 111.074219 C 194.511719 111.207031 194.382812 111.144531 195.902344 111.777344 C 196.703125 112.113281 196.933594 112.222656 196.921875 112.257812 C 196.914062 112.285156 196.867188 112.421875 196.820312 112.5625 C 196.660156 113.023438 196.625 113.292969 196.628906 113.925781 C 196.632812 114.398438 196.644531 114.550781 196.703125 114.800781 C 196.898438 115.6875 197.285156 116.398438 197.902344 117.007812 C 198.078125 117.175781 198.226562 117.3125 198.246094 117.3125 C 198.246094 117.3125 198.25 117.3125 198.25 117.3125 C 198.257812 117.304688 198.203125 117.109375 198.121094 116.882812 C 197.738281 115.734375 197.597656 114.84375 197.589844 113.484375 C 197.582031 112.125 197.734375 111 198.125 109.539062 C 198.707031 107.378906 199.585938 105.429688 201.667969 101.714844 C 203.828125 97.855469 204.554688 96.332031 205.214844 94.3125 C 205.894531 92.210938 206.253906 90.421875 206.882812 85.996094 C 207.488281 81.746094 207.851562 79.914062 208.476562 77.960938 C 208.761719 77.0625 209.28125 75.703125 209.339844 75.703125 C 209.367188 75.703125 209.914062 76.988281 210.515625 78.457031 C 213.019531 84.582031 215.09375 90.945312 216.660156 97.300781 C 218.0625 102.984375 218.582031 106.257812 218.601562 109.527344 C 218.617188 111.585938 218.449219 113.125 218.019531 114.9375 C 217.910156 115.382812 217.894531 115.503906 217.894531 115.800781 C 217.894531 116.15625 217.921875 116.265625 218.039062 116.4375 C 218.070312 116.484375 218.109375 116.519531 218.121094 116.519531 C 218.148438 116.519531 218.464844 115.984375 218.597656 115.710938 C 218.726562 115.457031 218.964844 114.839844 219.042969 114.578125 C 219.253906 113.835938 219.339844 113.300781 219.355469 112.535156 C 219.371094 111.859375 219.335938 111.425781 219.214844 110.84375 C 219.171875 110.640625 219.144531 110.472656 219.148438 110.464844 C 219.152344 110.460938 219.644531 110.421875 220.242188 110.375 C 220.835938 110.328125 221.386719 110.289062 221.46875 110.28125 C 221.507812 110.277344 221.546875 110.277344 221.570312 110.277344 C 221.59375 110.277344 221.609375 110.277344 221.609375 110.28125 C 221.609375 110.292969 221.21875 110.917969 220.820312 111.542969 L 220.53125 112 L 220.65625 112.484375 C 221.039062 113.976562 221.292969 115.683594 221.359375 117.238281 L 221.363281 117.457031 L 221.074219 117.5 C 220.914062 117.527344 219.910156 117.683594 218.839844 117.855469 C 217.773438 118.023438 216.898438 118.171875 216.898438 118.183594 C 216.898438 118.21875 217.316406 118.472656 217.539062 118.574219 C 218.003906 118.785156 218.394531 118.867188 218.945312 118.867188 C 218.964844 118.867188 218.988281 118.867188 219.007812 118.867188 C 219.410156 118.863281 219.519531 118.847656 219.777344 118.777344 C 220.34375 118.628906 220.835938 118.335938 221.253906 117.902344 C 221.65625 117.488281 221.945312 116.976562 222.097656 116.414062 C 222.1875 116.085938 222.195312 115.457031 222.140625 112.792969 C 222.113281 111.570312 222.0625 109.03125 222.027344 107.152344 C 221.9375 102.09375 221.898438 100.816406 221.800781 99.425781 C 221.609375 96.664062 221.320312 95.152344 220.34375 91.738281 C 219.648438 89.304688 219.402344 88.300781 219.175781 86.914062 C 218.890625 85.183594 218.746094 83.628906 218.546875 80.167969 C 218.328125 76.320312 218.203125 74.941406 217.890625 73.035156 C 217.503906 70.703125 216.925781 69.5625 215.75 68.839844 C 214.003906 67.769531 212.671875 66.65625 211.292969 65.132812 C 210.855469 64.644531 210.222656 63.84375 209.886719 63.34375 C 209.8125 63.234375 209.746094 63.152344 209.726562 63.152344 C 209.707031 63.214844 209.882812 63.90625 210.027344 64.328125 C 210.542969 65.851562 211.484375 67.203125 212.761719 68.285156 C 213.742188 69.113281 214.980469 69.761719 216.125 70.042969 C 216.308594 70.089844 216.464844 70.128906 216.46875 70.132812 C 216.476562 70.136719 216.4375 70.210938 216.382812 70.289062 C 216.171875 70.628906 215.746094 70.910156 215.3125 71.003906 C 215.175781 71.035156 214.976562 71.050781 214.785156 71.050781 C 214.605469 71.050781 214.429688 71.035156 214.308594 71.011719 C 213.359375 70.796875 212.628906 70.070312 211.792969 68.527344 C 211.703125 68.359375 211.621094 68.21875 211.613281 68.21875 C 211.574219 68.21875 211.550781 68.980469 211.574219 69.410156 C 211.617188 70.25 211.75 71.039062 211.964844 71.765625 L 212.023438 71.964844 L 211.863281 72.054688 C 211.238281 72.410156 210.371094 72.640625 209.632812 72.640625 C 209.273438 72.640625 208.570312 72.546875 208.570312 72.496094 C 208.566406 72.457031 209.003906 72.140625 209.183594 72.050781 C 209.535156 71.875 209.933594 71.78125 210.320312 71.78125 C 210.542969 71.78125 210.761719 71.8125 210.964844 71.875 C 211.035156 71.898438 211.101562 71.914062 211.125 71.914062 C 211.132812 71.914062 211.136719 71.910156 211.136719 71.910156 C 211.140625 71.90625 211.054688 71.542969 210.9375 71.105469 C 210.816406 70.667969 210.25 68.550781 209.675781 66.402344 C 209.097656 64.25 208.621094 62.464844 208.613281 62.433594 C 208.601562 62.402344 208.601562 62.390625 208.621094 62.390625 C 208.628906 62.390625 208.644531 62.390625 208.664062 62.398438 C 208.753906 62.421875 208.882812 62.4375 209.011719 62.4375 C 209.136719 62.4375 209.265625 62.425781 209.367188 62.398438 C 209.796875 62.296875 210.105469 62.136719 210.945312 61.597656 C 211.777344 61.058594 212.113281 60.910156 212.507812 60.910156 C 212.515625 60.910156 212.523438 60.910156 212.53125 60.910156 C 212.707031 60.910156 212.769531 60.921875 212.914062 60.996094 C 213.007812 61.042969 213.09375 61.097656 213.101562 61.117188 C 213.105469 61.128906 212.777344 61.261719 212.371094 61.402344 C 211.859375 61.578125 211.648438 61.667969 211.6875 61.679688 C 211.71875 61.691406 212.253906 61.789062 212.875 61.898438 C 213.554688 62.023438 213.957031 62.105469 213.882812 62.109375 C 212.984375 62.171875 212.257812 62.359375 211.535156 62.714844 C 211.203125 62.878906 210.5625 63.285156 210.5625 63.335938 C 210.5625 63.359375 216.84375 68.917969 216.890625 68.933594 C 216.941406 68.933594 216.574219 67.828125 216.328125 67.234375 C 216.15625 66.808594 215.769531 66.007812 215.582031 65.683594 C 215.457031 65.46875 215.457031 65.464844 215.523438 65.441406 C 215.742188 65.355469 216.558594 64.96875 217.105469 64.691406 C 219.273438 63.59375 221.207031 62.292969 223.058594 60.6875 C 223.628906 60.1875 224.574219 59.285156 224.96875 58.859375 C 225.527344 58.25 225.65625 58.003906 225.65625 57.550781 C 225.648438 57.195312 225.496094 56.808594 225.1875 56.410156 C 225.105469 56.304688 224.316406 55.382812 223.4375 54.367188 C 222.558594 53.347656 220.949219 51.476562 219.855469 50.203125 C 218.160156 48.234375 217.90625 47.941406 217.839844 47.941406 C 217.832031 47.941406 217.828125 47.945312 217.824219 47.949219 C 217.796875 47.984375 217.273438 48.625 216.65625 49.378906 C 216.042969 50.132812 215.464844 50.839844 215.378906 50.945312 C 215.292969 51.050781 215.21875 51.148438 215.21875 51.160156 C 215.21875 51.167969 215.511719 51.433594 215.863281 51.746094 C 217.21875 52.941406 218.570312 54.214844 219.722656 55.390625 C 220.179688 55.859375 220.609375 56.324219 220.675781 56.417969 C 221.074219 57.023438 221.019531 57.980469 220.539062 58.710938 C 220.230469 59.183594 219.859375 59.554688 219.191406 60.070312 C 219.003906 60.210938 218.859375 60.332031 218.867188 60.34375 C 218.867188 60.34375 218.871094 60.34375 218.871094 60.34375 C 218.933594 60.34375 219.527344 60.007812 219.867188 59.785156 C 220.371094 59.449219 220.773438 59.113281 221.222656 58.65625 C 221.777344 58.097656 222.148438 57.621094 222.539062 56.964844 C 222.742188 56.628906 223.050781 55.988281 223.164062 55.679688 C 223.199219 55.578125 223.242188 55.492188 223.257812 55.492188 C 223.273438 55.492188 223.363281 55.566406 223.449219 55.65625 C 223.691406 55.898438 223.75 56.070312 223.753906 56.523438 C 223.753906 56.941406 223.695312 57.195312 223.503906 57.636719 C 223.160156 58.425781 222.121094 59.746094 220.949219 60.875 C 218.9375 62.816406 216.695312 63.871094 214.75 63.871094 C 214.0625 63.871094 213.410156 63.738281 212.820312 63.464844 C 212.679688 63.402344 212.582031 63.34375 212.59375 63.335938 C 212.613281 63.328125 213.1875 63.164062 213.871094 62.96875 C 214.558594 62.773438 215.136719 62.601562 215.160156 62.589844 C 215.1875 62.574219 215.136719 62.519531 214.992188 62.410156 C 214.878906 62.324219 214.640625 62.109375 214.464844 61.933594 C 213.472656 60.953125 212.8125 59.609375 212.566406 58.074219 C 212.496094 57.644531 212.464844 56.644531 212.507812 56.195312 C 212.660156 54.570312 213.289062 53.15625 214.339844 52.070312 C 214.476562 51.921875 214.589844 51.804688 214.589844 51.796875 C 214.589844 51.792969 214.539062 51.742188 214.472656 51.6875 C 214.308594 51.539062 214.222656 51.320312 214.203125 51.027344 C 214.183594 50.714844 214.238281 50.417969 214.457031 49.664062 C 214.679688 48.902344 214.730469 48.65625 214.726562 48.339844 C 214.726562 48.046875 214.675781 47.898438 214.527344 47.746094 C 214.449219 47.664062 214.300781 47.5625 214.261719 47.5625 C 214.253906 47.5625 214.25 47.75 214.25 47.972656 C 214.25 48.292969 214.234375 48.441406 214.183594 48.628906 C 214.109375 48.921875 213.925781 49.3125 213.753906 49.558594 C 213.617188 49.75 213.257812 50.117188 213.148438 50.171875 C 213.128906 50.183594 213.113281 50.191406 213.101562 50.191406 C 213.082031 50.191406 213.078125 50.167969 213.066406 50.113281 C 213.03125 49.941406 213.042969 49.375 213.089844 49.128906 C 213.207031 48.480469 213.539062 47.859375 214.007812 47.421875 L 214.195312 47.242188 L 214.058594 47.140625 C 213.769531 46.929688 213.609375 46.613281 213.574219 46.171875 C 213.550781 45.882812 213.597656 45.632812 213.769531 45.042969 C 214.132812 43.820312 214.078125 43.394531 213.378906 42.152344 C 212.863281 41.238281 212.714844 40.878906 212.671875 40.417969 C 212.644531 40.152344 212.679688 39.972656 212.863281 39.390625 C 213.058594 38.785156 213.113281 38.460938 213.085938 38.058594 C 213.046875 37.441406 212.855469 36.839844 212.367188 35.761719 C 211.65625 34.210938 211.097656 33.246094 210.480469 32.515625 C 209.828125 31.75 208.996094 31.164062 208.257812 30.960938 C 207.960938 30.875 207.648438 30.835938 207.335938 30.835938 C 206.523438 30.835938 205.699219 31.105469 205.09375 31.597656 C 204.609375 31.992188 204.320312 32.523438 204.265625 33.132812 L 204.246094 33.335938 L 203.984375 33.246094 C 203.644531 33.128906 203.164062 32.882812 202.851562 32.664062 C 202.457031 32.386719 201.972656 31.890625 201.691406 31.476562 C 201.5625 31.28125 201.414062 31.027344 201.359375 30.917969 C 201.3125 30.808594 201.261719 30.714844 201.25 30.714844 Z M 201.25 30.714844 "/>
</g>
<path style=" stroke:none;fill-rule:nonzero;fill:rgb(0%,0%,0%);fill-opacity:1;" d="M 194.164062 111 L 194.332031 111.179688 C 194.421875 111.277344 194.542969 111.449219 194.597656 111.566406 C 194.722656 111.828125 194.773438 112.046875 194.777344 112.316406 L 194.785156 112.527344 L 195.007812 112.523438 C 195.015625 112.523438 195.019531 112.523438 195.027344 112.523438 C 195.199219 112.523438 195.265625 112.542969 195.390625 112.605469 C 195.601562 112.714844 195.78125 112.925781 195.84375 113.132812 C 195.890625 113.285156 195.890625 113.316406 195.847656 113.527344 C 195.789062 113.800781 195.789062 113.96875 195.84375 114.066406 C 195.882812 114.132812 195.875 114.15625 195.640625 114.460938 L 195.390625 114.78125 L 195.546875 115.664062 C 195.625 116.144531 195.6875 116.558594 195.683594 116.570312 C 195.648438 116.671875 195.164062 116.828125 194.894531 116.828125 C 194.882812 116.828125 194.871094 116.828125 194.863281 116.824219 L 194.691406 116.816406 L 194.605469 116.53125 C 194.394531 115.839844 194.1875 114.714844 194.117188 113.886719 C 194.050781 113.167969 194.070312 111.558594 194.144531 111.105469 Z M 194.164062 111 "/>
<g clip-path="url(#clip6)" clip-rule="nonzero">
<path style=" stroke:none;fill-rule:nonzero;fill:rgb(0%,0%,0%);fill-opacity:1;" d="M 194.558594 116.9375 C 194.632812 116.9375 194.71875 116.957031 194.78125 116.996094 C 194.882812 117.0625 194.929688 117.25 194.890625 117.476562 C 194.871094 117.578125 194.859375 117.742188 194.859375 117.835938 C 194.863281 118.296875 195.25 118.53125 196.292969 118.703125 C 196.5 118.738281 196.796875 118.753906 197.101562 118.753906 C 197.492188 118.753906 197.90625 118.726562 198.183594 118.675781 C 198.398438 118.640625 198.632812 118.585938 198.710938 118.566406 C 198.78125 118.542969 198.839844 118.527344 198.855469 118.527344 C 198.855469 118.527344 198.855469 118.527344 198.859375 118.527344 C 198.859375 118.535156 198.875 118.652344 198.886719 118.796875 C 198.910156 119.058594 198.910156 119.058594 198.835938 119.058594 C 198.796875 119.058594 198.167969 119.085938 197.441406 119.117188 C 196.886719 119.136719 196.507812 119.152344 196.226562 119.152344 C 195.78125 119.152344 195.589844 119.121094 195.382812 119.050781 C 194.925781 118.890625 194.632812 118.539062 194.488281 117.972656 C 194.429688 117.730469 194.34375 117.082031 194.363281 117.023438 C 194.382812 116.964844 194.464844 116.9375 194.558594 116.9375 Z M 194.558594 116.9375 "/>
</g>
<g clip-path="url(#clip7)" clip-rule="nonzero">
<path style=" stroke:none;fill-rule:nonzero;fill:rgb(0%,0%,0%);fill-opacity:1;" d="M 188.082031 36.175781 L 188.101562 36.308594 C 188.109375 36.382812 188.144531 36.480469 188.171875 36.523438 C 188.199219 36.566406 188.265625 36.617188 188.3125 36.636719 C 188.363281 36.660156 188.402344 36.6875 188.402344 36.699219 C 188.402344 36.804688 187.808594 37.210938 187.660156 37.210938 C 187.625 37.210938 187.617188 37.253906 187.632812 37.453125 C 187.644531 37.664062 187.664062 37.726562 187.789062 37.96875 C 187.980469 38.347656 188.230469 38.644531 188.960938 39.367188 C 190.25 40.644531 191.5 41.527344 193.148438 42.328125 C 193.722656 42.609375 193.722656 42.609375 193.828125 42.777344 C 193.96875 43 194.371094 43.402344 194.613281 43.5625 C 194.839844 43.714844 195.292969 43.925781 195.503906 43.980469 C 195.605469 44.003906 195.707031 44.0625 195.820312 44.164062 C 196.242188 44.535156 196.863281 44.777344 197.371094 44.777344 C 197.375 44.777344 197.378906 44.777344 197.382812 44.777344 L 197.558594 44.777344 L 197.546875 44.984375 C 197.539062 45.144531 197.554688 45.222656 197.597656 45.324219 C 197.707031 45.5625 197.929688 45.765625 198.167969 45.835938 C 198.171875 45.835938 198.179688 45.839844 198.183594 45.839844 C 198.339844 45.839844 198.449219 45.179688 198.339844 44.816406 C 198.3125 44.722656 198.300781 44.632812 198.3125 44.621094 C 198.328125 44.609375 198.46875 44.53125 198.628906 44.445312 L 198.921875 44.292969 L 198.9375 44.386719 C 198.945312 44.441406 199.046875 45.429688 199.164062 46.582031 C 199.398438 48.894531 199.425781 49.417969 199.335938 49.964844 C 199.277344 50.335938 199.136719 50.722656 198.960938 50.984375 C 198.875 51.121094 198.824219 51.183594 198.800781 51.183594 C 198.785156 51.183594 198.78125 51.152344 198.792969 51.089844 C 198.839844 50.878906 198.84375 50.347656 198.808594 50.039062 C 198.683594 48.953125 198.175781 47.929688 197.398438 47.191406 C 196.996094 46.804688 196.644531 46.558594 195.066406 45.550781 C 193.421875 44.496094 192.578125 43.921875 191.707031 43.28125 C 189.992188 42.011719 188.738281 40.820312 187.757812 39.535156 C 186.90625 38.421875 186.648438 37.847656 186.78125 37.359375 C 186.867188 37.054688 187.210938 36.820312 187.503906 36.820312 C 187.578125 36.820312 187.648438 36.835938 187.710938 36.867188 L 187.800781 36.914062 L 187.800781 36.773438 C 187.800781 36.566406 187.855469 36.40625 187.976562 36.285156 Z M 188.082031 36.175781 "/>
</g>
<path style=" stroke:none;fill-rule:nonzero;fill:rgb(0%,0%,0%);fill-opacity:1;" d="M 199.136719 42.460938 C 199.167969 42.460938 199.199219 42.464844 199.226562 42.476562 C 199.253906 42.484375 199.300781 42.539062 199.339844 42.597656 C 199.480469 42.820312 199.394531 43.226562 199.179688 43.359375 C 199.117188 43.398438 199.050781 43.417969 199.007812 43.417969 C 198.96875 43.417969 198.949219 43.402344 198.960938 43.371094 C 198.96875 43.347656 198.945312 43.191406 198.902344 43.027344 C 198.859375 42.867188 198.824219 42.707031 198.824219 42.675781 C 198.824219 42.5625 198.992188 42.460938 199.136719 42.460938 Z M 199.136719 42.460938 "/>
<path style=" stroke:none;fill-rule:nonzero;fill:rgb(0%,0%,0%);fill-opacity:1;" d="M 193.441406 40.300781 C 193.476562 40.300781 193.636719 40.332031 193.796875 40.371094 C 194.398438 40.523438 195.050781 40.820312 195.5625 41.183594 C 195.832031 41.371094 196.5625 42.03125 196.5625 42.085938 C 196.5625 42.105469 196.507812 42.113281 196.429688 42.113281 C 196.308594 42.113281 196.125 42.09375 195.984375 42.058594 C 195.714844 41.992188 195.339844 41.808594 195.023438 41.597656 C 194.820312 41.460938 193.589844 40.496094 193.4375 40.355469 C 193.378906 40.300781 193.378906 40.300781 193.441406 40.300781 Z M 193.441406 40.300781 "/>
<path style=" stroke:none;fill-rule:nonzero;fill:rgb(0%,0%,0%);fill-opacity:1;" d="M 206.632812 35.425781 C 206.640625 35.425781 206.738281 35.484375 206.847656 35.554688 C 207.195312 35.785156 207.628906 35.90625 208.046875 35.90625 C 208.1875 35.90625 208.328125 35.894531 208.464844 35.863281 C 208.535156 35.847656 208.578125 35.839844 208.609375 35.839844 C 208.648438 35.839844 208.664062 35.855469 208.691406 35.890625 C 208.78125 35.996094 208.796875 36.195312 208.730469 36.34375 C 208.628906 36.578125 208.472656 36.675781 208.109375 36.734375 C 208.046875 36.746094 207.980469 36.75 207.914062 36.75 C 207.308594 36.75 206.679688 36.324219 206.59375 35.820312 C 206.574219 35.699219 206.597656 35.425781 206.632812 35.425781 Z M 206.632812 35.425781 "/>
</g>
</svg>
