<?xml version="1.0" encoding="UTF-8"?>
<svg xmlns="http://www.w3.org/2000/svg" xmlns:xlink="http://www.w3.org/1999/xlink" width="375pt" height="149.999998pt" viewBox="0 0 375 149.999998" version="1.2">
<defs>
<clipPath id="clip1">
  <path d="M 128.226562 66 L 146 66 L 146 88 L 128.226562 88 Z M 128.226562 66 "/>
</clipPath>
<clipPath id="clip2">
  <path d="M 166 49.710938 L 239 49.710938 L 239 99.210938 L 166 99.210938 Z M 166 49.710938 "/>
</clipPath>
<clipPath id="clip3">
  <path d="M 255 66 L 277.234375 66 L 277.234375 88 L 255 88 Z M 255 66 "/>
</clipPath>
<clipPath id="clip4">
  <path d="M 0 49.710938 L 106.429688 49.710938 L 106.429688 99.648438 L 0 99.648438 Z M 0 49.710938 "/>
</clipPath>
<clipPath id="clip5">
  <path d="M 108 49.710938 L 128.328125 49.710938 L 128.328125 99.210938 L 108 99.210938 Z M 108 49.710938 "/>
</clipPath>
<clipPath id="clip6">
  <path d="M 110 98 L 114 98 L 114 99.210938 L 110 99.210938 Z M 110 98 "/>
</clipPath>
<clipPath id="clip7">
  <path d="M 106.578125 52 L 114 52 L 114 62 L 106.578125 62 Z M 106.578125 52 "/>
</clipPath>
<clipPath id="clip8">
  <path d="M 3.578125 100.289062 L 53.078125 100.289062 L 53.078125 149.789062 L 3.578125 149.789062 Z M 3.578125 100.289062 "/>
</clipPath>
<clipPath id="clip9">
  <path d="M 202.980469 100.289062 L 252.480469 100.289062 L 252.480469 149.789062 L 202.980469 149.789062 Z M 202.980469 100.289062 "/>
</clipPath>
</defs>
<g id="surface1">
<g clip-path="url(#clip1)" clip-rule="nonzero">
<path style=" stroke:none;fill-rule:nonzero;fill:rgb(0%,0%,0%);fill-opacity:1;" d="M 135.558594 71.738281 L 145.984375 71.738281 L 145.984375 66.289062 L 128.226562 66.289062 L 128.226562 87.699219 L 135.558594 87.699219 L 135.558594 80.792969 L 144.699219 80.792969 L 144.699219 75.421875 L 135.558594 75.421875 Z M 135.558594 71.738281 "/>
</g>
<path style=" stroke:none;fill-rule:nonzero;fill:rgb(0%,0%,0%);fill-opacity:1;" d="M 161.929688 66.289062 L 154.675781 66.289062 L 145.152344 87.699219 L 152.632812 87.699219 L 154.070312 83.941406 L 162.382812 83.941406 L 163.816406 87.699219 L 171.449219 87.699219 Z M 156.183594 78.722656 L 158.300781 73.347656 L 160.417969 78.722656 Z M 156.183594 78.722656 "/>
<g clip-path="url(#clip2)" clip-rule="nonzero">
<path style=" stroke:none;fill-rule:nonzero;fill:rgb(0%,0%,0%);fill-opacity:1;" d="M 225.625 66.289062 L 221.921875 66.289062 L 237.261719 49.785156 L 213.382812 49.785156 L 203.109375 61.914062 L 192.453125 49.785156 L 167.59375 49.785156 L 182.101562 65.828125 C 182.027344 65.828125 181.875 65.828125 181.800781 65.828125 C 175 65.828125 171.597656 69.050781 171.597656 73.042969 C 171.597656 80.714844 182.707031 79.027344 183.613281 81.253906 L 182.328125 82.636719 C 181.953125 82.710938 181.421875 82.710938 180.816406 82.710938 C 178.398438 82.710938 175.679688 81.945312 173.640625 80.792969 L 171.296875 85.9375 C 172.808594 86.855469 175 87.546875 177.417969 87.855469 L 166.765625 99.445312 L 192 99.445312 L 202.503906 86.550781 L 213.308594 99.445312 L 238.621094 99.445312 L 225.625 85.320312 Z M 218.296875 77.339844 L 215.046875 73.808594 L 218.296875 70.277344 Z M 178.929688 72.65625 C 178.929688 71.890625 179.609375 71.277344 181.800781 71.277344 C 183.6875 71.277344 185.730469 71.8125 187.921875 72.886719 L 188.148438 72.351562 L 190.035156 74.421875 L 188.449219 76.1875 C 184.824219 73.960938 178.929688 74.421875 178.929688 72.65625 Z M 237.1875 98.753906 L 213.609375 98.753906 L 202.503906 85.476562 L 191.699219 98.753906 L 168.273438 98.753906 L 178.25 88.007812 C 179.078125 88.085938 179.988281 88.160156 180.816406 88.160156 C 187.617188 88.160156 191.019531 84.859375 191.019531 80.945312 C 191.019531 78.875 190.1875 77.492188 188.902344 76.496094 L 190.867188 74.421875 L 188.375 71.660156 L 190.113281 67.667969 C 188.148438 66.59375 185.652344 65.980469 183.085938 65.828125 L 169.105469 50.476562 L 192.226562 50.476562 L 203.109375 62.988281 L 213.761719 50.476562 L 235.824219 50.476562 L 221.089844 66.289062 L 218.296875 66.289062 L 218.296875 69.28125 L 214.746094 73.117188 L 214.746094 66.289062 L 207.414062 66.289062 L 207.414062 73.886719 L 200.613281 73.886719 L 200.613281 66.289062 L 193.210938 66.289062 L 193.210938 87.699219 L 200.539062 87.699219 L 200.539062 79.796875 L 207.339844 79.796875 L 207.339844 87.699219 L 214.667969 87.699219 L 214.667969 74.421875 L 218.21875 78.261719 L 218.21875 87.625 L 225.550781 87.625 L 225.550781 86.242188 Z M 237.1875 98.753906 "/>
</g>
<path style=" stroke:none;fill-rule:nonzero;fill:rgb(0%,0%,0%);fill-opacity:1;" d="M 240.660156 65.75 C 233.558594 65.75 228.34375 70.433594 228.34375 76.957031 C 228.34375 83.402344 233.558594 88.160156 240.660156 88.160156 C 247.765625 88.160156 252.976562 83.480469 252.976562 76.957031 C 252.976562 70.507812 247.765625 65.75 240.660156 65.75 Z M 240.660156 82.328125 C 237.941406 82.328125 235.75 80.332031 235.75 76.957031 C 235.75 73.65625 237.941406 71.582031 240.660156 71.582031 C 243.382812 71.582031 245.574219 73.578125 245.574219 76.957031 C 245.574219 80.332031 243.382812 82.328125 240.660156 82.328125 Z M 240.660156 82.328125 "/>
<g clip-path="url(#clip3)" clip-rule="nonzero">
<path style=" stroke:none;fill-rule:nonzero;fill:rgb(0%,0%,0%);fill-opacity:1;" d="M 270.054688 66.289062 L 270.054688 76.035156 L 261.742188 66.289062 L 255.699219 66.289062 L 255.699219 87.699219 L 262.875 87.699219 L 262.875 77.953125 L 271.1875 87.699219 L 277.234375 87.699219 L 277.234375 66.289062 Z M 270.054688 66.289062 "/>
</g>
<g clip-path="url(#clip4)" clip-rule="nonzero">
<path style=" stroke:none;fill-rule:nonzero;fill:rgb(0%,0%,0%);fill-opacity:1;" d="M 9.8125 88.257812 C 6.023438 88.257812 2.238281 87.359375 0 86.042969 L 2.453125 80.769531 C 4.585938 81.980469 7.410156 82.71875 9.863281 82.71875 C 11.996094 82.71875 12.796875 82.296875 12.796875 81.558594 C 12.796875 78.871094 0.375 81.03125 0.375 73.019531 C 0.375 69.011719 3.890625 65.796875 10.878906 65.796875 C 13.917969 65.796875 17.007812 66.429688 19.355469 67.640625 L 17.0625 72.914062 C 14.824219 71.859375 12.742188 71.332031 10.769531 71.332031 C 8.53125 71.332031 7.839844 71.964844 7.839844 72.703125 C 7.839844 75.285156 20.261719 73.125 20.261719 81.03125 C 20.316406 84.933594 16.796875 88.257812 9.8125 88.257812 Z M 83.449219 87.78125 L 96.351562 99.59375 L 66.226562 99.59375 L 54.496094 87.78125 L 52.148438 87.78125 L 40.738281 99.59375 L 10.71875 99.59375 L 27.140625 84.722656 L 27.140625 71.910156 L 20.527344 71.910156 L 20.527344 66.324219 L 29.59375 66.324219 L 11.675781 49.765625 L 41.269531 49.765625 L 53.960938 62 L 66.386719 49.765625 L 94.804688 49.765625 L 75.503906 67.269531 L 75.503906 80.503906 L 77.371094 82.191406 L 85.6875 82.191406 L 85.6875 87.78125 Z M 75.449219 81.347656 L 75.449219 82.140625 L 76.355469 82.140625 Z M 34.710938 77.816406 L 38.390625 74.496094 L 35.617188 71.910156 L 34.660156 71.910156 L 34.660156 77.816406 Z M 82.488281 87.78125 L 67.878906 87.78125 L 67.878906 74.441406 L 67.238281 73.863281 L 67.878906 73.28125 L 67.878906 66.324219 L 75.449219 66.324219 L 75.449219 66.375 L 93.046875 50.453125 L 66.652344 50.453125 L 54.015625 62.949219 L 41.003906 50.398438 L 13.382812 50.398438 L 30.554688 66.269531 L 41.324219 66.269531 L 41.324219 71.910156 L 36.632812 71.910156 L 39.40625 74.441406 L 34.765625 78.660156 L 34.765625 87.730469 L 27.085938 87.730469 L 27.085938 85.515625 L 12.425781 98.90625 L 40.472656 98.90625 L 51.296875 87.78125 L 50.867188 87.78125 L 50.867188 79.871094 L 42.335938 66.324219 L 50.335938 66.324219 L 54.921875 73.757812 L 59.558594 66.324219 L 66.917969 66.324219 L 58.441406 79.976562 L 58.441406 87.78125 L 55.453125 87.78125 L 66.546875 98.90625 L 94.699219 98.90625 Z M 95.179688 82.296875 L 95.179688 79.449219 L 104.722656 79.449219 L 104.722656 74.230469 L 95.179688 74.230469 L 95.179688 71.699219 L 106.003906 71.699219 L 106.003906 66.324219 L 87.714844 66.324219 L 87.714844 87.78125 L 106.429688 87.78125 L 106.429688 82.296875 Z M 95.179688 82.296875 "/>
</g>
<g clip-path="url(#clip5)" clip-rule="nonzero">
<path style=" stroke:none;fill-rule:nonzero;fill:rgb(0%,0%,0%);fill-opacity:1;" d="M 117.453125 51.273438 C 117.644531 51.273438 117.890625 51.285156 117.984375 51.308594 C 118.160156 51.34375 118.367188 51.417969 118.503906 51.488281 C 118.585938 51.53125 118.609375 51.542969 118.589844 51.542969 C 118.582031 51.542969 118.570312 51.542969 118.554688 51.539062 C 118.421875 51.523438 117.21875 51.390625 117.097656 51.378906 C 117.03125 51.375 116.972656 51.363281 116.96875 51.351562 C 116.960938 51.339844 117.039062 51.320312 117.226562 51.285156 C 117.269531 51.277344 117.351562 51.273438 117.453125 51.273438 Z M 116.585938 52.488281 C 116.65625 52.488281 116.730469 52.519531 116.769531 52.578125 C 116.804688 52.632812 116.820312 52.703125 116.808594 52.761719 L 116.796875 52.808594 L 116.613281 52.808594 C 116.601562 52.808594 116.59375 52.808594 116.582031 52.808594 C 116.40625 52.808594 116.394531 52.796875 116.382812 52.683594 C 116.371094 52.601562 116.386719 52.570312 116.46875 52.519531 C 116.503906 52.5 116.542969 52.488281 116.585938 52.488281 Z M 120.179688 53.445312 L 120.210938 53.5 C 120.28125 53.628906 120.3125 53.773438 120.316406 53.964844 L 120.320312 54.148438 L 120.265625 54.199219 C 120.242188 54.21875 120.222656 54.234375 120.207031 54.234375 C 120.179688 54.234375 120.160156 54.199219 120.117188 54.113281 C 120.03125 53.941406 120.039062 53.683594 120.136719 53.519531 Z M 117.453125 53.5 C 117.335938 53.5 117.210938 53.53125 117.125 53.589844 C 116.949219 53.714844 116.875 53.9375 116.878906 54.3125 C 116.878906 54.601562 116.917969 54.992188 116.9375 54.992188 C 116.949219 54.992188 117.070312 54.949219 117.207031 54.902344 C 117.472656 54.816406 117.78125 54.738281 117.953125 54.71875 C 118.046875 54.707031 118.054688 54.703125 118.050781 54.671875 C 118.046875 54.652344 118.035156 54.554688 118.023438 54.449219 C 118.011719 54.347656 118 54.261719 117.996094 54.257812 C 117.996094 54.257812 117.996094 54.257812 117.992188 54.257812 C 117.976562 54.257812 117.914062 54.265625 117.84375 54.273438 C 117.785156 54.28125 117.703125 54.285156 117.640625 54.285156 C 117.617188 54.285156 117.59375 54.285156 117.574219 54.285156 C 117.332031 54.261719 116.972656 54.15625 117.03125 54.121094 C 117.046875 54.117188 117.230469 54.035156 117.441406 53.945312 C 117.648438 53.855469 117.824219 53.78125 117.828125 53.777344 C 117.832031 53.773438 117.828125 53.742188 117.816406 53.710938 C 117.792969 53.636719 117.707031 53.554688 117.613281 53.523438 C 117.566406 53.507812 117.511719 53.5 117.453125 53.5 Z M 117.007812 52.085938 C 117.105469 52.085938 117.253906 52.097656 117.53125 52.128906 C 118.355469 52.21875 118.550781 52.253906 118.769531 52.355469 C 119.003906 52.457031 119.175781 52.617188 119.273438 52.808594 C 119.332031 52.929688 119.335938 52.945312 119.339844 53.097656 C 119.339844 53.253906 119.335938 53.265625 119.265625 53.421875 C 119.109375 53.769531 119.121094 53.699219 119.125 54.191406 C 119.128906 54.703125 119.117188 54.746094 118.976562 54.960938 C 118.78125 55.253906 118.433594 55.453125 117.964844 55.535156 C 117.839844 55.558594 117.574219 55.570312 117.34375 55.570312 C 117.164062 55.570312 117.007812 55.5625 116.949219 55.546875 C 116.757812 55.5 116.617188 55.394531 116.519531 55.222656 C 116.460938 55.117188 116.289062 54.691406 116.121094 54.242188 C 115.980469 53.859375 115.980469 53.664062 116.121094 53.519531 C 116.183594 53.453125 116.222656 53.433594 116.398438 53.394531 C 116.570312 53.351562 116.777344 53.253906 116.878906 53.15625 C 116.988281 53.058594 117.066406 52.902344 117.082031 52.769531 C 117.101562 52.550781 116.964844 52.3125 116.789062 52.265625 C 116.746094 52.253906 116.710938 52.242188 116.710938 52.230469 C 116.710938 52.203125 116.792969 52.128906 116.855469 52.109375 C 116.898438 52.09375 116.9375 52.085938 117.007812 52.085938 Z M 115.992188 56.429688 C 116.027344 56.429688 116.027344 56.488281 116.03125 56.667969 C 116.03125 56.890625 116.03125 56.90625 116.066406 56.914062 C 116.113281 56.929688 116.105469 56.949219 116.042969 56.972656 C 116.019531 56.976562 116 56.980469 115.976562 56.980469 C 115.875 56.980469 115.773438 56.914062 115.734375 56.8125 C 115.707031 56.742188 115.707031 56.730469 115.734375 56.664062 C 115.761719 56.585938 115.835938 56.503906 115.917969 56.460938 C 115.953125 56.441406 115.976562 56.429688 115.992188 56.429688 Z M 120.546875 55.925781 L 120.589844 55.976562 C 120.648438 56.050781 120.773438 56.257812 120.839844 56.410156 C 120.949219 56.644531 121.015625 56.894531 121.0625 57.238281 C 121.066406 57.265625 121.054688 57.273438 120.984375 57.277344 C 120.9375 57.277344 120.878906 57.289062 120.84375 57.296875 C 120.789062 57.316406 120.785156 57.320312 120.785156 57.414062 C 120.785156 57.460938 120.785156 57.484375 120.777344 57.484375 C 120.765625 57.484375 120.746094 57.417969 120.703125 57.273438 C 120.589844 56.882812 120.511719 56.292969 120.539062 56.015625 Z M 124.039062 60.101562 C 124.058594 60.101562 124.230469 60.257812 124.292969 60.332031 C 124.40625 60.46875 124.511719 60.6875 124.539062 60.851562 L 124.550781 60.921875 L 124.105469 60.96875 L 124.121094 61.011719 C 124.148438 61.125 124.148438 61.25 124.121094 61.339844 C 124.089844 61.457031 124.070312 61.484375 123.984375 61.484375 C 123.96875 61.484375 123.953125 61.484375 123.933594 61.484375 C 123.621094 61.460938 123.398438 61.09375 123.492188 60.761719 C 123.542969 60.578125 123.683594 60.390625 123.917969 60.191406 C 123.980469 60.144531 124.03125 60.101562 124.039062 60.101562 Z M 115.128906 60.8125 C 115.136719 60.8125 115.140625 60.820312 115.148438 60.835938 C 115.15625 60.855469 115.160156 60.933594 115.15625 61.015625 C 115.148438 61.183594 115.105469 61.289062 114.988281 61.417969 C 114.929688 61.484375 114.855469 61.535156 114.824219 61.535156 C 114.820312 61.535156 114.816406 61.535156 114.8125 61.53125 C 114.804688 61.527344 114.800781 61.46875 114.796875 61.40625 C 114.78125 61.195312 114.867188 61.015625 115.046875 60.871094 C 115.097656 60.828125 115.117188 60.8125 115.128906 60.8125 Z M 120.761719 62.183594 C 120.785156 62.183594 120.796875 62.226562 120.820312 62.390625 C 120.863281 62.738281 120.75 63.007812 120.507812 63.125 C 120.457031 63.148438 120.417969 63.160156 120.390625 63.160156 C 120.332031 63.160156 120.324219 63.097656 120.34375 62.9375 C 120.378906 62.675781 120.46875 62.488281 120.644531 62.296875 C 120.703125 62.234375 120.757812 62.183594 120.761719 62.183594 Z M 119.03125 62.160156 C 119.0625 62.160156 119.039062 63.34375 119.007812 63.542969 C 118.953125 63.933594 118.816406 64.191406 118.621094 64.304688 L 118.554688 64.339844 L 118.539062 64.226562 C 118.511719 64.035156 118.519531 63.605469 118.550781 63.40625 C 118.613281 63.007812 118.746094 62.632812 118.957031 62.265625 C 118.988281 62.207031 119.023438 62.160156 119.03125 62.160156 Z M 115.160156 64.007812 C 115.167969 64.007812 115.207031 64.046875 115.25 64.097656 C 115.632812 64.527344 115.769531 64.867188 115.675781 65.167969 L 115.644531 65.261719 L 115.597656 65.160156 C 115.488281 64.921875 115.347656 64.566406 115.257812 64.304688 C 115.203125 64.148438 115.160156 64.015625 115.160156 64.007812 Z M 116.980469 56.375 L 117.03125 56.386719 C 117.121094 56.402344 117.191406 56.445312 117.265625 56.527344 C 117.335938 56.605469 117.371094 56.667969 117.53125 56.996094 C 117.644531 57.242188 117.824219 57.390625 117.988281 57.390625 C 118.011719 57.390625 118.035156 57.386719 118.054688 57.382812 C 118.136719 57.359375 118.148438 57.324219 118.128906 57.183594 C 118.117188 57.082031 118.0625 56.941406 118.003906 56.859375 L 117.96875 56.8125 L 118.039062 56.78125 C 118.121094 56.746094 118.230469 56.625 118.253906 56.542969 C 118.265625 56.503906 118.273438 56.488281 118.292969 56.488281 C 118.300781 56.488281 118.3125 56.492188 118.324219 56.496094 C 118.414062 56.511719 118.5625 56.59375 118.625 56.660156 C 118.65625 56.691406 118.675781 56.71875 118.664062 56.71875 C 118.636719 56.71875 118.59375 56.816406 118.59375 56.890625 C 118.59375 56.960938 118.617188 57.023438 118.644531 57.023438 C 118.65625 57.023438 118.898438 56.851562 119.007812 56.761719 C 119.011719 56.761719 119.015625 56.757812 119.019531 56.757812 C 119.042969 56.757812 119.074219 56.84375 119.144531 57.085938 C 119.261719 57.511719 119.316406 57.9375 119.304688 58.355469 C 119.292969 58.71875 119.25 58.867188 119.109375 59.023438 C 118.972656 59.171875 118.75 59.25 118.441406 59.25 C 118.382812 59.25 118.316406 59.246094 118.253906 59.238281 C 118.160156 59.230469 118.082031 59.226562 118.050781 59.226562 C 118.046875 59.226562 118.042969 59.226562 118.042969 59.226562 C 118.039062 59.230469 118.011719 59.78125 117.980469 60.449219 C 117.933594 61.546875 117.921875 61.742188 117.90625 61.742188 C 117.90625 61.742188 117.90625 61.742188 117.902344 61.742188 C 117.875 61.710938 117.761719 61.023438 117.71875 60.621094 C 117.699219 60.441406 117.691406 59.800781 117.699219 59.199219 L 117.703125 59.066406 L 117.648438 59.0625 C 117.648438 59.058594 117.644531 59.058594 117.640625 59.058594 C 117.578125 59.058594 117.484375 59.140625 117.441406 59.234375 C 117.40625 59.320312 117.265625 59.871094 117.1875 60.234375 C 116.902344 61.582031 116.789062 62.894531 116.832031 64.292969 C 116.847656 64.730469 116.878906 65.261719 116.894531 65.277344 C 116.90625 65.277344 117.054688 65.242188 117.242188 65.195312 C 117.445312 65.140625 117.621094 65.105469 117.675781 65.105469 C 117.675781 65.105469 117.675781 65.105469 117.679688 65.105469 C 117.847656 65.105469 117.964844 65.199219 117.964844 65.332031 C 117.964844 65.386719 117.925781 65.46875 117.894531 65.484375 C 117.890625 65.484375 117.890625 65.484375 117.886719 65.484375 C 117.828125 65.484375 117.5 65.441406 117.113281 65.390625 C 116.695312 65.332031 116.320312 65.28125 116.273438 65.277344 L 116.1875 65.265625 L 116.183594 65.042969 C 116.179688 64.640625 116.101562 64.382812 115.730469 63.589844 C 115.429688 62.9375 115.339844 62.667969 115.324219 62.3125 C 115.308594 61.992188 115.355469 61.839844 115.496094 61.761719 C 115.523438 61.746094 115.542969 61.738281 115.558594 61.738281 C 115.605469 61.738281 115.613281 61.808594 115.632812 62.019531 C 115.699219 62.78125 115.878906 63.402344 116.214844 64.035156 C 116.296875 64.183594 116.328125 64.242188 116.351562 64.242188 C 116.363281 64.242188 116.375 64.222656 116.386719 64.191406 C 116.441406 64.066406 116.425781 63.832031 116.339844 63.5 C 116.148438 62.730469 116.117188 62.101562 116.234375 61.371094 C 116.285156 61.066406 116.359375 60.796875 116.527344 60.3125 C 116.679688 59.882812 116.691406 59.777344 116.863281 57.75 Z M 119.230469 70.910156 L 119.199219 70.964844 C 119.167969 71.023438 119.101562 71.074219 119.011719 71.125 C 118.964844 71.148438 118.871094 71.160156 118.777344 71.160156 C 118.71875 71.160156 118.660156 71.15625 118.613281 71.144531 L 118.523438 71.128906 L 118.578125 71.085938 C 118.648438 71.03125 118.777344 70.972656 118.890625 70.941406 C 118.941406 70.925781 119.039062 70.914062 119.105469 70.914062 Z M 119.40625 72.136719 C 119.476562 72.136719 119.546875 72.144531 119.617188 72.160156 C 119.660156 72.171875 119.691406 72.1875 119.691406 72.195312 C 119.691406 72.203125 119.652344 72.238281 119.601562 72.277344 C 119.441406 72.398438 119.261719 72.464844 119.085938 72.464844 C 119.042969 72.464844 119.003906 72.460938 118.964844 72.453125 C 118.898438 72.441406 118.839844 72.429688 118.832031 72.425781 C 118.808594 72.410156 118.972656 72.269531 119.070312 72.21875 C 119.117188 72.195312 119.203125 72.164062 119.257812 72.152344 C 119.304688 72.140625 119.355469 72.136719 119.40625 72.136719 Z M 114.757812 49.710938 C 114.75 49.710938 114.726562 49.742188 114.707031 49.78125 C 114.6875 49.824219 114.617188 49.949219 114.550781 50.0625 L 114.425781 50.273438 L 114.492188 50.371094 C 114.761719 50.765625 115.125 51.117188 115.535156 51.386719 C 115.691406 51.484375 116.011719 51.652344 116.15625 51.707031 C 116.203125 51.722656 116.234375 51.746094 116.230469 51.753906 C 116.230469 51.765625 116.191406 51.796875 116.148438 51.824219 C 116.085938 51.863281 115.988281 51.882812 115.886719 51.882812 C 115.839844 51.882812 115.792969 51.878906 115.746094 51.867188 C 115.617188 51.839844 115.351562 51.710938 115.089844 51.542969 C 114.417969 51.113281 114.257812 51.046875 113.859375 51.046875 C 113.847656 51.046875 113.835938 51.046875 113.824219 51.046875 C 113.460938 51.046875 113.101562 51.144531 112.664062 51.363281 C 112.359375 51.511719 112.199219 51.613281 111.246094 52.234375 C 110.800781 52.519531 110.054688 53.003906 109.589844 53.304688 C 109.121094 53.609375 108.695312 53.882812 108.644531 53.917969 C 108.589844 53.953125 108.546875 53.984375 108.546875 53.992188 C 108.546875 53.996094 108.621094 54.070312 108.710938 54.15625 C 109.152344 54.566406 109.683594 54.871094 110.269531 55.046875 C 110.332031 55.066406 110.371094 55.078125 110.390625 55.078125 C 110.402344 55.078125 110.40625 55.074219 110.402344 55.070312 C 110.398438 55.058594 110.292969 54.910156 110.167969 54.738281 C 109.816406 54.265625 109.742188 54.152344 109.75 54.128906 C 109.765625 54.085938 110.15625 53.671875 110.34375 53.5 C 111.359375 52.570312 112.578125 51.933594 113.890625 51.65625 C 114.144531 51.601562 114.410156 51.554688 114.464844 51.554688 C 114.46875 51.554688 114.472656 51.554688 114.476562 51.558594 C 114.476562 51.558594 114.46875 51.613281 114.453125 51.671875 C 114.4375 51.75 114.429688 51.855469 114.429688 52.003906 C 114.433594 52.359375 114.5 52.609375 114.796875 53.351562 C 114.890625 53.585938 114.992188 53.863281 115.027344 53.96875 C 115.210938 54.546875 115.171875 54.898438 114.894531 55.234375 C 114.761719 55.394531 114.710938 55.472656 114.644531 55.601562 C 114.476562 55.945312 114.425781 56.359375 114.460938 57.027344 C 114.476562 57.238281 114.492188 57.550781 114.5 57.726562 C 114.523438 58.097656 114.503906 58.453125 114.457031 58.707031 C 114.4375 58.796875 114.382812 58.992188 114.332031 59.140625 C 114.207031 59.5 114.09375 59.90625 114.019531 60.234375 C 113.714844 61.636719 113.738281 63.101562 114.085938 64.480469 C 114.164062 64.789062 114.308594 65.253906 114.367188 65.402344 L 114.390625 65.457031 L 114.582031 65.394531 C 114.855469 65.300781 115.042969 65.269531 115.351562 65.265625 C 115.359375 65.265625 115.367188 65.265625 115.375 65.265625 C 115.507812 65.265625 115.613281 65.273438 115.621094 65.277344 C 115.640625 65.296875 115.566406 65.410156 115.476562 65.492188 C 115.378906 65.582031 115.289062 65.625 115.175781 65.625 C 115.152344 65.625 115.128906 65.621094 115.105469 65.617188 C 115.046875 65.613281 114.949219 65.605469 114.886719 65.605469 C 114.886719 65.605469 114.882812 65.605469 114.882812 65.605469 C 114.542969 65.613281 114.230469 65.964844 114.136719 66.445312 C 114.09375 66.660156 114.113281 66.914062 114.203125 67.324219 C 114.335938 67.953125 114.363281 68.167969 114.328125 68.394531 C 114.320312 68.460938 114.3125 68.515625 114.316406 68.519531 C 114.324219 68.519531 114.351562 68.476562 114.378906 68.421875 C 114.523438 68.148438 114.84375 67.9375 115.226562 67.875 C 115.289062 67.863281 115.371094 67.859375 115.460938 67.859375 C 115.621094 67.859375 115.804688 67.875 115.914062 67.902344 C 116.242188 67.988281 116.449219 68.105469 116.703125 68.355469 C 117.117188 68.765625 117.382812 69.292969 117.613281 70.1875 C 117.660156 70.367188 118.160156 72.59375 118.195312 72.773438 C 118.28125 73.230469 118.242188 73.558594 118.074219 73.78125 C 117.976562 73.90625 117.75 74.011719 117.570312 74.011719 C 117.566406 74.011719 117.566406 74.011719 117.566406 74.011719 C 117.410156 74.011719 117.25 73.933594 117.195312 73.824219 C 117.167969 73.773438 117.167969 73.773438 117.222656 73.730469 C 117.625 73.433594 117.738281 72.828125 117.472656 72.425781 L 117.425781 72.351562 L 117.414062 72.527344 C 117.394531 72.867188 117.257812 73.125 116.835938 73.625 C 116.40625 74.128906 116.304688 74.265625 116.191406 74.488281 C 116.066406 74.742188 116.050781 74.949219 116.136719 75.3125 C 116.257812 75.84375 116.308594 76.246094 116.324219 76.792969 C 116.34375 77.480469 116.28125 78.105469 116.121094 78.753906 C 116.078125 78.929688 115.957031 79.339844 115.945312 79.339844 C 115.9375 79.332031 115.894531 79.089844 115.835938 78.679688 C 115.535156 76.675781 115.585938 75.375 116.003906 74.230469 C 116.132812 73.878906 116.296875 73.574219 116.589844 73.140625 C 116.933594 72.628906 117.125 72.058594 117.175781 71.421875 C 117.195312 71.144531 117.183594 70.878906 117.136719 70.585938 C 117.101562 70.386719 116.996094 70.003906 116.964844 69.972656 C 116.957031 69.972656 116.925781 70.164062 116.894531 70.402344 C 116.769531 71.296875 116.648438 71.839844 116.460938 72.355469 C 116.09375 73.351562 115.441406 74.097656 114.636719 74.429688 C 114.484375 74.496094 114.203125 74.574219 114.125 74.574219 C 114.121094 74.574219 114.121094 74.574219 114.121094 74.574219 C 114.078125 74.574219 114.082031 74.566406 114.210938 74.398438 C 114.398438 74.160156 114.730469 73.644531 114.894531 73.347656 C 115.496094 72.246094 115.832031 71.042969 115.902344 69.746094 C 115.921875 69.441406 115.910156 68.941406 115.882812 68.695312 L 115.875 68.597656 L 115.753906 68.539062 C 115.636719 68.484375 115.511719 68.457031 115.382812 68.457031 C 115.164062 68.457031 114.929688 68.539062 114.707031 68.699219 C 114.371094 68.941406 114.167969 69.363281 114.089844 69.96875 C 114.023438 70.511719 113.984375 74.675781 114.03125 76.273438 C 114.085938 78 114.152344 78.992188 114.34375 80.664062 C 114.445312 81.542969 114.480469 81.902344 114.507812 82.3125 C 114.582031 83.546875 114.433594 84.503906 114.042969 85.304688 C 113.875 85.644531 113.78125 85.804688 113.351562 86.46875 C 112.964844 87.0625 112.867188 87.226562 112.722656 87.53125 C 112.386719 88.242188 112.164062 89 111.898438 90.292969 C 111.808594 90.738281 111.027344 94.789062 110.996094 94.972656 C 110.984375 95.046875 110.914062 95.011719 111.761719 95.371094 C 112.210938 95.558594 112.339844 95.621094 112.335938 95.640625 C 112.328125 95.652344 112.304688 95.730469 112.277344 95.8125 C 112.1875 96.070312 112.167969 96.222656 112.171875 96.578125 C 112.171875 96.84375 112.179688 96.929688 112.210938 97.074219 C 112.320312 97.570312 112.539062 97.972656 112.882812 98.3125 C 112.980469 98.410156 113.066406 98.488281 113.074219 98.488281 C 113.078125 98.488281 113.078125 98.488281 113.078125 98.488281 C 113.082031 98.480469 113.050781 98.371094 113.007812 98.246094 C 112.789062 97.597656 112.710938 97.09375 112.707031 96.332031 C 112.703125 95.5625 112.789062 94.929688 113.007812 94.109375 C 113.332031 92.890625 113.824219 91.792969 114.992188 89.699219 C 116.199219 87.527344 116.609375 86.667969 116.976562 85.53125 C 117.355469 84.347656 117.558594 83.34375 117.910156 80.847656 C 118.25 78.453125 118.453125 77.421875 118.800781 76.320312 C 118.964844 75.816406 119.253906 75.050781 119.285156 75.050781 C 119.300781 75.050781 119.605469 75.773438 119.945312 76.601562 C 121.34375 80.050781 122.507812 83.632812 123.386719 87.214844 C 124.171875 90.417969 124.460938 92.261719 124.472656 94.101562 C 124.480469 95.261719 124.386719 96.128906 124.144531 97.148438 C 124.085938 97.398438 124.074219 97.46875 124.078125 97.636719 C 124.074219 97.835938 124.089844 97.898438 124.15625 97.996094 C 124.175781 98.019531 124.195312 98.039062 124.203125 98.039062 C 124.21875 98.039062 124.394531 97.738281 124.46875 97.585938 C 124.539062 97.441406 124.675781 97.09375 124.71875 96.945312 C 124.835938 96.527344 124.882812 96.226562 124.894531 95.796875 C 124.902344 95.414062 124.882812 95.171875 124.816406 94.84375 C 124.792969 94.730469 124.777344 94.632812 124.777344 94.628906 C 124.78125 94.628906 125.054688 94.605469 125.390625 94.578125 C 125.722656 94.554688 126.03125 94.53125 126.078125 94.527344 C 126.097656 94.523438 126.121094 94.523438 126.132812 94.523438 C 126.148438 94.523438 126.15625 94.523438 126.15625 94.527344 C 126.15625 94.53125 125.9375 94.886719 125.714844 95.238281 L 125.550781 95.492188 L 125.621094 95.765625 C 125.835938 96.609375 125.976562 97.570312 126.015625 98.445312 L 126.019531 98.566406 L 125.855469 98.59375 C 125.765625 98.605469 125.203125 98.695312 124.605469 98.792969 C 124.007812 98.886719 123.519531 98.96875 123.519531 98.976562 C 123.519531 98.996094 123.75 99.140625 123.875 99.199219 C 124.136719 99.316406 124.355469 99.363281 124.664062 99.363281 C 124.675781 99.363281 124.6875 99.363281 124.699219 99.363281 C 124.925781 99.359375 124.984375 99.351562 125.128906 99.3125 C 125.449219 99.226562 125.722656 99.0625 125.957031 98.820312 C 126.183594 98.585938 126.34375 98.296875 126.429688 97.980469 C 126.480469 97.796875 126.484375 97.441406 126.453125 95.941406 C 126.4375 95.253906 126.410156 93.824219 126.390625 92.761719 C 126.339844 89.914062 126.316406 89.195312 126.261719 88.414062 C 126.15625 86.855469 125.992188 86.003906 125.445312 84.082031 C 125.058594 82.710938 124.921875 82.144531 124.792969 81.367188 C 124.632812 80.390625 124.550781 79.515625 124.441406 77.566406 C 124.320312 75.398438 124.246094 74.621094 124.074219 73.546875 C 123.859375 72.234375 123.53125 71.589844 122.875 71.1875 C 121.898438 70.582031 121.152344 69.957031 120.378906 69.097656 C 120.132812 68.824219 119.78125 68.371094 119.589844 68.089844 C 119.550781 68.027344 119.511719 67.980469 119.503906 67.980469 C 119.503906 67.980469 119.503906 67.980469 119.5 67.984375 C 119.492188 68.015625 119.589844 68.40625 119.671875 68.644531 C 119.960938 69.5 120.484375 70.265625 121.203125 70.875 C 121.75 71.339844 122.445312 71.703125 123.085938 71.863281 C 123.1875 71.890625 123.273438 71.914062 123.277344 71.914062 C 123.28125 71.914062 123.257812 71.957031 123.230469 72.003906 C 123.109375 72.191406 122.871094 72.351562 122.628906 72.40625 C 122.554688 72.421875 122.441406 72.429688 122.335938 72.429688 C 122.234375 72.429688 122.136719 72.421875 122.070312 72.40625 C 121.535156 72.289062 121.125 71.878906 120.660156 71.007812 C 120.609375 70.914062 120.5625 70.835938 120.558594 70.835938 C 120.539062 70.835938 120.523438 71.265625 120.535156 71.503906 C 120.5625 71.980469 120.632812 72.425781 120.753906 72.832031 L 120.789062 72.945312 L 120.699219 72.996094 C 120.347656 73.195312 119.863281 73.324219 119.449219 73.328125 C 119.25 73.328125 118.855469 73.273438 118.855469 73.242188 C 118.855469 73.222656 119.097656 73.042969 119.199219 72.992188 C 119.394531 72.894531 119.617188 72.84375 119.835938 72.84375 C 119.960938 72.84375 120.082031 72.859375 120.195312 72.894531 C 120.234375 72.90625 120.273438 72.917969 120.285156 72.917969 C 120.289062 72.917969 120.292969 72.914062 120.292969 72.914062 C 120.296875 72.910156 120.246094 72.707031 120.179688 72.460938 C 120.113281 72.214844 119.796875 71.023438 119.472656 69.8125 C 119.152344 68.601562 118.882812 67.59375 118.878906 67.578125 C 118.875 67.558594 118.875 67.550781 118.882812 67.550781 C 118.890625 67.550781 118.898438 67.554688 118.90625 67.558594 C 118.957031 67.570312 119.03125 67.578125 119.101562 67.578125 C 119.171875 67.578125 119.246094 67.570312 119.300781 67.558594 C 119.542969 67.5 119.714844 67.410156 120.183594 67.105469 C 120.652344 66.804688 120.839844 66.71875 121.058594 66.71875 C 121.066406 66.71875 121.070312 66.71875 121.074219 66.71875 C 121.171875 66.71875 121.207031 66.726562 121.285156 66.769531 C 121.339844 66.792969 121.386719 66.824219 121.390625 66.835938 C 121.394531 66.84375 121.210938 66.917969 120.984375 66.996094 C 120.695312 67.09375 120.578125 67.144531 120.597656 67.152344 C 120.617188 67.160156 120.917969 67.214844 121.265625 67.277344 C 121.644531 67.34375 121.871094 67.390625 121.828125 67.394531 C 121.328125 67.429688 120.921875 67.535156 120.515625 67.734375 C 120.328125 67.828125 119.972656 68.054688 119.972656 68.085938 C 119.972656 68.097656 123.484375 71.226562 123.511719 71.238281 C 123.511719 71.238281 123.515625 71.238281 123.515625 71.238281 C 123.542969 71.238281 123.335938 70.617188 123.199219 70.28125 C 123.101562 70.039062 122.886719 69.589844 122.78125 69.40625 C 122.710938 69.285156 122.710938 69.285156 122.746094 69.269531 C 122.871094 69.222656 123.328125 69.003906 123.632812 68.847656 C 124.847656 68.230469 125.929688 67.5 126.964844 66.59375 C 127.285156 66.3125 127.816406 65.800781 128.035156 65.5625 C 128.347656 65.21875 128.421875 65.082031 128.421875 64.824219 C 128.417969 64.625 128.332031 64.410156 128.160156 64.183594 C 128.113281 64.125 127.671875 63.605469 127.179688 63.03125 C 126.6875 62.460938 125.785156 61.40625 125.175781 60.6875 C 124.226562 59.582031 124.082031 59.414062 124.046875 59.414062 C 124.042969 59.414062 124.039062 59.417969 124.035156 59.417969 C 124.019531 59.4375 123.726562 59.800781 123.382812 60.222656 C 123.039062 60.648438 122.714844 61.046875 122.667969 61.105469 C 122.617188 61.167969 122.578125 61.222656 122.578125 61.226562 C 122.578125 61.234375 122.742188 61.382812 122.9375 61.558594 C 123.699219 62.230469 124.453125 62.949219 125.101562 63.609375 C 125.355469 63.875 125.59375 64.136719 125.632812 64.191406 C 125.855469 64.53125 125.824219 65.070312 125.558594 65.480469 C 125.382812 65.746094 125.175781 65.957031 124.800781 66.246094 C 124.695312 66.324219 124.617188 66.394531 124.621094 66.398438 C 124.65625 66.398438 124.988281 66.210938 125.179688 66.085938 C 125.460938 65.894531 125.6875 65.707031 125.9375 65.449219 C 126.25 65.136719 126.457031 64.867188 126.675781 64.496094 C 126.789062 64.308594 126.960938 63.945312 127.027344 63.773438 C 127.046875 63.714844 127.070312 63.667969 127.078125 63.667969 C 127.085938 63.667969 127.136719 63.710938 127.183594 63.761719 C 127.320312 63.894531 127.355469 63.992188 127.355469 64.25 C 127.355469 64.484375 127.324219 64.625 127.214844 64.875 C 127.023438 65.320312 126.441406 66.0625 125.785156 66.699219 C 124.660156 67.792969 123.402344 68.386719 122.316406 68.386719 C 121.929688 68.386719 121.566406 68.3125 121.234375 68.160156 C 121.15625 68.121094 121.101562 68.089844 121.109375 68.085938 C 121.117188 68.082031 121.441406 67.988281 121.824219 67.878906 C 122.207031 67.769531 122.53125 67.671875 122.542969 67.664062 C 122.5625 67.65625 122.53125 67.625 122.449219 67.5625 C 122.386719 67.515625 122.253906 67.394531 122.15625 67.296875 C 121.601562 66.742188 121.230469 65.988281 121.09375 65.121094 C 121.054688 64.878906 121.035156 64.316406 121.058594 64.0625 C 121.144531 63.148438 121.496094 62.351562 122.085938 61.738281 C 122.164062 61.65625 122.226562 61.589844 122.226562 61.585938 C 122.226562 61.585938 122.199219 61.554688 122.160156 61.523438 C 122.070312 61.441406 122.019531 61.320312 122.007812 61.152344 C 121.996094 60.976562 122.027344 60.808594 122.152344 60.386719 C 122.277344 59.957031 122.304688 59.816406 122.304688 59.640625 C 122.300781 59.472656 122.273438 59.390625 122.191406 59.304688 C 122.148438 59.257812 122.0625 59.199219 122.039062 59.199219 C 122.039062 59.199219 122.035156 59.304688 122.035156 59.433594 C 122.035156 59.613281 122.027344 59.695312 122 59.800781 C 121.957031 59.96875 121.855469 60.1875 121.757812 60.324219 C 121.679688 60.433594 121.480469 60.640625 121.417969 60.671875 C 121.40625 60.675781 121.398438 60.679688 121.394531 60.679688 C 121.382812 60.679688 121.378906 60.667969 121.371094 60.636719 C 121.351562 60.539062 121.359375 60.222656 121.386719 60.082031 C 121.453125 59.71875 121.636719 59.367188 121.898438 59.121094 L 122.003906 59.019531 L 121.929688 58.964844 C 121.765625 58.84375 121.675781 58.664062 121.65625 58.417969 C 121.644531 58.253906 121.667969 58.113281 121.765625 57.78125 C 121.96875 57.09375 121.9375 56.855469 121.546875 56.152344 C 121.257812 55.636719 121.175781 55.4375 121.152344 55.175781 C 121.136719 55.027344 121.15625 54.925781 121.257812 54.597656 C 121.367188 54.257812 121.398438 54.074219 121.382812 53.847656 C 121.359375 53.5 121.253906 53.160156 120.980469 52.554688 C 120.582031 51.679688 120.269531 51.136719 119.925781 50.726562 C 119.558594 50.292969 119.09375 49.964844 118.679688 49.851562 C 118.515625 49.804688 118.339844 49.78125 118.164062 49.78125 C 117.707031 49.78125 117.246094 49.933594 116.910156 50.210938 C 116.636719 50.429688 116.476562 50.730469 116.445312 51.074219 L 116.433594 51.1875 L 116.289062 51.136719 C 116.097656 51.070312 115.828125 50.933594 115.652344 50.808594 C 115.433594 50.652344 115.160156 50.375 115.003906 50.140625 C 114.929688 50.03125 114.847656 49.886719 114.820312 49.824219 C 114.792969 49.765625 114.761719 49.710938 114.757812 49.710938 Z M 114.757812 49.710938 "/>
</g>
<path style=" stroke:none;fill-rule:nonzero;fill:rgb(0%,0%,0%);fill-opacity:1;" d="M 110.789062 94.929688 L 110.882812 95.03125 C 110.933594 95.085938 111 95.183594 111.03125 95.25 C 111.101562 95.398438 111.132812 95.519531 111.132812 95.671875 L 111.136719 95.792969 L 111.261719 95.789062 C 111.265625 95.789062 111.269531 95.789062 111.273438 95.789062 C 111.371094 95.789062 111.40625 95.800781 111.476562 95.835938 C 111.59375 95.898438 111.695312 96.015625 111.730469 96.132812 C 111.757812 96.21875 111.757812 96.234375 111.730469 96.355469 C 111.699219 96.507812 111.699219 96.601562 111.730469 96.65625 C 111.75 96.695312 111.746094 96.707031 111.617188 96.878906 L 111.476562 97.0625 L 111.5625 97.558594 C 111.609375 97.828125 111.644531 98.0625 111.640625 98.070312 C 111.621094 98.125 111.351562 98.214844 111.199219 98.214844 C 111.191406 98.214844 111.1875 98.210938 111.179688 98.210938 L 111.085938 98.207031 L 111.035156 98.046875 C 110.917969 97.65625 110.804688 97.023438 110.761719 96.558594 C 110.726562 96.152344 110.738281 95.246094 110.78125 94.992188 Z M 110.789062 94.929688 "/>
<g clip-path="url(#clip6)" clip-rule="nonzero">
<path style=" stroke:none;fill-rule:nonzero;fill:rgb(0%,0%,0%);fill-opacity:1;" d="M 111.011719 98.273438 C 111.054688 98.273438 111.101562 98.285156 111.136719 98.308594 C 111.191406 98.347656 111.21875 98.449219 111.195312 98.578125 C 111.1875 98.636719 111.179688 98.726562 111.179688 98.78125 C 111.179688 99.039062 111.398438 99.171875 111.980469 99.269531 C 112.097656 99.289062 112.261719 99.296875 112.433594 99.296875 C 112.652344 99.296875 112.882812 99.285156 113.039062 99.253906 C 113.160156 99.234375 113.292969 99.203125 113.335938 99.191406 C 113.375 99.179688 113.40625 99.171875 113.417969 99.171875 C 113.417969 99.175781 113.429688 99.242188 113.433594 99.324219 C 113.445312 99.46875 113.445312 99.46875 113.40625 99.46875 C 113.382812 99.472656 113.03125 99.484375 112.625 99.503906 C 112.316406 99.515625 112.101562 99.523438 111.945312 99.523438 C 111.695312 99.523438 111.585938 99.503906 111.472656 99.464844 C 111.214844 99.375 111.050781 99.179688 110.972656 98.859375 C 110.9375 98.722656 110.890625 98.359375 110.902344 98.324219 C 110.914062 98.292969 110.960938 98.273438 111.011719 98.273438 Z M 111.011719 98.273438 "/>
</g>
<g clip-path="url(#clip7)" clip-rule="nonzero">
<path style=" stroke:none;fill-rule:nonzero;fill:rgb(0%,0%,0%);fill-opacity:1;" d="M 107.382812 52.789062 L 107.394531 52.863281 C 107.398438 52.90625 107.417969 52.960938 107.433594 52.984375 C 107.453125 53.007812 107.488281 53.035156 107.515625 53.046875 C 107.542969 53.058594 107.566406 53.074219 107.566406 53.082031 C 107.566406 53.140625 107.234375 53.371094 107.148438 53.371094 C 107.128906 53.371094 107.125 53.394531 107.132812 53.507812 C 107.140625 53.625 107.148438 53.664062 107.21875 53.796875 C 107.328125 54.011719 107.46875 54.179688 107.875 54.585938 C 108.597656 55.304688 109.300781 55.804688 110.21875 56.253906 C 110.542969 56.410156 110.542969 56.410156 110.601562 56.507812 C 110.679688 56.632812 110.90625 56.859375 111.039062 56.949219 C 111.167969 57.035156 111.421875 57.152344 111.539062 57.183594 C 111.597656 57.199219 111.652344 57.230469 111.71875 57.289062 C 111.953125 57.496094 112.300781 57.632812 112.585938 57.632812 C 112.589844 57.632812 112.589844 57.632812 112.589844 57.632812 L 112.6875 57.632812 L 112.683594 57.75 C 112.679688 57.839844 112.6875 57.882812 112.710938 57.941406 C 112.773438 58.074219 112.898438 58.1875 113.03125 58.226562 C 113.035156 58.230469 113.039062 58.230469 113.039062 58.230469 C 113.128906 58.230469 113.1875 57.859375 113.128906 57.65625 C 113.113281 57.601562 113.105469 57.550781 113.113281 57.546875 C 113.121094 57.539062 113.199219 57.492188 113.289062 57.445312 L 113.453125 57.359375 L 113.460938 57.414062 C 113.46875 57.445312 113.523438 58 113.589844 58.648438 C 113.71875 59.953125 113.734375 60.246094 113.683594 60.554688 C 113.652344 60.761719 113.574219 60.980469 113.476562 61.128906 C 113.425781 61.203125 113.398438 61.242188 113.386719 61.242188 C 113.375 61.242188 113.375 61.222656 113.382812 61.1875 C 113.40625 61.070312 113.410156 60.769531 113.390625 60.597656 C 113.320312 59.984375 113.035156 59.40625 112.601562 58.992188 C 112.375 58.773438 112.175781 58.636719 111.296875 58.066406 C 110.375 57.472656 109.902344 57.152344 109.414062 56.789062 C 108.453125 56.074219 107.75 55.40625 107.203125 54.679688 C 106.726562 54.054688 106.582031 53.730469 106.65625 53.457031 C 106.703125 53.285156 106.898438 53.152344 107.0625 53.152344 C 107.101562 53.152344 107.140625 53.160156 107.175781 53.175781 L 107.226562 53.203125 L 107.226562 53.125 C 107.226562 53.007812 107.257812 52.917969 107.324219 52.847656 Z M 107.382812 52.789062 "/>
</g>
<path style=" stroke:none;fill-rule:nonzero;fill:rgb(0%,0%,0%);fill-opacity:1;" d="M 113.574219 56.328125 C 113.59375 56.328125 113.609375 56.328125 113.625 56.335938 C 113.640625 56.339844 113.667969 56.371094 113.6875 56.40625 C 113.765625 56.53125 113.71875 56.757812 113.597656 56.832031 C 113.5625 56.855469 113.523438 56.867188 113.5 56.867188 C 113.480469 56.867188 113.46875 56.859375 113.476562 56.839844 C 113.480469 56.828125 113.464844 56.738281 113.441406 56.648438 C 113.417969 56.558594 113.398438 56.464844 113.398438 56.449219 C 113.398438 56.386719 113.492188 56.328125 113.574219 56.328125 Z M 113.574219 56.328125 "/>
<path style=" stroke:none;fill-rule:nonzero;fill:rgb(0%,0%,0%);fill-opacity:1;" d="M 110.386719 55.109375 C 110.40625 55.109375 110.496094 55.128906 110.585938 55.152344 C 110.921875 55.238281 111.285156 55.40625 111.574219 55.605469 C 111.722656 55.714844 112.132812 56.085938 112.132812 56.117188 C 112.132812 56.125 112.101562 56.132812 112.058594 56.132812 C 111.992188 56.132812 111.886719 56.121094 111.808594 56.101562 C 111.65625 56.0625 111.449219 55.960938 111.273438 55.84375 C 111.160156 55.765625 110.46875 55.222656 110.382812 55.144531 C 110.351562 55.109375 110.351562 55.109375 110.386719 55.109375 Z M 110.386719 55.109375 "/>
<path style=" stroke:none;fill-rule:nonzero;fill:rgb(0%,0%,0%);fill-opacity:1;" d="M 117.769531 52.363281 C 117.773438 52.363281 117.828125 52.398438 117.890625 52.4375 C 118.085938 52.566406 118.328125 52.636719 118.5625 52.636719 C 118.640625 52.636719 118.71875 52.628906 118.796875 52.613281 C 118.835938 52.601562 118.859375 52.597656 118.875 52.597656 C 118.898438 52.597656 118.910156 52.605469 118.925781 52.625 C 118.972656 52.6875 118.980469 52.796875 118.945312 52.882812 C 118.886719 53.015625 118.800781 53.070312 118.597656 53.101562 C 118.5625 53.109375 118.523438 53.113281 118.488281 53.113281 C 118.148438 53.113281 117.796875 52.871094 117.75 52.585938 C 117.738281 52.519531 117.75 52.363281 117.769531 52.363281 Z M 117.769531 52.363281 "/>
<g clip-path="url(#clip8)" clip-rule="nonzero">
<path style=" stroke:none;fill-rule:nonzero;fill:rgb(0%,0%,0%);fill-opacity:1;" d="M 29.90625 126.617188 L 53.105469 125.054688 L 29.90625 123.492188 L 28.34375 100.289062 L 26.78125 123.492188 L 3.578125 125.054688 L 26.78125 126.617188 L 28.34375 149.816406 Z M 29.90625 126.617188 "/>
</g>
<path style=" stroke:none;fill-rule:nonzero;fill:rgb(0%,0%,0%);fill-opacity:1;" d="M 28.34375 126.285156 L 38.113281 134.824219 L 29.574219 125.054688 L 38.113281 115.28125 L 28.34375 123.820312 L 18.570312 115.28125 L 27.109375 125.054688 L 18.570312 134.824219 Z M 28.34375 126.285156 "/>
<g clip-path="url(#clip9)" clip-rule="nonzero">
<path style=" stroke:none;fill-rule:nonzero;fill:rgb(0%,0%,0%);fill-opacity:1;" d="M 229.308594 126.617188 L 252.511719 125.054688 L 229.308594 123.492188 L 227.746094 100.289062 L 226.183594 123.492188 L 202.980469 125.054688 L 226.183594 126.617188 L 227.746094 149.816406 Z M 229.308594 126.617188 "/>
</g>
<path style=" stroke:none;fill-rule:nonzero;fill:rgb(0%,0%,0%);fill-opacity:1;" d="M 227.746094 126.285156 L 237.519531 134.824219 L 228.980469 125.054688 L 237.519531 115.28125 L 227.746094 123.820312 L 217.976562 115.28125 L 226.511719 125.054688 L 217.976562 134.824219 Z M 227.746094 126.285156 "/>
</g>
</svg>
