<?xml version="1.0" encoding="UTF-8"?>
<svg xmlns="http://www.w3.org/2000/svg" xmlns:xlink="http://www.w3.org/1999/xlink" width="1394.25pt" height="161.999997pt" viewBox="0 0 1394.25 161.999997" version="1.2">
<defs>
<clipPath id="clip1">
  <path d="M 0 0.0429688 L 1393.5 0.0429688 L 1393.5 161.957031 L 0 161.957031 Z M 0 0.0429688 "/>
</clipPath>
<clipPath id="clip2">
  <path d="M 689.976562 42.464844 L 826.355469 42.464844 L 826.355469 106.640625 L 689.976562 106.640625 Z M 689.976562 42.464844 "/>
</clipPath>
<clipPath id="clip3">
  <path d="M 885.84375 63 L 910 63 L 910 92 L 885.84375 92 Z M 885.84375 63 "/>
</clipPath>
<clipPath id="clip4">
  <path d="M 936 42.464844 L 1033 42.464844 L 1033 106.640625 L 936 106.640625 Z M 936 42.464844 "/>
</clipPath>
<clipPath id="clip5">
  <path d="M 1054 63 L 1082.988281 63 L 1082.988281 92 L 1054 92 Z M 1054 63 "/>
</clipPath>
<clipPath id="clip6">
  <path d="M 859 16.234375 L 863 16.234375 L 863 22 L 859 22 Z M 859 16.234375 "/>
</clipPath>
<clipPath id="clip7">
  <path d="M 839.703125 47 L 853 47 L 853 70 L 839.703125 70 Z M 839.703125 47 "/>
</clipPath>
<clipPath id="clip8">
  <path d="M 839.703125 67 L 842 67 L 842 75 L 839.703125 75 Z M 839.703125 67 "/>
</clipPath>
<clipPath id="clip9">
  <path d="M 864 87 L 871.796875 87 L 871.796875 100 L 864 100 Z M 864 87 "/>
</clipPath>
<clipPath id="clip10">
  <path d="M 853 126 L 861 126 L 861 145.914062 L 853 145.914062 Z M 853 126 "/>
</clipPath>
</defs>
<g id="surface1">
<g clip-path="url(#clip1)" clip-rule="nonzero">
<path style=" stroke:none;fill-rule:nonzero;fill:rgb(100%,100%,100%);fill-opacity:1;" d="M 0 0.0429688 L 1394.25 0.0429688 L 1394.25 169.453125 L 0 169.453125 Z M 0 0.0429688 "/>
<path style=" stroke:none;fill-rule:nonzero;fill:rgb(100%,100%,100%);fill-opacity:1;" d="M 0 0.0429688 L 1393.5 0.0429688 L 1393.5 161.957031 L 0 161.957031 Z M 0 0.0429688 "/>
<path style=" stroke:none;fill-rule:nonzero;fill:rgb(100%,100%,100%);fill-opacity:1;" d="M 0 0.0429688 L 1393.5 0.0429688 L 1393.5 161.957031 L 0 161.957031 Z M 0 0.0429688 "/>
</g>
<g clip-path="url(#clip2)" clip-rule="nonzero">
<path style=" stroke:none;fill-rule:nonzero;fill:rgb(0%,0%,0%);fill-opacity:1;" d="M 702.546875 92 C 697.695312 92 692.84375 90.847656 689.976562 89.152344 L 693.117188 82.378906 C 695.851562 83.9375 699.472656 84.886719 702.617188 84.886719 C 705.347656 84.886719 706.375 84.34375 706.375 83.394531 C 706.375 79.9375 690.453125 82.714844 690.453125 72.417969 C 690.453125 67.269531 694.964844 63.136719 703.914062 63.136719 C 707.808594 63.136719 711.769531 63.949219 714.777344 65.507812 L 711.839844 72.28125 C 708.96875 70.925781 706.304688 70.25 703.777344 70.25 C 700.90625 70.25 700.019531 71.0625 700.019531 72.011719 C 700.019531 75.332031 715.9375 72.554688 715.9375 82.714844 C 716.007812 87.730469 711.496094 92 702.546875 92 Z M 796.90625 91.390625 L 813.441406 106.566406 L 774.835938 106.566406 L 759.804688 91.390625 L 756.796875 91.390625 L 742.175781 106.566406 L 703.707031 106.566406 L 724.753906 87.460938 L 724.753906 70.996094 L 716.28125 70.996094 L 716.28125 63.8125 L 727.894531 63.8125 L 704.9375 42.535156 L 742.859375 42.535156 L 759.121094 58.257812 L 775.042969 42.535156 L 811.460938 42.535156 L 786.726562 65.03125 L 786.726562 82.039062 L 789.117188 84.207031 L 799.777344 84.207031 L 799.777344 91.390625 Z M 786.65625 83.125 L 786.65625 84.140625 L 787.820312 84.140625 Z M 734.457031 78.582031 L 739.171875 74.316406 L 735.617188 70.996094 L 734.386719 70.996094 L 734.386719 78.582031 Z M 795.675781 91.390625 L 776.953125 91.390625 L 776.953125 74.246094 L 776.136719 73.5 L 776.953125 72.757812 L 776.953125 63.8125 L 786.65625 63.8125 L 786.65625 63.878906 L 809.203125 43.417969 L 775.382812 43.417969 L 759.191406 59.476562 L 742.519531 43.351562 L 707.125 43.351562 L 729.125 63.746094 L 742.929688 63.746094 L 742.929688 70.996094 L 736.914062 70.996094 L 740.46875 74.246094 L 734.523438 79.667969 L 734.523438 91.320312 L 724.683594 91.320312 L 724.683594 88.476562 L 705.894531 105.6875 L 741.835938 105.6875 L 755.707031 91.390625 L 755.160156 91.390625 L 755.160156 81.226562 L 744.226562 63.8125 L 754.476562 63.8125 L 760.351562 73.367188 L 766.296875 63.8125 L 775.726562 63.8125 L 764.859375 81.363281 L 764.859375 91.390625 L 761.035156 91.390625 L 775.246094 105.6875 L 811.324219 105.6875 Z M 811.9375 84.34375 L 811.9375 80.683594 L 824.167969 80.683594 L 824.167969 73.976562 L 811.9375 73.976562 L 811.9375 70.722656 L 825.808594 70.722656 L 825.808594 63.8125 L 802.371094 63.8125 L 802.371094 91.390625 L 826.355469 91.390625 L 826.355469 84.34375 Z M 811.9375 84.34375 "/>
</g>
<g clip-path="url(#clip3)" clip-rule="nonzero">
<path style=" stroke:none;fill-rule:nonzero;fill:rgb(0%,0%,0%);fill-opacity:1;" d="M 895.558594 70.84375 L 909.378906 70.84375 L 909.378906 63.820312 L 885.84375 63.820312 L 885.84375 91.414062 L 895.558594 91.414062 L 895.558594 82.511719 L 907.675781 82.511719 L 907.675781 75.589844 L 895.558594 75.589844 Z M 895.558594 70.84375 "/>
</g>
<path style=" stroke:none;fill-rule:nonzero;fill:rgb(0%,0%,0%);fill-opacity:1;" d="M 930.511719 63.820312 L 920.898438 63.820312 L 908.277344 91.414062 L 918.191406 91.414062 L 920.097656 86.566406 L 931.113281 86.566406 L 933.015625 91.414062 L 943.128906 91.414062 Z M 922.898438 79.84375 L 925.703125 72.921875 L 928.507812 79.84375 Z M 922.898438 79.84375 "/>
<g clip-path="url(#clip4)" clip-rule="nonzero">
<path style=" stroke:none;fill-rule:nonzero;fill:rgb(0%,0%,0%);fill-opacity:1;" d="M 1014.9375 63.820312 L 1010.03125 63.820312 L 1030.363281 42.558594 L 998.714844 42.558594 L 985.09375 58.183594 L 970.972656 42.558594 L 938.023438 42.558594 L 957.25 63.230469 C 957.152344 63.230469 956.953125 63.230469 956.851562 63.230469 C 947.835938 63.230469 943.332031 67.382812 943.332031 72.523438 C 943.332031 82.414062 958.054688 80.238281 959.253906 83.105469 L 957.550781 84.886719 C 957.050781 84.984375 956.351562 84.984375 955.550781 84.984375 C 952.34375 84.984375 948.738281 83.996094 946.035156 82.511719 L 942.929688 89.140625 C 944.933594 90.324219 947.835938 91.214844 951.042969 91.609375 L 936.921875 106.542969 L 970.371094 106.542969 L 984.292969 89.929688 L 998.613281 106.542969 L 1032.164062 106.542969 L 1014.9375 88.347656 Z M 1005.222656 78.0625 L 1000.917969 73.511719 L 1005.222656 68.964844 Z M 953.046875 72.03125 C 953.046875 71.042969 953.945312 70.25 956.851562 70.25 C 959.355469 70.25 962.058594 70.941406 964.964844 72.328125 L 965.265625 71.632812 L 967.769531 74.304688 L 965.664062 76.578125 C 960.855469 73.710938 953.046875 74.304688 953.046875 72.03125 Z M 1030.261719 105.652344 L 999.015625 105.652344 L 984.292969 88.546875 L 969.972656 105.652344 L 938.925781 105.652344 L 952.144531 91.808594 C 953.246094 91.90625 954.449219 92.007812 955.550781 92.007812 C 964.5625 92.007812 969.070312 87.753906 969.070312 82.710938 C 969.070312 80.039062 967.96875 78.261719 966.265625 76.976562 L 968.871094 74.304688 L 965.5625 70.746094 L 967.867188 65.601562 C 965.265625 64.21875 961.957031 63.425781 958.554688 63.230469 L 940.027344 43.449219 L 970.671875 43.449219 L 985.09375 59.570312 L 999.214844 43.449219 L 1028.457031 43.449219 L 1008.929688 63.820312 L 1005.222656 63.820312 L 1005.222656 67.679688 L 1000.515625 72.625 L 1000.515625 63.820312 L 990.800781 63.820312 L 990.800781 73.613281 L 981.789062 73.613281 L 981.789062 63.820312 L 971.972656 63.820312 L 971.972656 91.414062 L 981.6875 91.414062 L 981.6875 81.226562 L 990.703125 81.226562 L 990.703125 91.414062 L 1000.417969 91.414062 L 1000.417969 74.304688 L 1005.125 79.25 L 1005.125 91.3125 L 1014.839844 91.3125 L 1014.839844 89.535156 Z M 1030.261719 105.652344 "/>
</g>
<path style=" stroke:none;fill-rule:nonzero;fill:rgb(0%,0%,0%);fill-opacity:1;" d="M 1034.867188 63.128906 C 1025.453125 63.128906 1018.542969 69.164062 1018.542969 77.566406 C 1018.542969 85.875 1025.453125 92.007812 1034.867188 92.007812 C 1044.28125 92.007812 1051.191406 85.972656 1051.191406 77.566406 C 1051.191406 69.261719 1044.28125 63.128906 1034.867188 63.128906 Z M 1034.867188 84.492188 C 1031.261719 84.492188 1028.359375 81.917969 1028.359375 77.566406 C 1028.359375 73.316406 1031.261719 70.644531 1034.867188 70.644531 C 1038.472656 70.644531 1041.378906 73.21875 1041.378906 77.566406 C 1041.378906 81.917969 1038.472656 84.492188 1034.867188 84.492188 Z M 1034.867188 84.492188 "/>
<g clip-path="url(#clip5)" clip-rule="nonzero">
<path style=" stroke:none;fill-rule:nonzero;fill:rgb(0%,0%,0%);fill-opacity:1;" d="M 1073.828125 63.820312 L 1073.828125 76.382812 L 1062.808594 63.820312 L 1054.796875 63.820312 L 1054.796875 91.414062 L 1064.3125 91.414062 L 1064.3125 78.855469 L 1075.328125 91.414062 L 1083.339844 91.414062 L 1083.339844 63.820312 Z M 1073.828125 63.820312 "/>
</g>
<path style=" stroke:none;fill-rule:nonzero;fill:rgb(0%,0%,0%);fill-opacity:1;" d="M 858.070312 30.21875 C 858.070312 30.21875 858.136719 28.15625 857.277344 27.226562 C 856.421875 26.296875 853.617188 26.449219 853.617188 26.449219 C 853.617188 26.449219 854.34375 26.621094 855.429688 26.996094 C 856.808594 27.46875 856.851562 27.648438 857.265625 28.511719 C 857.679688 29.378906 858.058594 30.691406 858.070312 30.21875 Z M 858.070312 30.21875 "/>
<path style=" stroke:none;fill-rule:nonzero;fill:rgb(0%,0%,0%);fill-opacity:1;" d="M 858.933594 24.285156 C 857.519531 23.015625 853.476562 23.296875 853.4375 25.769531 C 853.4375 25.691406 853.742188 25.4375 853.742188 25.269531 C 853.761719 24.15625 855.765625 24.101562 856.503906 24.113281 C 857.207031 24.125 858.085938 24.324219 858.628906 24.816406 C 858.636719 24.820312 858.996094 24.34375 858.933594 24.285156 Z M 858.933594 24.285156 "/>
<path style=" stroke:none;fill-rule:nonzero;fill:rgb(0%,0%,0%);fill-opacity:1;" d="M 860.09375 24.695312 C 859.105469 23.050781 856.753906 22.21875 854.96875 22.710938 C 853.984375 22.980469 852.75 24.429688 853.441406 25.476562 C 853.414062 25.441406 853.8125 25.054688 853.742188 24.949219 C 853.316406 24.300781 853.65625 23.757812 854.261719 23.40625 C 855.140625 22.894531 856.285156 23.074219 857.203125 23.335938 C 858.195312 23.621094 859.246094 24.316406 859.789062 25.222656 C 859.761719 25.179688 860.160156 24.808594 860.09375 24.695312 Z M 860.09375 24.695312 "/>
<path style=" stroke:none;fill-rule:nonzero;fill:rgb(0%,0%,0%);fill-opacity:1;" d="M 855.75 21.464844 C 854.695312 21.613281 852.292969 23.246094 853.253906 24.613281 C 853.234375 24.582031 853.628906 24.183594 853.558594 24.082031 C 852.878906 23.121094 854.1875 22.410156 854.9375 22.125 C 855.945312 21.746094 857 21.984375 857.914062 22.476562 C 858.847656 22.976562 859.648438 24.007812 859.839844 25.070312 C 859.820312 24.953125 860.175781 24.714844 860.144531 24.542969 C 859.785156 22.542969 857.671875 21.191406 855.75 21.464844 Z M 855.75 21.464844 "/>
<path style=" stroke:none;fill-rule:nonzero;fill:rgb(0%,0%,0%);fill-opacity:1;" d="M 858.3125 22.089844 C 857.710938 21.570312 857.082031 21.148438 856.34375 20.898438 C 855.519531 20.617188 853.808594 20.226562 853.160156 21.078125 C 852.554688 21.867188 852.179688 23.417969 853.035156 24.203125 C 853.039062 24.207031 853.402344 23.734375 853.339844 23.675781 C 853.070312 23.425781 852.980469 22.945312 852.910156 22.605469 C 852.6875 21.515625 853.242188 21.160156 854.277344 21.140625 C 855.609375 21.113281 857.105469 21.660156 858.125 22.539062 C 858.132812 22.546875 858.371094 22.140625 858.3125 22.089844 Z M 858.3125 22.089844 "/>
<path style=" stroke:none;fill-rule:nonzero;fill:rgb(0%,0%,0%);fill-opacity:1;" d="M 860.628906 20.179688 C 859.996094 19.027344 858.589844 18.75 857.492188 19.367188 C 857.347656 19.445312 857.28125 19.847656 857.214844 19.882812 C 858.265625 19.296875 859.429688 19.5625 860.175781 20.484375 C 861.007812 21.511719 860.984375 23.191406 860.585938 24.398438 C 860.570312 24.453125 860.835938 24.074219 860.875 23.957031 C 861.277344 22.726562 861.253906 21.324219 860.628906 20.179688 Z M 860.628906 20.179688 "/>
<path style=" stroke:none;fill-rule:nonzero;fill:rgb(0%,0%,0%);fill-opacity:1;" d="M 859.480469 20.824219 C 857.996094 19.558594 856.164062 18.796875 854.714844 20.476562 C 854.636719 20.566406 854.445312 20.988281 854.480469 20.949219 C 855.941406 19.253906 857.730469 20.183594 859.179688 21.351562 C 860.089844 22.085938 860.984375 23.347656 860.484375 24.585938 C 860.46875 24.632812 860.726562 24.257812 860.773438 24.144531 C 861.289062 22.855469 860.414062 21.617188 859.480469 20.824219 Z M 859.480469 20.824219 "/>
<path style=" stroke:none;fill-rule:nonzero;fill:rgb(0%,0%,0%);fill-opacity:1;" d="M 860.78125 23.980469 C 860.804688 24.015625 860.410156 24.40625 860.476562 24.511719 C 861.003906 25.296875 862.3125 26.402344 863.316406 26.023438 C 863.484375 25.960938 863.507812 25.535156 863.621094 25.492188 C 862.617188 25.871094 861.308594 24.765625 860.78125 23.980469 Z M 860.78125 23.980469 "/>
<path style=" stroke:none;fill-rule:nonzero;fill:rgb(0%,0%,0%);fill-opacity:1;" d="M 863.535156 23.6875 C 862.886719 24.507812 861.695312 24.316406 860.863281 23.894531 C 860.8125 23.871094 860.53125 24.410156 860.5625 24.425781 C 861.445312 24.871094 862.625 25.015625 863.300781 24.160156 C 863.386719 24.050781 863.457031 23.925781 863.515625 23.800781 C 863.527344 23.785156 863.609375 23.59375 863.535156 23.6875 Z M 863.535156 23.6875 "/>
<path style=" stroke:none;fill-rule:nonzero;fill:rgb(0%,0%,0%);fill-opacity:1;" d="M 862.882812 21.394531 C 862.5625 21.15625 862.128906 21.023438 861.738281 20.972656 C 861.625 20.957031 861.46875 21.507812 861.4375 21.503906 C 862.09375 21.589844 863 21.925781 863.035156 22.710938 C 863.050781 23.03125 862.933594 23.089844 862.671875 23.226562 C 862.421875 23.355469 862.125 23.390625 861.847656 23.410156 C 861.5625 23.429688 861.265625 23.410156 860.980469 23.351562 C 860.878906 23.332031 860.699219 23.886719 860.679688 23.882812 C 861.074219 23.960938 861.488281 23.964844 861.882812 23.902344 C 862.492188 23.808594 862.871094 23.4375 863.140625 22.902344 C 863.421875 22.34375 863.410156 21.789062 862.882812 21.394531 Z M 862.882812 21.394531 "/>
<path style=" stroke:none;fill-rule:nonzero;fill:rgb(0%,0%,0%);fill-opacity:1;" d="M 862.417969 22.0625 C 862.488281 21.949219 862.550781 21.824219 862.550781 21.699219 C 862.550781 21.46875 862.28125 21.28125 862.125 21.164062 C 861.820312 20.949219 861.375 20.886719 861.039062 21.0625 C 860.949219 21.109375 860.875 21.296875 860.832031 21.378906 C 860.824219 21.398438 860.726562 21.601562 860.757812 21.582031 C 861 21.457031 861.296875 21.476562 861.542969 21.554688 C 861.789062 21.632812 862.011719 21.816406 862.167969 22.019531 C 862.183594 22.039062 862.195312 22.0625 862.207031 22.085938 C 861.878906 22.269531 861.433594 22.328125 861.082031 22.367188 C 861.019531 22.375 860.933594 22.570312 860.90625 22.617188 C 860.894531 22.632812 860.777344 22.898438 860.78125 22.898438 C 861.320312 22.835938 861.980469 22.726562 862.304688 22.246094 C 862.34375 22.214844 862.390625 22.132812 862.417969 22.0625 Z M 862.417969 22.0625 "/>
<path style=" stroke:none;fill-rule:nonzero;fill:rgb(0%,0%,0%);fill-opacity:1;" d="M 860.863281 18.882812 C 860.824219 18.277344 860.3125 17.140625 859.558594 17.253906 C 859.230469 17.304688 859.042969 17.640625 858.933594 17.925781 C 858.851562 18.152344 858.859375 18.386719 858.863281 18.621094 C 858.871094 18.851562 858.964844 19.242188 858.867188 19.453125 C 858.890625 19.414062 858.917969 19.371094 858.941406 19.332031 C 858.902344 19.433594 858.863281 19.527344 858.828125 19.5625 C 859.332031 19.089844 859.148438 18.421875 859.171875 17.808594 C 859.175781 17.804688 859.179688 17.804688 859.1875 17.800781 C 859.257812 17.773438 859.332031 17.773438 859.40625 17.769531 C 859.664062 17.765625 859.871094 17.980469 860.023438 18.160156 C 860.542969 18.753906 860.753906 19.832031 860.414062 20.480469 C 860.214844 20.855469 860.453125 20.539062 860.542969 20.367188 C 860.789062 19.902344 860.898438 19.410156 860.863281 18.882812 Z M 859.070312 17.851562 C 859.035156 17.882812 859.019531 17.878906 859.070312 17.851562 Z M 859.070312 17.851562 "/>
<g clip-path="url(#clip6)" clip-rule="nonzero">
<path style=" stroke:none;fill-rule:nonzero;fill:rgb(0%,0%,0%);fill-opacity:1;" d="M 862.371094 18.894531 C 862.148438 17.828125 860.894531 16.300781 859.675781 17.125 C 859.535156 17.21875 859.46875 17.59375 859.398438 17.640625 C 859.902344 17.300781 860.625 17.5 861.09375 17.792969 C 861.972656 18.339844 862.515625 20.050781 861.820312 20.933594 C 861.746094 21.03125 861.554688 21.449219 861.585938 21.40625 C 862.113281 20.738281 862.550781 19.757812 862.371094 18.894531 Z M 862.371094 18.894531 "/>
</g>
<path style=" stroke:none;fill-rule:nonzero;fill:rgb(0%,0%,0%);fill-opacity:1;" d="M 861.890625 17.925781 C 861.871094 17.914062 861.84375 18.488281 861.863281 18.5 C 862.339844 18.792969 862.746094 19.199219 863.074219 19.644531 C 863.359375 20.03125 863.503906 20.800781 863.082031 21.203125 C 862.90625 21.375 862.699219 21.421875 862.476562 21.527344 C 862.40625 21.5625 862.605469 21.8125 862.574219 21.828125 C 863.074219 21.59375 863.714844 21.109375 863.695312 20.484375 C 863.671875 19.578125 862.601562 18.367188 861.890625 17.925781 Z M 861.890625 17.925781 "/>
<path style=" stroke:none;fill-rule:nonzero;fill:rgb(0%,0%,0%);fill-opacity:1;" d="M 862.359375 25.757812 C 862.328125 28.230469 861.851562 31.34375 860.511719 33.433594 C 859.957031 34.300781 859.378906 35.769531 858.261719 35.132812 C 856.609375 34.191406 855.675781 31.445312 855.066406 29.746094 C 854.453125 28.050781 854.605469 26.234375 853.910156 24.574219 C 853.941406 24.648438 853.546875 24.964844 853.609375 25.105469 C 854.007812 26.058594 854.074219 27.007812 854.199219 28.019531 C 854.347656 29.203125 854.753906 30.339844 855.214844 31.433594 C 855.640625 32.429688 857.449219 36.386719 859.0625 35.550781 C 860.066406 35.03125 860.785156 33.550781 861.300781 32.605469 C 862.417969 30.554688 862.988281 28.25 863.015625 25.914062 C 863.015625 25.992188 862.363281 25.589844 862.359375 25.757812 Z M 862.359375 25.757812 "/>
<path style=" stroke:none;fill-rule:nonzero;fill:rgb(0%,0%,0%);fill-opacity:1;" d="M 860.878906 35.570312 C 860.886719 34.707031 860.925781 33.847656 860.984375 32.988281 C 860.976562 33.074219 860.691406 33.320312 860.679688 33.492188 C 860.617188 34.417969 860.578125 35.34375 860.574219 36.273438 C 860.566406 37.058594 860.457031 38.367188 861.5625 38.421875 C 861.691406 38.429688 861.816406 37.890625 861.863281 37.890625 C 860.699219 37.835938 860.875 36.386719 860.878906 35.570312 Z M 860.878906 35.570312 "/>
<path style=" stroke:none;fill-rule:nonzero;fill:rgb(0%,0%,0%);fill-opacity:1;" d="M 856.722656 33.457031 C 856.75 33.558594 856.378906 33.824219 856.421875 33.988281 C 856.589844 34.621094 856.742188 35.253906 856.882812 35.894531 C 856.988281 36.363281 857.078125 36.832031 857.152344 37.308594 C 857.191406 37.550781 857.214844 37.792969 857.230469 38.035156 C 857.234375 38.113281 857.234375 38.1875 857.234375 38.265625 C 857.230469 38.277344 857.230469 38.285156 857.230469 38.292969 C 857.257812 38.238281 857.308594 38.175781 857.390625 38.128906 C 857.25 38.210938 857.183594 38.605469 857.113281 38.644531 C 857.703125 38.292969 857.53125 37.308594 857.453125 36.777344 C 857.292969 35.660156 857.015625 34.550781 856.722656 33.457031 Z M 856.722656 33.457031 "/>
<path style=" stroke:none;fill-rule:nonzero;fill:rgb(0%,0%,0%);fill-opacity:1;" d="M 857.230469 38.292969 C 857.164062 38.421875 857.222656 38.503906 857.230469 38.292969 Z M 857.230469 38.292969 "/>
<path style=" stroke:none;fill-rule:nonzero;fill:rgb(0%,0%,0%);fill-opacity:1;" d="M 857.253906 36.933594 C 857.253906 36.933594 856.296875 37.671875 855.96875 37.800781 C 855.640625 37.925781 855.613281 37.519531 855.613281 37.519531 L 857.175781 36.679688 Z M 857.253906 36.933594 "/>
<path style=" stroke:none;fill-rule:nonzero;fill:rgb(0%,0%,0%);fill-opacity:1;" d="M 863.886719 36.558594 C 863.8125 36.476562 863.769531 36.378906 863.753906 36.265625 C 863.773438 36.25 863.792969 36.230469 863.820312 36.199219 C 863.949219 36.082031 864.089844 35.96875 864.195312 35.828125 C 864.601562 35.28125 864.875 34.703125 864.429688 34.09375 C 864.136719 33.695312 863.015625 32.832031 862.582031 33.4375 C 862.316406 33.816406 862.074219 34.34375 861.566406 34.015625 C 861.304688 33.847656 861.105469 33.523438 860.957031 33.253906 C 860.984375 33.304688 860.585938 33.664062 860.65625 33.785156 C 860.925781 34.273438 861.5 35.054688 862.03125 34.40625 C 862.234375 34.160156 862.351562 33.722656 862.734375 33.761719 C 863.15625 33.808594 863.585938 34.121094 863.902344 34.386719 C 864.328125 34.742188 864.566406 35.269531 864.097656 35.679688 C 863.894531 35.855469 863.726562 36.03125 863.617188 36.273438 C 863.113281 37.367188 864.605469 36.824219 864.660156 36.820312 C 864.371094 36.824219 864.109375 36.746094 863.886719 36.558594 Z M 863.886719 36.558594 "/>
<path style=" stroke:none;fill-rule:nonzero;fill:rgb(0%,0%,0%);fill-opacity:1;" d="M 865.300781 40.296875 C 865.679688 39.777344 866.574219 38.625 865.703125 38.222656 C 864.835938 37.828125 865.285156 37.210938 865.429688 36.457031 C 865.515625 35.996094 864.714844 35.597656 864.347656 35.5625 C 864.226562 35.550781 863.933594 36.097656 863.894531 36.09375 C 864.316406 36.132812 864.84375 36.433594 865.085938 36.761719 C 865.195312 36.910156 864.75 37.984375 864.832031 38.335938 C 864.914062 38.699219 865.550781 38.746094 865.769531 39.007812 C 865.898438 39.160156 865.195312 40.292969 864.992188 40.6875 C 864.863281 40.9375 864.933594 41.167969 865.035156 41.414062 C 865.113281 41.597656 865.246094 41.773438 865.347656 41.949219 C 865.488281 42.191406 865.308594 42.003906 865.066406 41.90625 C 864.527344 41.6875 864.671875 40.925781 864.15625 40.753906 C 863.476562 40.527344 863.230469 41.433594 863.160156 41.472656 C 863.773438 41.109375 864.082031 41.292969 864.296875 41.914062 C 864.445312 42.335938 865.074219 42.769531 865.425781 42.34375 C 865.566406 42.171875 865.660156 41.964844 865.730469 41.761719 C 865.902344 41.28125 864.914062 40.828125 865.300781 40.296875 Z M 865.300781 40.296875 "/>
<path style=" stroke:none;fill-rule:nonzero;fill:rgb(0%,0%,0%);fill-opacity:1;" d="M 864.863281 42.632812 C 864.644531 42.394531 863.027344 42.136719 864.171875 41.757812 C 864.335938 41.703125 864.367188 41.265625 864.472656 41.230469 C 863.960938 41.398438 863.332031 42.078125 863.523438 42.667969 C 863.601562 42.90625 864.085938 42.980469 864.28125 43.039062 C 864.746094 43.179688 864.664062 43.4375 864.535156 43.871094 C 864.207031 44.972656 863.585938 44.523438 863.175781 43.828125 C 863.152344 43.863281 863.132812 43.902344 863.113281 43.9375 C 863.015625 44.066406 862.84375 44.273438 862.871094 44.359375 C 863.265625 45.515625 862.011719 44.863281 861.515625 45.460938 C 861.160156 45.886719 860.730469 46.441406 860.679688 47.019531 C 860.6875 46.929688 860.96875 46.6875 860.984375 46.515625 C 861.105469 45.1875 862.417969 46.097656 862.933594 45.25 C 863.027344 45.09375 863.105469 44.9375 863.164062 44.785156 C 863.367188 45.023438 863.621094 45.203125 863.917969 45.054688 C 864.191406 44.917969 864.410156 44.398438 864.53125 44.144531 C 864.6875 43.808594 865.171875 42.96875 864.863281 42.632812 Z M 864.863281 42.632812 "/>
<path style=" stroke:none;fill-rule:nonzero;fill:rgb(0%,0%,0%);fill-opacity:1;" d="M 861.765625 37.96875 C 861.75 37.949219 861.738281 37.929688 861.726562 37.90625 C 861.742188 37.90625 861.761719 37.90625 861.785156 37.910156 C 861.945312 37.914062 862.019531 37.875 862.105469 37.742188 C 862.300781 37.433594 862.4375 37.195312 862.265625 36.839844 C 862.09375 36.488281 861.019531 36.539062 861.058594 36.5625 C 861.351562 36.726562 861.816406 37.03125 861.988281 37.398438 C 861.886719 37.394531 861.78125 37.40625 861.738281 37.457031 C 861.589844 37.621094 861.34375 37.824219 861.398438 38.035156 C 861.648438 38.984375 862.527344 38.347656 862.558594 38.351562 C 862.265625 38.308594 861.964844 38.199219 861.765625 37.96875 Z M 861.765625 37.96875 "/>
<path style=" stroke:none;fill-rule:nonzero;fill:rgb(0%,0%,0%);fill-opacity:1;" d="M 866.898438 62.058594 C 866.566406 62.757812 865.484375 63.304688 864.863281 63.679688 C 864.351562 63.988281 863.710938 64.414062 863.117188 64.527344 C 863.164062 64.515625 862.832031 61.339844 862.789062 61.039062 C 862.628906 59.839844 862.3125 58.652344 862.109375 57.457031 C 861.847656 55.882812 861.621094 54.304688 861.402344 52.722656 C 860.933594 49.269531 860.578125 45.800781 860.445312 42.316406 C 860.433594 41.972656 860.417969 41.621094 860.429688 41.277344 C 860.542969 41.167969 860.660156 41.0625 860.773438 40.953125 C 861.101562 40.644531 861.441406 40.351562 861.734375 40.011719 C 862.144531 39.535156 862.539062 38.964844 862.480469 38.347656 C 862.488281 38.414062 861.976562 38.375 861.992188 38.53125 C 862.105469 39.816406 860.757812 40.359375 860.238281 41.332031 C 859.847656 42.0625 860.160156 43.371094 860.203125 44.144531 C 860.402344 47.882812 860.851562 51.59375 861.390625 55.292969 C 861.84375 58.417969 862.542969 61.46875 862.75 64.621094 C 862.773438 64.929688 862.714844 65.105469 863.042969 64.980469 C 863.808594 64.695312 864.523438 64.246094 865.210938 63.808594 C 865.980469 63.324219 866.695312 62.65625 867.09375 61.816406 C 867.257812 61.476562 866.941406 61.96875 866.898438 62.058594 Z M 866.898438 62.058594 "/>
<path style=" stroke:none;fill-rule:nonzero;fill:rgb(0%,0%,0%);fill-opacity:1;" d="M 855.414062 33.40625 C 855.117188 33.261719 854.515625 33.199219 854.289062 33.511719 C 853.875 34.09375 853.996094 34.363281 853.992188 35.074219 C 853.996094 35.023438 852.765625 34.914062 852.609375 34.921875 C 852.328125 34.929688 852.09375 35.230469 851.964844 35.449219 C 851.597656 36.054688 851.390625 36.652344 851.746094 37.339844 C 851.71875 37.28125 852.113281 36.933594 852.050781 36.808594 C 851.914062 36.550781 851.867188 36.28125 851.851562 35.988281 C 851.820312 35.207031 852.710938 35.480469 853.0625 35.535156 C 853.628906 35.625 854.105469 35.503906 854.140625 34.992188 C 854.253906 33.339844 855.203125 33.980469 855.324219 34.039062 C 855.675781 34.210938 856.222656 34.207031 856.585938 34.082031 C 856.75 34.023438 856.601562 33.585938 856.710938 33.546875 C 856.234375 33.714844 855.855469 33.621094 855.414062 33.40625 Z M 855.414062 33.40625 "/>
<path style=" stroke:none;fill-rule:nonzero;fill:rgb(0%,0%,0%);fill-opacity:1;" d="M 851.082031 37.738281 C 850.867188 38.113281 850.949219 38.296875 851.265625 38.59375 C 851.574219 38.882812 851.941406 39.117188 852.300781 39.324219 C 852.339844 39.347656 852.644531 38.820312 852.605469 38.796875 C 852.171875 38.546875 851.472656 38.183594 851.265625 37.6875 C 851.265625 37.683594 851.269531 37.683594 851.269531 37.683594 C 851.347656 37.617188 851.425781 37.554688 851.507812 37.496094 C 851.675781 37.367188 851.855469 37.25 852.035156 37.136719 C 852.246094 37 852.460938 36.871094 852.679688 36.746094 C 852.824219 36.667969 852.890625 36.265625 852.957031 36.226562 C 852.269531 36.617188 851.492188 37.035156 851.082031 37.738281 Z M 851.226562 37.722656 C 851.1875 37.785156 851.125 37.820312 851.226562 37.722656 Z M 851.226562 37.722656 "/>
<path style=" stroke:none;fill-rule:nonzero;fill:rgb(0%,0%,0%);fill-opacity:1;" d="M 855.917969 44.078125 C 855.605469 44.75 854.8125 45.035156 854.320312 44.441406 C 854.023438 44.085938 854.429688 43.414062 854.484375 43.015625 C 854.554688 42.542969 853.992188 42.699219 853.75 42.71875 C 853.101562 42.773438 852.542969 41.203125 852.96875 40.835938 C 853.015625 40.796875 853.292969 40.324219 853.257812 40.3125 C 852.886719 40.171875 852.707031 40.015625 852.378906 39.789062 C 851.929688 39.476562 852.605469 39.179688 852.867188 38.933594 C 852.996094 38.8125 853.019531 38.246094 853.09375 38.179688 C 852.617188 38.625 852.136719 39.101562 851.824219 39.683594 C 851.484375 40.320312 852.304688 40.601562 852.835938 40.796875 C 852.703125 41.003906 852.59375 41.226562 852.5625 41.425781 C 852.449219 42.082031 852.699219 42.816406 853.246094 43.203125 C 853.742188 43.554688 854.429688 42.824219 854.066406 43.984375 C 853.785156 44.878906 854.339844 45.734375 855.25 45.066406 C 855.664062 44.761719 855.953125 44.183594 856.167969 43.726562 C 856.269531 43.507812 855.953125 44.007812 855.917969 44.078125 Z M 855.917969 44.078125 "/>
<path style=" stroke:none;fill-rule:nonzero;fill:rgb(0%,0%,0%);fill-opacity:1;" d="M 857.359375 43.769531 C 857.089844 43.503906 856.980469 43.585938 857.136719 43.425781 C 857.296875 43.269531 857.402344 43.082031 857.519531 42.890625 C 857.863281 42.324219 857.910156 41.832031 857.460938 41.292969 C 857.171875 40.953125 856.730469 40.9375 856.324219 40.921875 C 856.097656 40.910156 855.960938 40.613281 856.132812 40.550781 C 856.492188 40.414062 856.699219 40.171875 856.851562 39.828125 C 857.21875 38.984375 854.65625 36.511719 856.460938 36.601562 C 856.585938 36.605469 856.714844 36.066406 856.761719 36.070312 C 855.953125 36.03125 855.40625 36.769531 855.460938 37.542969 C 855.523438 38.386719 857.304688 39.914062 856.25 40.089844 C 856.078125 40.152344 856.0625 40.160156 855.898438 40.234375 C 855.75 40.300781 855.660156 40.457031 855.578125 40.59375 C 855.359375 40.949219 855.304688 41.277344 855.804688 41.429688 C 856.332031 41.585938 856.683594 41.441406 857.15625 41.824219 C 857.675781 42.242188 857.40625 42.851562 857.058594 43.285156 C 856.964844 43.402344 856.71875 43.734375 856.75 43.898438 C 856.796875 44.171875 857.148438 44.382812 857.316406 44.589844 C 857.796875 45.183594 857.445312 46.191406 857.078125 46.734375 C 857.023438 46.820312 856.761719 47.34375 856.972656 47.03125 C 857.605469 46.085938 858.308594 44.722656 857.359375 43.769531 Z M 857.359375 43.769531 "/>
<path style=" stroke:none;fill-rule:nonzero;fill:rgb(0%,0%,0%);fill-opacity:1;" d="M 856.816406 45.410156 C 856.710938 45.027344 856.398438 44.167969 855.867188 44.183594 C 855.726562 44.191406 855.628906 44.710938 855.566406 44.714844 C 855.914062 44.703125 856.160156 45.125 856.300781 45.382812 C 856.898438 46.496094 856.832031 47.992188 856.851562 49.226562 C 856.890625 51.863281 856.726562 54.5 856.589844 57.132812 C 856.527344 58.28125 856.46875 59.417969 856.300781 60.558594 C 856.199219 61.21875 856.066406 61.875 855.921875 62.527344 C 855.855469 62.820312 855.78125 63.109375 855.703125 63.398438 C 855.6875 63.464844 855.664062 63.53125 855.644531 63.59375 C 854.871094 63.515625 851.574219 62.242188 851.207031 61.585938 C 851.234375 61.636719 851.558594 62.894531 853.226562 63.4375 C 853.480469 63.519531 855.222656 64.355469 855.449219 64.125 C 855.765625 63.8125 855.890625 63.304688 856.007812 62.894531 C 856.4375 61.398438 856.695312 59.820312 856.8125 58.265625 C 857.027344 55.359375 857.140625 52.421875 857.160156 49.507812 C 857.167969 48.144531 857.171875 46.738281 856.816406 45.410156 Z M 856.816406 45.410156 "/>
<path style=" stroke:none;fill-rule:nonzero;fill:rgb(0%,0%,0%);fill-opacity:1;" d="M 848.976562 39.867188 C 848.242188 41.734375 847.851562 43.785156 847.3125 45.714844 C 846.972656 46.925781 846.609375 48.128906 846.261719 49.339844 C 846.054688 50.046875 845.84375 50.757812 845.621094 51.460938 C 845.464844 51.953125 845.410156 52.089844 845.207031 52.34375 C 844.027344 53.792969 844.992188 55.445312 844.523438 57.058594 C 844.570312 56.898438 845.234375 55.535156 844.984375 53.71875 C 844.898438 53.082031 845.394531 52.859375 845.6875 52.347656 C 846.523438 50.882812 846.597656 48.996094 847.066406 47.386719 C 847.636719 45.40625 848.191406 43.425781 848.742188 41.4375 C 848.910156 40.835938 849.742188 39.457031 850.160156 39.359375 C 850.410156 39.304688 851.5625 38.984375 851.808594 38.921875 C 852.050781 38.859375 851.210938 38.40625 851.355469 38.371094 C 850.214844 38.65625 849.425781 38.714844 848.976562 39.867188 Z M 848.976562 39.867188 "/>
<path style=" stroke:none;fill-rule:nonzero;fill:rgb(0%,0%,0%);fill-opacity:1;" d="M 853.386719 52.90625 C 853.261719 50.753906 852.539062 48.699219 852.167969 46.59375 C 851.878906 44.933594 852.308594 43.414062 852.265625 41.753906 C 852.269531 41.867188 851.464844 45.277344 851.617188 46.683594 C 851.867188 49.042969 852.730469 51.28125 852.925781 53.660156 C 853.0625 55.257812 852.523438 56.773438 852.101562 58.289062 C 851.78125 59.4375 851.5625 60.226562 851.230469 61.367188 C 851.277344 61.210938 852.195312 58.835938 852.492188 57.769531 C 852.941406 56.160156 853.484375 54.59375 853.386719 52.90625 Z M 853.386719 52.90625 "/>
<g clip-path="url(#clip7)" clip-rule="nonzero">
<path style=" stroke:none;fill-rule:nonzero;fill:rgb(0%,0%,0%);fill-opacity:1;" d="M 851.960938 47.761719 C 851.261719 48.925781 850.550781 50.410156 850.070312 51.6875 C 849.902344 52.136719 848.992188 53.519531 848.863281 53.75 C 848.527344 54.335938 848.890625 54.984375 848.539062 55.386719 C 848.347656 55.605469 847.953125 56.136719 847.953125 56.445312 C 847.949219 57.097656 848.113281 57.765625 847.929688 58.4375 C 847.523438 59.917969 847.0625 61.285156 846.59375 62.742188 C 846.164062 64.085938 845.410156 68.757812 843.753906 67.601562 C 842.933594 67.027344 842.128906 67.113281 841.175781 66.898438 C 840.382812 66.714844 840.921875 66.015625 841.152344 65.496094 C 841.585938 64.515625 841.75 63.570312 842.09375 62.554688 C 842.457031 61.472656 842.664062 60.375 842.871094 59.253906 C 843.078125 58.125 843.417969 55.835938 844.519531 55.257812 C 844.738281 55.148438 844.84375 54.53125 844.9375 54.480469 C 843.761719 55.097656 843.171875 57.121094 842.828125 58.273438 C 842.457031 59.5 842.324219 60.769531 842.019531 62.011719 C 841.671875 63.410156 841.117188 64.757812 840.539062 66.070312 C 840.378906 66.429688 839.964844 67.015625 839.996094 67.425781 C 840.027344 67.835938 842.007812 67.949219 842.316406 68.011719 C 842.855469 68.117188 843.332031 68.402344 843.792969 68.6875 C 843.875 68.738281 844.441406 69.203125 844.546875 69.121094 C 844.894531 68.851562 845.121094 68.257812 845.292969 67.871094 C 846.015625 66.273438 846.484375 64.558594 847.023438 62.890625 C 847.558594 61.230469 848.101562 59.574219 848.597656 57.90625 C 848.734375 57.445312 848.839844 57.121094 848.699219 56.644531 C 848.6875 56.597656 848.382812 56.042969 848.675781 55.535156 C 848.820312 55.285156 849 55.058594 849.117188 54.796875 C 849.246094 54.511719 849.160156 53.96875 849.410156 53.78125 C 849.558594 53.671875 849.660156 53.542969 849.769531 53.386719 C 850.222656 52.742188 850.519531 51.988281 850.789062 51.253906 C 851.144531 50.300781 851.640625 49.394531 852.164062 48.527344 C 852.316406 48.277344 852.292969 47.210938 851.960938 47.761719 Z M 851.960938 47.761719 "/>
</g>
<g clip-path="url(#clip8)" clip-rule="nonzero">
<path style=" stroke:none;fill-rule:nonzero;fill:rgb(0%,0%,0%);fill-opacity:1;" d="M 841.933594 73.511719 C 841.613281 73.003906 841.015625 72.652344 840.550781 72.289062 C 840.089844 71.929688 840.117188 70.96875 840.0625 70.4375 C 839.957031 69.394531 840.703125 68.257812 841.125 67.332031 C 841.226562 67.113281 840.730469 67.488281 840.699219 67.558594 C 840.292969 68.449219 839.699219 69.761719 839.742188 70.765625 C 839.769531 71.347656 839.792969 72.1875 840.09375 72.691406 C 840.425781 73.246094 841.617188 73.429688 841.984375 74.003906 C 841.957031 73.964844 842 73.621094 841.933594 73.511719 Z M 841.933594 73.511719 "/>
</g>
<path style=" stroke:none;fill-rule:nonzero;fill:rgb(0%,0%,0%);fill-opacity:1;" d="M 844.945312 70.472656 C 844.820312 69.757812 844.164062 69.105469 844.328125 68.378906 C 844.304688 68.480469 844.0625 68.707031 844.023438 68.878906 C 843.835938 69.695312 844.414062 70.257812 844.476562 71.074219 C 844.503906 71.425781 844.230469 72.0625 844.078125 72.382812 C 843.925781 72.695312 843.929688 72.78125 843.570312 72.898438 C 843.40625 72.953125 843.375 73.394531 843.269531 73.429688 C 844.082031 73.160156 844.292969 72.101562 844.632812 71.421875 C 844.769531 71.144531 845.003906 70.796875 844.945312 70.472656 Z M 844.945312 70.472656 "/>
<path style=" stroke:none;fill-rule:nonzero;fill:rgb(0%,0%,0%);fill-opacity:1;" d="M 843.417969 73.5625 C 843.183594 73.351562 843.359375 72.511719 843.394531 72.226562 C 843.382812 72.316406 842.898438 73.917969 843.449219 74.367188 C 843.679688 74.558594 844.125 75.84375 843.644531 76.019531 C 843.355469 76.125 842.886719 74.855469 842.746094 74.6875 C 842.292969 74.140625 842.132812 74.042969 842.03125 73.328125 C 841.933594 72.640625 841.867188 71.949219 841.808594 71.257812 C 841.8125 71.324219 841.644531 73.257812 841.75 74.003906 C 841.863281 74.816406 842.285156 74.363281 843.082031 75.9375 C 843.488281 76.746094 844.015625 75.929688 844.097656 75.457031 C 844.207031 74.832031 843.832031 73.925781 843.417969 73.5625 Z M 843.417969 73.5625 "/>
<path style=" stroke:none;fill-rule:nonzero;fill:rgb(0%,0%,0%);fill-opacity:1;" d="M 868.269531 56.628906 C 867.925781 56.417969 868.15625 54.296875 868.160156 53.957031 C 868.175781 52.4375 868.238281 50.914062 868.34375 49.398438 C 868.515625 46.894531 869.109375 44.453125 869.347656 41.964844 C 869.398438 41.40625 868.507812 40.863281 868.148438 40.5625 C 867.558594 40.074219 866.945312 39.609375 866.324219 39.160156 C 866.292969 39.136719 865.792969 39.898438 865.871094 39.957031 C 866.4375 40.363281 866.992188 40.789062 867.535156 41.226562 C 867.976562 41.585938 868.941406 42.160156 868.878906 42.816406 C 868.636719 45.359375 868.042969 47.855469 867.867188 50.414062 C 867.769531 51.84375 867.722656 53.277344 867.699219 54.710938 C 867.6875 55.5625 867.621094 56.484375 867.78125 57.328125 C 867.855469 57.71875 868.371094 57.441406 868.386719 58.175781 C 868.398438 58.578125 868.300781 59.015625 868.261719 59.417969 C 868.191406 60.199219 868.125 60.984375 868.0625 61.769531 C 868.070312 61.636719 868.652344 59.449219 868.722656 58.664062 C 868.757812 58.277344 868.792969 57.890625 868.835938 57.507812 C 868.902344 56.941406 868.675781 56.875 868.269531 56.628906 Z M 868.269531 56.628906 "/>
<path style=" stroke:none;fill-rule:nonzero;fill:rgb(0%,0%,0%);fill-opacity:1;" d="M 869.765625 72.453125 C 870.007812 71.796875 869.75 70.855469 869.71875 70.179688 C 869.691406 69.519531 869.679688 68.859375 869.667969 68.199219 C 869.625 66.339844 869.589844 64.480469 869.5 62.625 C 869.441406 61.417969 869.304688 59.839844 868.644531 58.792969 C 868.679688 58.855469 868.210938 59.484375 868.316406 59.652344 C 868.910156 60.589844 868.957031 61.902344 869.019531 62.988281 C 869.113281 64.519531 869.140625 66.058594 869.175781 67.59375 C 869.203125 68.769531 869.210938 69.945312 869.269531 71.121094 C 869.296875 71.601562 869.339844 72.082031 869.363281 72.5625 C 869.367188 72.597656 869.363281 72.636719 869.363281 72.675781 C 868.921875 72.917969 868.371094 73.257812 867.910156 73.226562 C 867.722656 73.214844 867.523438 74.023438 867.457031 74.019531 C 867.980469 74.054688 868.703125 73.566406 869.15625 73.339844 C 869.292969 73.273438 869.40625 73.144531 869.503906 72.996094 C 869.570312 72.921875 869.640625 72.792969 869.671875 72.6875 C 869.707031 72.605469 869.742188 72.523438 869.765625 72.453125 Z M 869.765625 72.453125 "/>
<path style=" stroke:none;fill-rule:nonzero;fill:rgb(0%,0%,0%);fill-opacity:1;" d="M 869.246094 75.441406 C 868.929688 74.707031 868.785156 73.945312 868.722656 73.144531 C 868.730469 73.246094 868.242188 73.65625 868.261719 73.898438 C 868.320312 74.632812 868.425781 75.386719 868.707031 76.074219 C 869.003906 76.804688 868.621094 77.347656 868.125 77.929688 C 867.886719 78.210938 867.425781 78.628906 867.03125 78.5 C 866.910156 78.460938 866.570312 79.292969 866.578125 79.292969 C 867.546875 79.609375 868.589844 77.542969 868.925781 76.90625 C 869.148438 76.488281 869.453125 75.917969 869.246094 75.441406 Z M 869.246094 75.441406 "/>
<path style=" stroke:none;fill-rule:nonzero;fill:rgb(0%,0%,0%);fill-opacity:1;" d="M 868.59375 41.140625 C 868.050781 41.828125 867.605469 42.585938 867.207031 43.363281 C 866.546875 44.65625 866.523438 46.128906 866.253906 47.535156 C 866.246094 47.59375 866.238281 47.632812 866.238281 47.667969 C 866.226562 47.683594 866.214844 47.703125 866.199219 47.71875 C 865.945312 48.058594 865.734375 48.4375 865.519531 48.804688 C 864.941406 49.800781 864.117188 50.84375 863.753906 51.941406 C 863.238281 53.5 864.527344 55.519531 864.988281 56.988281 C 865.511719 58.648438 866.058594 60.300781 866.628906 61.945312 C 866.582031 61.8125 867.160156 61.378906 867.082031 61.148438 C 866.117188 58.359375 865.074219 55.53125 864.429688 52.644531 C 864.070312 51.023438 865.445312 49.332031 866.324219 48.09375 C 866.714844 47.546875 866.691406 46.9375 866.804688 46.277344 C 867.089844 44.644531 867.554688 43.332031 868.644531 41.953125 C 868.769531 41.789062 868.472656 41.5 868.566406 41.3125 C 868.578125 41.289062 868.703125 41 868.59375 41.140625 Z M 868.59375 41.140625 "/>
<path style=" stroke:none;fill-rule:nonzero;fill:rgb(0%,0%,0%);fill-opacity:1;" d="M 853.050781 98.503906 C 852.894531 97.785156 853.011719 97.359375 853.316406 96.75 C 853.410156 96.5625 853.492188 96.367188 853.523438 96.160156 C 853.785156 94.523438 853.511719 92.671875 853.414062 91.03125 C 853.1875 87.378906 852.570312 83.808594 851.949219 80.210938 C 851.375 76.90625 850.671875 73.59375 850.308594 70.257812 C 850.128906 68.578125 850.546875 66.789062 850.871094 65.152344 C 851.101562 63.996094 851.460938 63.324219 851.757812 62.183594 C 851.71875 62.339844 851.347656 61.542969 851.28125 61.800781 C 850.984375 62.941406 850.648438 64.75 850.414062 65.90625 C 850.082031 67.546875 849.683594 69.328125 849.851562 71.007812 C 850.175781 74.273438 850.890625 77.527344 851.449219 80.753906 C 852.105469 84.519531 852.738281 88.253906 852.972656 92.074219 C 853.070312 93.652344 853.304688 95.410156 853.054688 96.980469 C 853.003906 97.304688 852.726562 97.613281 852.601562 97.917969 C 852.457031 98.277344 852.5 98.601562 852.542969 98.984375 C 852.644531 99.839844 852.957031 100.710938 853.320312 101.484375 C 853.277344 101.386719 853.214844 99.257812 853.050781 98.503906 Z M 853.050781 98.503906 "/>
<path style=" stroke:none;fill-rule:nonzero;fill:rgb(0%,0%,0%);fill-opacity:1;" d="M 868.328125 67.207031 C 868.199219 65.542969 867.332031 62.355469 867.15625 62.296875 C 866.980469 62.234375 866.621094 62.867188 866.703125 63.089844 C 867.320312 64.746094 867.597656 66.507812 867.734375 68.273438 C 867.859375 69.871094 867.480469 71.523438 867.207031 73.089844 C 866.597656 76.574219 865.667969 80.078125 864.710938 83.484375 C 863.753906 86.894531 862.644531 90.320312 861.761719 93.75 C 861.445312 94.992188 861.664062 97.445312 860.496094 98.566406 C 860.046875 98.996094 859.753906 99.539062 859.53125 100.121094 C 859.46875 100.289062 859.652344 100.03125 859.667969 100.011719 C 859.78125 99.835938 859.890625 99.652344 859.964844 99.457031 C 860.144531 98.992188 860.929688 98.824219 861.238281 98.371094 C 861.460938 98.046875 861.660156 97.679688 861.753906 97.292969 C 862.082031 95.976562 862.183594 94.617188 862.515625 93.292969 C 863.386719 89.804688 864.410156 86.347656 865.386719 82.886719 C 866.367188 79.414062 867.214844 75.910156 867.847656 72.355469 C 868.152344 70.664062 868.460938 68.929688 868.328125 67.207031 Z M 868.328125 67.207031 "/>
<path style=" stroke:none;fill-rule:nonzero;fill:rgb(0%,0%,0%);fill-opacity:1;" d="M 863.265625 65.828125 C 861.664062 66.78125 860.097656 67.1875 858.253906 66.867188 C 855.78125 66.4375 853.320312 65.257812 851.15625 64.003906 C 851.09375 63.96875 850.644531 64.761719 850.703125 64.796875 C 852.894531 66.066406 855.316406 67.167969 857.800781 67.664062 C 859.445312 67.992188 860.9375 67.648438 862.398438 66.863281 C 863.949219 66.035156 865.320312 64.964844 867.132812 64.796875 C 867.351562 64.777344 867.472656 64.011719 867.585938 64.003906 C 865.957031 64.15625 864.644531 65.011719 863.265625 65.828125 Z M 863.265625 65.828125 "/>
<path style=" stroke:none;fill-rule:nonzero;fill:rgb(0%,0%,0%);fill-opacity:1;" d="M 866.777344 69.074219 C 865.695312 68.046875 864.867188 66.6875 864.359375 65.277344 C 864.40625 65.402344 863.824219 65.84375 863.90625 66.070312 C 864.414062 67.480469 865.242188 68.839844 866.324219 69.867188 C 866.324219 69.867188 866.875 69.164062 866.777344 69.074219 Z M 866.777344 69.074219 "/>
<path style=" stroke:none;fill-rule:nonzero;fill:rgb(0%,0%,0%);fill-opacity:1;" d="M 853.53125 65.40625 C 853.378906 65.636719 853.234375 65.882812 853.136719 66.140625 C 852.765625 67.085938 852.089844 68.046875 851.179688 68.59375 C 851.003906 68.703125 850.863281 69.050781 850.773438 69.226562 C 850.753906 69.261719 850.566406 69.667969 850.625 69.632812 C 852.101562 68.742188 853.363281 67.425781 853.976562 65.851562 C 854.0625 65.628906 853.550781 65.375 853.53125 65.40625 Z M 853.53125 65.40625 "/>
<path style=" stroke:none;fill-rule:nonzero;fill:rgb(0%,0%,0%);fill-opacity:1;" d="M 857.632812 71.972656 C 855.914062 71.21875 854.640625 69.503906 852.691406 69.308594 C 852.574219 69.296875 852.425781 69.839844 852.390625 69.835938 C 854.292969 70.03125 855.679688 71.675781 857.328125 72.5 C 858.742188 73.207031 860.488281 72.902344 861.777344 72.046875 C 861.917969 71.953125 861.984375 71.574219 862.054688 71.527344 C 860.726562 72.410156 859.089844 72.613281 857.632812 71.972656 Z M 857.632812 71.972656 "/>
<path style=" stroke:none;fill-rule:nonzero;fill:rgb(0%,0%,0%);fill-opacity:1;" d="M 856.476562 94.582031 C 856.902344 91.707031 857.507812 88.777344 857.957031 85.902344 C 858.667969 81.390625 859.261719 77.121094 859.546875 72.554688 C 859.539062 72.679688 858.453125 72.449219 858.4375 72.707031 C 858.152344 77.269531 857.984375 82.191406 857.269531 86.707031 C 856.804688 89.640625 856.425781 92.589844 855.988281 95.53125 C 855.863281 96.371094 855.730469 97.210938 855.542969 98.039062 C 855.304688 99.101562 855.710938 100.449219 856.019531 101.460938 C 855.976562 101.320312 855.785156 98.246094 856.046875 97.09375 C 856.230469 96.265625 856.351562 95.421875 856.476562 94.582031 Z M 856.476562 94.582031 "/>
<path style=" stroke:none;fill-rule:nonzero;fill:rgb(0%,0%,0%);fill-opacity:1;" d="M 860.96875 98.117188 C 861.011719 98.199219 860.417969 98.726562 860.515625 98.914062 C 860.574219 99.019531 860.988281 99.71875 861.234375 101 C 862.066406 105.292969 859.0625 121.144531 859.0625 121.144531 C 858.765625 123.203125 858.316406 125.066406 858.300781 127.152344 C 858.300781 127.035156 858.824219 127.378906 858.828125 127.128906 C 858.847656 125.003906 859.242188 122.378906 859.535156 120.28125 C 859.929688 117.488281 860.394531 114.703125 860.972656 111.9375 C 861.613281 108.875 862.070312 105.75 862.332031 102.628906 C 862.472656 100.984375 861.734375 99.535156 860.96875 98.117188 Z M 860.96875 98.117188 "/>
<path style=" stroke:none;fill-rule:nonzero;fill:rgb(0%,0%,0%);fill-opacity:1;" d="M 855.589844 99.152344 C 854.851562 100.804688 854.039062 103.128906 854.046875 104.957031 C 854.058594 107.28125 854.253906 109.609375 854.410156 111.925781 C 854.742188 116.980469 855.101562 121.96875 854.425781 127.019531 C 854.453125 126.832031 855.089844 126.8125 855.136719 126.464844 C 855.773438 121.691406 855.394531 116.523438 855.074219 111.742188 C 854.914062 109.371094 854.742188 107 854.671875 104.625 C 854.613281 102.636719 854.953125 101.375 855.765625 99.558594 C 855.960938 99.121094 855.65625 99.007812 855.589844 99.152344 Z M 855.589844 99.152344 "/>
<path style=" stroke:none;fill-rule:nonzero;fill:rgb(0%,0%,0%);fill-opacity:1;" d="M 852.765625 109.71875 C 852.371094 107.878906 851.824219 105.960938 851.734375 104.074219 C 851.664062 102.527344 852.414062 102.046875 852.96875 100.628906 C 853.035156 100.464844 852.9375 99.445312 852.921875 99.46875 C 852.8125 99.640625 852.703125 99.824219 852.628906 100.019531 C 852.054688 101.480469 851.433594 102.773438 851.304688 104.351562 C 851.257812 104.953125 851.398438 105.917969 851.5 106.503906 C 851.6875 107.589844 851.921875 108.664062 852.148438 109.742188 C 852.59375 111.839844 853.085938 113.929688 853.421875 116.046875 C 853.773438 118.253906 854.101562 122.386719 854.101562 122.132812 C 854.125 117.921875 853.640625 113.816406 852.765625 109.71875 Z M 852.765625 109.71875 "/>
<path style=" stroke:none;fill-rule:nonzero;fill:rgb(0%,0%,0%);fill-opacity:1;" d="M 859.042969 105.800781 C 859.074219 105.617188 859.003906 105.453125 858.851562 105.175781 C 858.621094 104.769531 858.355469 104.378906 858.101562 103.984375 C 858.046875 103.902344 857.949219 103.773438 857.851562 103.636719 C 857.707031 103.355469 859.296875 103.472656 859.292969 103.472656 C 858.878906 103.347656 858.050781 102.949219 857.632812 103.117188 C 857.515625 103.164062 857.335938 103.515625 857.328125 103.632812 C 857.296875 103.945312 857.753906 104.441406 857.910156 104.683594 C 858.039062 104.886719 858.5 105.4375 858.695312 105.863281 C 858.167969 105.871094 857.757812 105.546875 857.429688 106.285156 C 857.285156 106.613281 857.386719 106.984375 857.445312 107.324219 C 857.652344 108.480469 857.886719 109.605469 857.855469 110.792969 C 857.859375 110.710938 858.335938 108.785156 857.710938 106.566406 C 857.664062 106.414062 857.667969 106.308594 857.664062 106.246094 C 857.875 106.195312 858.167969 106.296875 858.375 106.335938 C 858.585938 106.375 858.734375 106.390625 858.855469 106.207031 C 858.953125 106.058594 859.011719 105.945312 859.035156 105.835938 C 859.042969 105.824219 859.050781 105.808594 859.0625 105.796875 C 859.054688 105.796875 859.050781 105.800781 859.042969 105.800781 Z M 857.660156 106.234375 C 857.648438 106.054688 857.699219 106.191406 857.660156 106.234375 Z M 857.660156 106.234375 "/>
<path style=" stroke:none;fill-rule:nonzero;fill:rgb(0%,0%,0%);fill-opacity:1;" d="M 866.960938 78.550781 C 866.8125 78.78125 866.660156 79.027344 866.566406 79.289062 C 865.503906 82.246094 865.320312 85.25 865.339844 88.367188 C 865.335938 88.214844 865.953125 87.695312 865.949219 87.363281 C 865.929688 84.289062 866.09375 81.320312 867.140625 78.40625 C 867.222656 78.179688 866.980469 78.519531 866.960938 78.550781 Z M 866.960938 78.550781 "/>
<path style=" stroke:none;fill-rule:nonzero;fill:rgb(0%,0%,0%);fill-opacity:1;" d="M 869.347656 88.578125 C 868.546875 85.472656 868.082031 81.445312 867.988281 78.238281 C 867.992188 78.351562 867.523438 78.746094 867.53125 78.992188 C 867.621094 82.210938 867.9375 85.3125 868.742188 88.425781 C 868.703125 88.273438 869.414062 88.828125 869.347656 88.578125 Z M 869.347656 88.578125 "/>
<g clip-path="url(#clip9)" clip-rule="nonzero">
<path style=" stroke:none;fill-rule:nonzero;fill:rgb(0%,0%,0%);fill-opacity:1;" d="M 871.679688 96.789062 C 871.441406 95.289062 871.167969 93.792969 870.867188 92.308594 C 870.613281 91.050781 870.4375 89.570312 869.835938 88.417969 C 869.613281 88 868.726562 87.855469 868.324219 87.714844 C 867.671875 87.480469 866.828125 87.382812 866.148438 87.660156 C 866.027344 87.710938 868.15625 88.207031 869.195312 88.679688 C 869.777344 88.945312 869.851562 90.601562 869.980469 91.136719 C 870.523438 93.355469 870.933594 95.628906 871.273438 97.890625 C 871.007812 98.050781 870.699219 98.140625 870.402344 98.21875 C 869.40625 98.476562 868.324219 98.320312 867.34375 98.074219 C 866.558594 97.875 864.570312 97.074219 864.484375 96.015625 C 864.390625 94.871094 864.691406 93.585938 864.828125 92.460938 C 864.925781 91.691406 865.03125 90.921875 865.15625 90.15625 C 865.238281 89.660156 865.410156 88.027344 865.746094 87.765625 C 865.949219 87.601562 865.667969 87.246094 865.796875 87.304688 C 864.914062 86.898438 865.011719 89.347656 864.828125 90.199219 C 864.441406 91.992188 864.273438 93.855469 864.101562 95.679688 C 864.066406 96.039062 863.949219 96.511719 864.042969 96.871094 C 864.195312 97.457031 864.933594 97.9375 865.390625 98.230469 C 866.871094 99.175781 869.738281 99.734375 871.1875 98.425781 C 871.71875 97.945312 871.78125 97.429688 871.679688 96.789062 Z M 871.679688 96.789062 "/>
</g>
<path style=" stroke:none;fill-rule:nonzero;fill:rgb(0%,0%,0%);fill-opacity:1;" d="M 868.515625 96.46875 C 867.785156 93.421875 868.03125 90.582031 868.039062 87.714844 C 868.039062 87.796875 867.59375 87.800781 867.585938 87.96875 C 867.308594 93.597656 868.550781 96.613281 868.515625 96.46875 Z M 868.515625 96.46875 "/>
<g clip-path="url(#clip10)" clip-rule="nonzero">
<path style=" stroke:none;fill-rule:nonzero;fill:rgb(0%,0%,0%);fill-opacity:1;" d="M 859.75 139.316406 C 859.21875 137.300781 858.796875 135.414062 859.035156 133.328125 C 859.242188 131.550781 859.574219 129.785156 859.921875 128.035156 C 859.9375 127.960938 860.109375 127.421875 860.042969 127.363281 C 859.699219 127.046875 859.148438 126.914062 858.714844 126.789062 C 857.238281 126.355469 855.269531 126.050781 853.75 126.5 C 853.503906 126.574219 853.453125 127.25 853.296875 127.296875 C 853.457031 127.25 853.621094 127.210938 853.785156 127.179688 C 853.636719 127.355469 853.449219 127.570312 853.5 127.703125 C 854.164062 129.460938 854.75 131.3125 854.914062 133.191406 C 855.152344 135.910156 854.527344 138.390625 853.859375 140.984375 C 853.746094 141.429688 852.640625 144.878906 853.226562 145.089844 C 854.550781 145.566406 856.195312 145.582031 857.578125 145.714844 C 858.820312 145.832031 859.589844 145.992188 860.203125 144.761719 C 861.023438 143.101562 860.1875 140.976562 859.75 139.316406 Z M 860.054688 144.4375 C 860.003906 145.273438 858.980469 144.996094 858.414062 144.953125 C 856.890625 144.835938 855.324219 144.675781 853.828125 144.335938 C 853.03125 144.152344 854.175781 140.792969 854.320312 140.234375 C 854.984375 137.613281 855.554688 135.175781 855.371094 132.4375 C 855.25 130.632812 854.671875 128.828125 854.039062 127.136719 C 855.558594 126.917969 857.316406 127.265625 858.6875 127.714844 C 858.792969 127.75 859.617188 128.027344 859.585938 128.175781 C 859.476562 128.710938 859.371094 129.246094 859.269531 129.785156 C 858.929688 131.59375 858.582031 133.429688 858.46875 135.269531 C 858.347656 137.253906 859.082031 139.285156 859.578125 141.175781 C 859.859375 142.25 860.121094 143.316406 860.054688 144.4375 Z M 860.054688 144.4375 "/>
</g>
<path style=" stroke:none;fill-rule:nonzero;fill:rgb(0%,0%,0%);fill-opacity:1;" d="M 856.652344 39.429688 L 861.96875 39.429688 L 861.542969 39.988281 L 856.726562 39.914062 Z M 856.652344 39.429688 "/>
</g>
</svg>
