<?xml version="1.0" encoding="UTF-8"?>
<svg xmlns="http://www.w3.org/2000/svg" xmlns:xlink="http://www.w3.org/1999/xlink" width="375pt" height="149.999998pt" viewBox="0 0 375 149.999998" version="1.2">
<defs>
<clipPath id="clip1">
  <path d="M 176.679688 59 L 201 59 L 201 88 L 176.679688 88 Z M 176.679688 59 "/>
</clipPath>
<clipPath id="clip2">
  <path d="M 227 37.886719 L 324 37.886719 L 324 103.125 L 227 103.125 Z M 227 37.886719 "/>
</clipPath>
<clipPath id="clip3">
  <path d="M 345 59 L 374.363281 59 L 374.363281 88 L 345 88 Z M 345 59 "/>
</clipPath>
<clipPath id="clip4">
  <path d="M 0 37.886719 L 134.683594 37.886719 L 134.683594 102.386719 L 0 102.386719 Z M 0 37.886719 "/>
</clipPath>
<clipPath id="clip5">
  <path d="M 145 37.886719 L 171.066406 37.886719 L 171.066406 102.386719 L 145 102.386719 Z M 145 37.886719 "/>
</clipPath>
<clipPath id="clip6">
  <path d="M 148 101 L 152 101 L 152 102.386719 L 148 102.386719 Z M 148 101 "/>
</clipPath>
<clipPath id="clip7">
  <path d="M 142.566406 41 L 152 41 L 152 53 L 142.566406 53 Z M 142.566406 41 "/>
</clipPath>
</defs>
<g id="surface1">
<rect x="0" y="0" width="375" height="149.999998" style="fill:rgb(100%,100%,100%);fill-opacity:1;stroke:none;"/>
<rect x="0" y="0" width="375" height="149.999998" style="fill:rgb(100%,100%,100%);fill-opacity:1;stroke:none;"/>
<rect x="0" y="0" width="375" height="149.999998" style="fill:rgb(100%,100%,100%);fill-opacity:1;stroke:none;"/>
<g clip-path="url(#clip1)" clip-rule="nonzero">
<path style=" stroke:none;fill-rule:nonzero;fill:rgb(0%,0%,0%);fill-opacity:1;" d="M 186.402344 66.734375 L 200.238281 66.734375 L 200.238281 59.597656 L 176.679688 59.597656 L 176.679688 87.644531 L 186.402344 87.644531 L 186.402344 78.597656 L 198.53125 78.597656 L 198.53125 71.5625 L 186.402344 71.5625 Z M 186.402344 66.734375 "/>
</g>
<path style=" stroke:none;fill-rule:nonzero;fill:rgb(0%,0%,0%);fill-opacity:1;" d="M 221.386719 59.597656 L 211.765625 59.597656 L 199.132812 87.644531 L 209.058594 87.644531 L 210.960938 82.71875 L 221.988281 82.71875 L 223.894531 87.644531 L 234.019531 87.644531 Z M 213.769531 75.882812 L 216.578125 68.847656 L 219.382812 75.882812 Z M 213.769531 75.882812 "/>
<g clip-path="url(#clip2)" clip-rule="nonzero">
<path style=" stroke:none;fill-rule:nonzero;fill:rgb(0%,0%,0%);fill-opacity:1;" d="M 305.894531 59.597656 L 300.984375 59.597656 L 321.332031 37.984375 L 289.65625 37.984375 L 276.023438 53.867188 L 261.886719 37.984375 L 228.90625 37.984375 L 248.152344 58.996094 C 248.054688 58.996094 247.851562 58.996094 247.753906 58.996094 C 238.730469 58.996094 234.21875 63.21875 234.21875 68.445312 C 234.21875 78.496094 248.957031 76.285156 250.160156 79.203125 L 248.453125 81.011719 C 247.953125 81.113281 247.25 81.113281 246.449219 81.113281 C 243.242188 81.113281 239.632812 80.105469 236.925781 78.597656 L 233.820312 85.332031 C 235.824219 86.539062 238.730469 87.445312 241.9375 87.847656 L 227.804688 103.027344 L 261.285156 103.027344 L 275.21875 86.136719 L 289.554688 103.027344 L 323.136719 103.027344 L 305.894531 84.53125 Z M 296.171875 74.074219 L 291.859375 69.449219 L 296.171875 64.824219 Z M 243.945312 67.941406 C 243.945312 66.9375 244.847656 66.132812 247.753906 66.132812 C 250.257812 66.132812 252.964844 66.835938 255.871094 68.242188 L 256.171875 67.539062 L 258.679688 70.253906 L 256.574219 72.566406 C 251.761719 69.652344 243.945312 70.253906 243.945312 67.941406 Z M 321.234375 102.121094 L 289.957031 102.121094 L 275.21875 84.730469 L 260.886719 102.121094 L 229.808594 102.121094 L 243.042969 88.046875 C 244.144531 88.148438 245.347656 88.25 246.449219 88.25 C 255.472656 88.25 259.984375 83.925781 259.984375 78.800781 C 259.984375 76.085938 258.878906 74.277344 257.175781 72.96875 L 259.78125 70.253906 L 256.472656 66.636719 L 258.78125 61.40625 C 256.171875 60 252.867188 59.195312 249.457031 58.996094 L 230.910156 38.890625 L 261.585938 38.890625 L 276.023438 55.277344 L 290.15625 38.890625 L 319.429688 38.890625 L 299.878906 59.597656 L 296.171875 59.597656 L 296.171875 63.519531 L 291.460938 68.546875 L 291.460938 59.597656 L 281.734375 59.597656 L 281.734375 69.550781 L 272.714844 69.550781 L 272.714844 59.597656 L 262.890625 59.597656 L 262.890625 87.644531 L 272.613281 87.644531 L 272.613281 77.292969 L 281.636719 77.292969 L 281.636719 87.644531 L 291.359375 87.644531 L 291.359375 70.253906 L 296.070312 75.28125 L 296.070312 87.546875 L 305.796875 87.546875 L 305.796875 85.734375 Z M 321.234375 102.121094 "/>
</g>
<path style=" stroke:none;fill-rule:nonzero;fill:rgb(0%,0%,0%);fill-opacity:1;" d="M 325.84375 58.894531 C 316.421875 58.894531 309.503906 65.027344 309.503906 73.570312 C 309.503906 82.015625 316.421875 88.25 325.84375 88.25 C 335.265625 88.25 342.183594 82.117188 342.183594 73.570312 C 342.183594 65.128906 335.265625 58.894531 325.84375 58.894531 Z M 325.84375 80.609375 C 322.234375 80.609375 319.328125 77.996094 319.328125 73.570312 C 319.328125 69.25 322.234375 66.535156 325.84375 66.535156 C 329.453125 66.535156 332.359375 69.148438 332.359375 73.570312 C 332.359375 77.996094 329.453125 80.609375 325.84375 80.609375 Z M 325.84375 80.609375 "/>
<g clip-path="url(#clip3)" clip-rule="nonzero">
<path style=" stroke:none;fill-rule:nonzero;fill:rgb(0%,0%,0%);fill-opacity:1;" d="M 364.839844 59.597656 L 364.839844 72.367188 L 353.8125 59.597656 L 345.792969 59.597656 L 345.792969 87.644531 L 355.316406 87.644531 L 355.316406 74.878906 L 366.34375 87.644531 L 374.363281 87.644531 L 374.363281 59.597656 Z M 364.839844 59.597656 "/>
</g>
<g clip-path="url(#clip4)" clip-rule="nonzero">
<path style=" stroke:none;fill-rule:nonzero;fill:rgb(0%,0%,0%);fill-opacity:1;" d="M 12.414062 87.886719 C 7.625 87.886719 2.835938 86.726562 0 85.015625 L 3.105469 78.175781 C 5.804688 79.75 9.378906 80.707031 12.484375 80.707031 C 15.183594 80.707031 16.195312 80.160156 16.195312 79.203125 C 16.195312 75.714844 0.472656 78.519531 0.472656 68.125 C 0.472656 62.925781 4.925781 58.753906 13.765625 58.753906 C 17.613281 58.753906 21.523438 59.574219 24.496094 61.148438 L 21.59375 67.988281 C 18.757812 66.617188 16.128906 65.933594 13.628906 65.933594 C 10.796875 65.933594 9.917969 66.753906 9.917969 67.714844 C 9.917969 71.0625 25.640625 68.261719 25.640625 78.519531 C 25.707031 83.578125 21.253906 87.886719 12.414062 87.886719 Z M 105.601562 87.273438 L 121.929688 102.589844 L 83.804688 102.589844 L 68.960938 87.273438 L 65.992188 87.273438 L 51.550781 102.589844 L 13.5625 102.589844 L 34.347656 83.304688 L 34.347656 66.6875 L 25.980469 66.6875 L 25.980469 59.4375 L 37.449219 59.4375 L 14.777344 37.964844 L 52.226562 37.964844 L 68.285156 53.832031 L 84.007812 37.964844 L 119.972656 37.964844 L 95.546875 60.667969 L 95.546875 77.835938 L 97.910156 80.023438 L 108.4375 80.023438 L 108.4375 87.273438 Z M 95.480469 78.929688 L 95.480469 79.953125 L 96.628906 79.953125 Z M 43.925781 74.347656 L 48.582031 70.039062 L 45.074219 66.6875 L 43.859375 66.6875 L 43.859375 74.347656 Z M 104.386719 87.273438 L 85.898438 87.273438 L 85.898438 69.96875 L 85.089844 69.21875 L 85.898438 68.464844 L 85.898438 59.4375 L 95.480469 59.4375 L 95.480469 59.507812 L 117.746094 38.851562 L 84.347656 38.851562 L 68.355469 55.0625 L 51.890625 38.785156 L 16.9375 38.785156 L 38.664062 59.371094 L 52.292969 59.371094 L 52.292969 66.6875 L 46.355469 66.6875 L 49.867188 69.96875 L 43.996094 75.441406 L 43.996094 87.203125 L 34.277344 87.203125 L 34.277344 84.332031 L 15.722656 101.703125 L 51.214844 101.703125 L 64.914062 87.273438 L 64.375 87.273438 L 64.375 77.015625 L 53.578125 59.4375 L 63.699219 59.4375 L 69.5 69.082031 L 75.371094 59.4375 L 84.683594 59.4375 L 73.953125 77.152344 L 73.953125 87.273438 L 70.175781 87.273438 L 84.210938 101.703125 L 119.839844 101.703125 Z M 120.445312 80.160156 L 120.445312 76.46875 L 132.523438 76.46875 L 132.523438 69.695312 L 120.445312 69.695312 L 120.445312 66.414062 L 134.144531 66.414062 L 134.144531 59.4375 L 111 59.4375 L 111 87.273438 L 134.683594 87.273438 L 134.683594 80.160156 Z M 120.445312 80.160156 "/>
</g>
<g clip-path="url(#clip5)" clip-rule="nonzero">
<path style=" stroke:none;fill-rule:nonzero;fill:rgb(0%,0%,0%);fill-opacity:1;" d="M 156.867188 39.917969 C 157.121094 39.917969 157.449219 39.933594 157.570312 39.960938 C 157.800781 40.011719 158.070312 40.105469 158.25 40.199219 C 158.363281 40.253906 158.390625 40.269531 158.363281 40.269531 C 158.355469 40.269531 158.339844 40.269531 158.316406 40.265625 C 158.140625 40.242188 156.558594 40.070312 156.402344 40.054688 C 156.3125 40.046875 156.238281 40.03125 156.230469 40.023438 C 156.222656 40.007812 156.324219 39.980469 156.574219 39.933594 C 156.628906 39.921875 156.738281 39.917969 156.867188 39.917969 Z M 155.726562 41.5 C 155.824219 41.5 155.921875 41.542969 155.96875 41.613281 C 156.015625 41.683594 156.035156 41.78125 156.019531 41.851562 L 156.003906 41.914062 L 155.765625 41.917969 C 155.75 41.917969 155.738281 41.917969 155.722656 41.917969 C 155.492188 41.917969 155.480469 41.902344 155.460938 41.753906 C 155.449219 41.644531 155.46875 41.605469 155.574219 41.539062 C 155.621094 41.511719 155.671875 41.5 155.726562 41.5 Z M 160.457031 42.742188 L 160.496094 42.816406 C 160.585938 42.980469 160.632812 43.167969 160.636719 43.417969 L 160.644531 43.660156 L 160.570312 43.722656 C 160.539062 43.75 160.515625 43.765625 160.492188 43.765625 C 160.457031 43.765625 160.429688 43.722656 160.375 43.613281 C 160.261719 43.390625 160.273438 43.054688 160.398438 42.839844 Z M 156.871094 42.8125 C 156.71875 42.8125 156.550781 42.855469 156.4375 42.933594 C 156.207031 43.09375 156.105469 43.382812 156.113281 43.871094 C 156.117188 44.246094 156.164062 44.757812 156.191406 44.757812 C 156.207031 44.753906 156.367188 44.699219 156.546875 44.640625 C 156.894531 44.523438 157.304688 44.421875 157.53125 44.398438 C 157.652344 44.386719 157.664062 44.378906 157.652344 44.335938 C 157.648438 44.3125 157.632812 44.183594 157.617188 44.050781 C 157.605469 43.917969 157.589844 43.804688 157.585938 43.800781 C 157.585938 43.800781 157.582031 43.800781 157.582031 43.800781 C 157.558594 43.800781 157.476562 43.808594 157.382812 43.820312 C 157.304688 43.832031 157.199219 43.835938 157.117188 43.835938 C 157.082031 43.835938 157.054688 43.835938 157.03125 43.832031 C 156.710938 43.804688 156.238281 43.667969 156.316406 43.625 C 156.335938 43.617188 156.574219 43.511719 156.851562 43.394531 C 157.128906 43.277344 157.359375 43.179688 157.367188 43.175781 C 157.371094 43.167969 157.363281 43.128906 157.347656 43.089844 C 157.316406 42.988281 157.203125 42.886719 157.082031 42.84375 C 157.019531 42.824219 156.945312 42.8125 156.871094 42.8125 Z M 156.285156 40.972656 C 156.410156 40.972656 156.605469 40.992188 156.972656 41.03125 C 158.054688 41.148438 158.3125 41.195312 158.601562 41.324219 C 158.90625 41.460938 159.136719 41.664062 159.265625 41.917969 C 159.34375 42.074219 159.347656 42.09375 159.347656 42.289062 C 159.351562 42.492188 159.347656 42.511719 159.253906 42.710938 C 159.050781 43.164062 159.066406 43.074219 159.070312 43.710938 C 159.074219 44.378906 159.058594 44.4375 158.875 44.714844 C 158.617188 45.097656 158.160156 45.351562 157.542969 45.460938 C 157.378906 45.488281 157.027344 45.503906 156.722656 45.503906 C 156.492188 45.503906 156.285156 45.496094 156.207031 45.476562 C 155.953125 45.414062 155.769531 45.277344 155.640625 45.050781 C 155.5625 44.917969 155.339844 44.367188 155.117188 43.777344 C 154.929688 43.28125 154.933594 43.03125 155.117188 42.839844 C 155.199219 42.75 155.25 42.730469 155.480469 42.675781 C 155.710938 42.625 155.980469 42.492188 156.117188 42.367188 C 156.253906 42.242188 156.363281 42.039062 156.378906 41.867188 C 156.40625 41.578125 156.226562 41.269531 155.996094 41.207031 C 155.9375 41.191406 155.894531 41.175781 155.894531 41.164062 C 155.894531 41.125 156.003906 41.03125 156.082031 41.003906 C 156.136719 40.984375 156.191406 40.972656 156.285156 40.972656 Z M 154.949219 46.625 C 154.992188 46.625 154.996094 46.699219 154.996094 46.933594 C 155 47.226562 155 47.246094 155.042969 47.257812 C 155.109375 47.273438 155.097656 47.300781 155.011719 47.328125 C 154.984375 47.339844 154.957031 47.34375 154.925781 47.34375 C 154.796875 47.34375 154.660156 47.253906 154.609375 47.121094 C 154.570312 47.03125 154.570312 47.015625 154.605469 46.929688 C 154.644531 46.828125 154.742188 46.71875 154.851562 46.664062 C 154.894531 46.640625 154.925781 46.625 154.949219 46.625 Z M 160.941406 45.96875 L 160.992188 46.035156 C 161.074219 46.128906 161.234375 46.402344 161.324219 46.597656 C 161.464844 46.90625 161.554688 47.226562 161.617188 47.675781 C 161.621094 47.714844 161.609375 47.71875 161.515625 47.726562 C 161.457031 47.726562 161.375 47.742188 161.332031 47.753906 C 161.257812 47.777344 161.253906 47.785156 161.253906 47.90625 C 161.253906 47.964844 161.25 48 161.242188 48 C 161.226562 48 161.199219 47.910156 161.144531 47.71875 C 160.996094 47.214844 160.894531 46.445312 160.929688 46.089844 Z M 165.53125 51.402344 C 165.558594 51.402344 165.78125 51.601562 165.867188 51.699219 C 166.015625 51.875 166.152344 52.164062 166.1875 52.378906 L 166.203125 52.46875 L 165.914062 52.5 L 165.621094 52.527344 L 165.636719 52.585938 C 165.675781 52.730469 165.675781 52.894531 165.644531 53.011719 C 165.601562 53.164062 165.570312 53.199219 165.460938 53.199219 C 165.441406 53.199219 165.417969 53.199219 165.394531 53.199219 C 164.984375 53.167969 164.6875 52.691406 164.8125 52.261719 C 164.882812 52.019531 165.066406 51.777344 165.375 51.519531 C 165.453125 51.453125 165.523438 51.402344 165.53125 51.402344 Z M 153.8125 52.324219 C 153.824219 52.324219 153.832031 52.335938 153.835938 52.351562 C 153.847656 52.378906 153.855469 52.484375 153.851562 52.589844 C 153.839844 52.804688 153.78125 52.945312 153.628906 53.109375 C 153.546875 53.199219 153.449219 53.265625 153.410156 53.265625 C 153.40625 53.265625 153.398438 53.265625 153.398438 53.261719 C 153.386719 53.253906 153.378906 53.179688 153.375 53.097656 C 153.355469 52.824219 153.464844 52.589844 153.703125 52.402344 C 153.769531 52.347656 153.796875 52.324219 153.8125 52.324219 Z M 161.222656 54.109375 C 161.253906 54.109375 161.269531 54.167969 161.296875 54.378906 C 161.355469 54.828125 161.207031 55.183594 160.886719 55.332031 C 160.820312 55.363281 160.769531 55.382812 160.734375 55.382812 C 160.65625 55.382812 160.644531 55.296875 160.671875 55.089844 C 160.71875 54.746094 160.835938 54.503906 161.066406 54.257812 C 161.140625 54.175781 161.214844 54.109375 161.222656 54.109375 Z M 158.945312 54.078125 C 158.984375 54.078125 158.957031 55.617188 158.917969 55.878906 C 158.839844 56.386719 158.664062 56.71875 158.40625 56.867188 L 158.316406 56.914062 L 158.296875 56.769531 C 158.265625 56.519531 158.273438 55.960938 158.316406 55.699219 C 158.398438 55.179688 158.570312 54.691406 158.847656 54.214844 C 158.890625 54.140625 158.933594 54.078125 158.945312 54.078125 Z M 153.855469 56.484375 C 153.863281 56.484375 153.914062 56.53125 153.972656 56.597656 C 154.476562 57.15625 154.65625 57.601562 154.53125 57.992188 L 154.492188 58.113281 L 154.429688 57.980469 C 154.28125 57.667969 154.097656 57.210938 153.980469 56.867188 C 153.910156 56.664062 153.855469 56.488281 153.855469 56.484375 Z M 156.246094 46.554688 L 156.3125 46.566406 C 156.433594 46.589844 156.523438 46.644531 156.625 46.753906 C 156.71875 46.851562 156.765625 46.933594 156.96875 47.363281 C 157.121094 47.679688 157.355469 47.875 157.574219 47.875 C 157.601562 47.875 157.632812 47.871094 157.664062 47.863281 C 157.769531 47.835938 157.785156 47.789062 157.761719 47.601562 C 157.746094 47.472656 157.671875 47.292969 157.59375 47.183594 L 157.550781 47.125 L 157.636719 47.082031 C 157.746094 47.035156 157.890625 46.878906 157.921875 46.773438 C 157.941406 46.71875 157.949219 46.703125 157.976562 46.703125 C 157.984375 46.703125 158 46.707031 158.015625 46.710938 C 158.132812 46.734375 158.328125 46.839844 158.410156 46.921875 C 158.453125 46.964844 158.476562 47 158.464844 47 C 158.425781 47 158.367188 47.128906 158.367188 47.222656 C 158.367188 47.316406 158.402344 47.398438 158.4375 47.398438 C 158.453125 47.398438 158.769531 47.171875 158.914062 47.058594 C 158.917969 47.054688 158.921875 47.054688 158.925781 47.054688 C 158.960938 47.054688 159.003906 47.164062 159.09375 47.476562 C 159.25 48.03125 159.320312 48.585938 159.304688 49.128906 C 159.289062 49.601562 159.234375 49.796875 159.050781 49.996094 C 158.867188 50.191406 158.574219 50.289062 158.167969 50.289062 C 158.089844 50.289062 158.007812 50.285156 157.921875 50.28125 C 157.800781 50.269531 157.695312 50.261719 157.65625 50.261719 C 157.648438 50.261719 157.644531 50.261719 157.644531 50.261719 C 157.640625 50.269531 157.601562 50.984375 157.5625 51.851562 C 157.5 53.28125 157.484375 53.535156 157.464844 53.535156 C 157.464844 53.535156 157.464844 53.535156 157.460938 53.53125 C 157.425781 53.496094 157.277344 52.597656 157.21875 52.074219 C 157.191406 51.84375 157.183594 51.007812 157.195312 50.230469 L 157.199219 50.054688 L 157.128906 50.046875 C 157.125 50.046875 157.121094 50.046875 157.117188 50.046875 C 157.03125 50.046875 156.910156 50.152344 156.855469 50.273438 C 156.804688 50.382812 156.625 51.101562 156.523438 51.574219 C 156.148438 53.324219 155.996094 55.035156 156.054688 56.851562 C 156.074219 57.421875 156.117188 58.113281 156.132812 58.132812 C 156.132812 58.132812 156.132812 58.132812 156.136719 58.132812 C 156.148438 58.132812 156.347656 58.085938 156.589844 58.023438 C 156.859375 57.957031 157.089844 57.910156 157.160156 57.910156 C 157.164062 57.910156 157.164062 57.910156 157.164062 57.910156 C 157.390625 57.910156 157.542969 58.03125 157.542969 58.207031 C 157.546875 58.277344 157.492188 58.382812 157.449219 58.398438 C 157.445312 58.398438 157.445312 58.402344 157.4375 58.402344 C 157.363281 58.402344 156.929688 58.347656 156.421875 58.277344 C 155.875 58.203125 155.378906 58.140625 155.316406 58.128906 L 155.207031 58.117188 L 155.203125 57.828125 C 155.195312 57.300781 155.089844 56.964844 154.605469 55.9375 C 154.207031 55.089844 154.089844 54.738281 154.070312 54.277344 C 154.050781 53.859375 154.109375 53.660156 154.292969 53.5625 C 154.332031 53.542969 154.359375 53.53125 154.378906 53.53125 C 154.4375 53.53125 154.453125 53.621094 154.476562 53.894531 C 154.5625 54.886719 154.800781 55.695312 155.242188 56.515625 C 155.347656 56.710938 155.390625 56.785156 155.421875 56.785156 C 155.4375 56.785156 155.449219 56.761719 155.46875 56.71875 C 155.539062 56.558594 155.515625 56.253906 155.40625 55.820312 C 155.15625 54.820312 155.113281 54.003906 155.265625 53.054688 C 155.332031 52.65625 155.429688 52.300781 155.652344 51.671875 C 155.851562 51.117188 155.871094 50.976562 156.09375 48.339844 Z M 159.207031 65.460938 L 159.167969 65.527344 C 159.125 65.605469 159.039062 65.675781 158.917969 65.738281 C 158.859375 65.769531 158.738281 65.785156 158.609375 65.785156 C 158.535156 65.785156 158.457031 65.78125 158.394531 65.765625 L 158.277344 65.746094 L 158.347656 65.691406 C 158.441406 65.617188 158.613281 65.539062 158.761719 65.5 C 158.828125 65.480469 158.957031 65.464844 159.046875 65.464844 Z M 159.441406 67.054688 C 159.53125 67.054688 159.625 67.066406 159.71875 67.085938 C 159.769531 67.101562 159.8125 67.121094 159.8125 67.128906 C 159.8125 67.140625 159.761719 67.1875 159.695312 67.238281 C 159.484375 67.398438 159.25 67.480469 159.015625 67.480469 C 158.960938 67.480469 158.910156 67.476562 158.859375 67.46875 C 158.769531 67.453125 158.691406 67.433594 158.683594 67.429688 C 158.652344 67.410156 158.871094 67.226562 158.996094 67.164062 C 159.058594 67.132812 159.171875 67.09375 159.246094 67.074219 C 159.304688 67.058594 159.371094 67.054688 159.441406 67.054688 Z M 153.320312 37.886719 C 153.3125 37.886719 153.285156 37.929688 153.257812 37.980469 C 153.230469 38.03125 153.136719 38.195312 153.050781 38.34375 L 152.886719 38.617188 L 152.976562 38.742188 C 153.328125 39.257812 153.808594 39.714844 154.347656 40.0625 C 154.550781 40.195312 154.976562 40.410156 155.167969 40.480469 C 155.222656 40.503906 155.269531 40.53125 155.265625 40.542969 C 155.257812 40.558594 155.207031 40.597656 155.152344 40.632812 C 155.070312 40.683594 154.941406 40.710938 154.808594 40.710938 C 154.746094 40.710938 154.683594 40.707031 154.625 40.691406 C 154.453125 40.65625 154.105469 40.484375 153.761719 40.265625 C 152.878906 39.710938 152.664062 39.621094 152.144531 39.621094 C 152.128906 39.621094 152.113281 39.621094 152.09375 39.621094 C 151.617188 39.625 151.144531 39.75 150.570312 40.035156 C 150.171875 40.230469 149.960938 40.359375 148.703125 41.164062 C 148.117188 41.539062 147.140625 42.167969 146.523438 42.5625 C 145.910156 42.957031 145.351562 43.3125 145.285156 43.355469 C 145.210938 43.402344 145.15625 43.445312 145.15625 43.453125 C 145.15625 43.460938 145.253906 43.558594 145.371094 43.667969 C 145.953125 44.203125 146.648438 44.601562 147.421875 44.828125 C 147.503906 44.855469 147.554688 44.867188 147.582031 44.867188 C 147.59375 44.867188 147.597656 44.863281 147.59375 44.855469 C 147.589844 44.839844 147.449219 44.644531 147.285156 44.425781 C 146.828125 43.808594 146.726562 43.660156 146.738281 43.632812 C 146.757812 43.574219 147.269531 43.039062 147.515625 42.816406 C 148.855469 41.601562 150.457031 40.777344 152.179688 40.414062 C 152.519531 40.34375 152.867188 40.285156 152.9375 40.285156 C 152.945312 40.285156 152.949219 40.285156 152.953125 40.285156 C 152.957031 40.292969 152.945312 40.359375 152.925781 40.4375 C 152.902344 40.535156 152.890625 40.675781 152.894531 40.867188 C 152.898438 41.328125 152.988281 41.652344 153.375 42.625 C 153.496094 42.921875 153.632812 43.285156 153.675781 43.421875 C 153.917969 44.175781 153.871094 44.632812 153.503906 45.070312 C 153.328125 45.277344 153.261719 45.378906 153.175781 45.546875 C 152.957031 45.992188 152.886719 46.53125 152.9375 47.402344 C 152.953125 47.675781 152.976562 48.085938 152.988281 48.3125 C 153.015625 48.792969 152.992188 49.257812 152.929688 49.585938 C 152.90625 49.703125 152.832031 49.957031 152.761719 50.148438 C 152.601562 50.617188 152.449219 51.148438 152.355469 51.574219 C 151.953125 53.398438 151.984375 55.304688 152.4375 57.097656 C 152.542969 57.5 152.730469 58.101562 152.8125 58.292969 L 152.84375 58.367188 L 153.09375 58.285156 C 153.453125 58.160156 153.699219 58.121094 154.105469 58.121094 C 154.113281 58.121094 154.125 58.121094 154.136719 58.121094 C 154.308594 58.121094 154.449219 58.125 154.457031 58.132812 C 154.484375 58.160156 154.386719 58.304688 154.273438 58.410156 C 154.140625 58.53125 154.023438 58.582031 153.875 58.582031 C 153.84375 58.582031 153.8125 58.582031 153.78125 58.578125 C 153.703125 58.570312 153.574219 58.5625 153.496094 58.5625 C 153.492188 58.5625 153.488281 58.5625 153.488281 58.5625 C 153.042969 58.566406 152.632812 59.023438 152.507812 59.652344 C 152.453125 59.929688 152.476562 60.261719 152.59375 60.792969 C 152.769531 61.609375 152.804688 61.890625 152.761719 62.1875 C 152.75 62.273438 152.738281 62.34375 152.746094 62.351562 C 152.75 62.351562 152.789062 62.292969 152.824219 62.222656 C 153.015625 61.863281 153.4375 61.59375 153.9375 61.511719 C 154.019531 61.496094 154.128906 61.492188 154.246094 61.492188 C 154.460938 61.492188 154.699219 61.511719 154.847656 61.550781 C 155.277344 61.660156 155.546875 61.8125 155.886719 62.136719 C 156.429688 62.667969 156.777344 63.359375 157.082031 64.519531 C 157.144531 64.753906 157.800781 67.648438 157.847656 67.882812 C 157.957031 68.476562 157.90625 68.902344 157.6875 69.195312 C 157.558594 69.359375 157.261719 69.496094 157.023438 69.496094 C 157.019531 69.496094 157.019531 69.496094 157.019531 69.496094 C 156.8125 69.496094 156.605469 69.390625 156.53125 69.25 C 156.492188 69.183594 156.492188 69.183594 156.566406 69.125 C 157.09375 68.738281 157.246094 67.957031 156.898438 67.429688 L 156.832031 67.332031 L 156.816406 67.5625 C 156.792969 68.007812 156.613281 68.339844 156.058594 68.988281 C 155.492188 69.644531 155.355469 69.824219 155.210938 70.113281 C 155.046875 70.445312 155.027344 70.710938 155.136719 71.183594 C 155.296875 71.878906 155.363281 72.398438 155.386719 73.109375 C 155.410156 74.003906 155.324219 74.816406 155.117188 75.664062 C 155.0625 75.890625 154.898438 76.421875 154.886719 76.421875 C 154.875 76.414062 154.820312 76.101562 154.742188 75.5625 C 154.347656 72.960938 154.410156 71.265625 154.964844 69.777344 C 155.132812 69.320312 155.347656 68.925781 155.730469 68.359375 C 156.183594 67.695312 156.441406 66.953125 156.503906 66.125 C 156.53125 65.761719 156.515625 65.417969 156.453125 65.035156 C 156.40625 64.78125 156.265625 64.28125 156.230469 64.238281 C 156.21875 64.238281 156.175781 64.488281 156.132812 64.800781 C 155.972656 65.960938 155.8125 66.667969 155.5625 67.335938 C 155.085938 68.632812 154.222656 69.605469 153.164062 70.039062 C 152.960938 70.121094 152.59375 70.222656 152.492188 70.226562 C 152.488281 70.226562 152.488281 70.226562 152.484375 70.226562 C 152.429688 70.226562 152.433594 70.214844 152.605469 69.996094 C 152.851562 69.683594 153.289062 69.019531 153.503906 68.628906 C 154.296875 67.195312 154.738281 65.632812 154.832031 63.945312 C 154.851562 63.546875 154.839844 62.894531 154.804688 62.578125 L 154.792969 62.453125 L 154.632812 62.375 C 154.480469 62.304688 154.316406 62.269531 154.148438 62.269531 C 153.855469 62.269531 153.550781 62.375 153.253906 62.585938 C 152.8125 62.898438 152.546875 63.445312 152.445312 64.234375 C 152.359375 64.941406 152.308594 70.359375 152.371094 72.433594 C 152.4375 74.683594 152.53125 75.96875 152.78125 78.148438 C 152.914062 79.292969 152.960938 79.753906 152.992188 80.289062 C 153.09375 81.898438 152.898438 83.136719 152.382812 84.179688 C 152.164062 84.621094 152.039062 84.832031 151.472656 85.695312 C 150.96875 86.464844 150.839844 86.683594 150.648438 87.078125 C 150.207031 88.003906 149.910156 88.988281 149.5625 90.671875 C 149.445312 91.25 148.417969 96.519531 148.378906 96.757812 C 148.359375 96.855469 148.265625 96.808594 149.386719 97.273438 C 149.976562 97.519531 150.144531 97.597656 150.136719 97.625 C 150.128906 97.644531 150.097656 97.746094 150.058594 97.847656 C 149.945312 98.183594 149.917969 98.382812 149.921875 98.847656 C 149.921875 99.191406 149.933594 99.304688 149.972656 99.488281 C 150.121094 100.136719 150.402344 100.65625 150.859375 101.101562 C 150.988281 101.226562 151.097656 101.328125 151.113281 101.328125 C 151.121094 101.320312 151.078125 101.179688 151.019531 101.011719 C 150.734375 100.171875 150.632812 99.519531 150.625 98.523438 C 150.621094 97.527344 150.734375 96.703125 151.023438 95.632812 C 151.449219 94.050781 152.097656 92.621094 153.632812 89.898438 C 155.222656 87.074219 155.757812 85.957031 156.242188 84.476562 C 156.742188 82.9375 157.007812 81.628906 157.472656 78.382812 C 157.917969 75.269531 158.183594 73.929688 158.644531 72.496094 C 158.855469 71.839844 159.238281 70.847656 159.28125 70.84375 C 159.300781 70.84375 159.703125 71.785156 160.144531 72.863281 C 161.988281 77.351562 163.515625 82.011719 164.671875 86.667969 C 165.703125 90.832031 166.085938 93.230469 166.101562 95.625 C 166.113281 97.132812 165.988281 98.257812 165.671875 99.585938 C 165.59375 99.914062 165.582031 100.003906 165.582031 100.21875 C 165.582031 100.480469 165.597656 100.5625 165.6875 100.6875 C 165.710938 100.71875 165.738281 100.746094 165.746094 100.746094 C 165.765625 100.746094 166 100.355469 166.097656 100.15625 C 166.191406 99.96875 166.371094 99.515625 166.425781 99.324219 C 166.582031 98.78125 166.644531 98.390625 166.65625 97.828125 C 166.667969 97.332031 166.640625 97.015625 166.554688 96.589844 C 166.523438 96.441406 166.5 96.316406 166.503906 96.3125 C 166.507812 96.308594 166.871094 96.277344 167.308594 96.246094 C 167.746094 96.210938 168.152344 96.179688 168.210938 96.175781 C 168.242188 96.171875 168.269531 96.171875 168.289062 96.171875 C 168.304688 96.171875 168.316406 96.171875 168.316406 96.175781 C 168.316406 96.183594 168.027344 96.644531 167.738281 97.101562 L 167.523438 97.433594 L 167.613281 97.789062 C 167.898438 98.882812 168.082031 100.132812 168.128906 101.273438 L 168.136719 101.433594 L 167.921875 101.464844 C 167.804688 101.484375 167.0625 101.601562 166.277344 101.722656 C 165.492188 101.847656 164.847656 101.957031 164.847656 101.964844 C 164.847656 101.992188 165.152344 102.179688 165.320312 102.253906 C 165.660156 102.40625 165.949219 102.464844 166.355469 102.464844 C 166.371094 102.464844 166.386719 102.464844 166.402344 102.464844 C 166.695312 102.460938 166.777344 102.453125 166.964844 102.402344 C 167.386719 102.292969 167.746094 102.078125 168.054688 101.761719 C 168.351562 101.453125 168.5625 101.082031 168.675781 100.667969 C 168.742188 100.429688 168.75 99.96875 168.707031 98.015625 C 168.6875 97.121094 168.652344 95.261719 168.625 93.882812 C 168.558594 90.179688 168.53125 89.242188 168.457031 88.222656 C 168.316406 86.199219 168.105469 85.09375 167.382812 82.59375 C 166.871094 80.808594 166.691406 80.074219 166.523438 79.058594 C 166.3125 77.792969 166.207031 76.652344 166.0625 74.117188 C 165.902344 71.296875 165.804688 70.285156 165.578125 68.890625 C 165.292969 67.183594 164.867188 66.34375 164.003906 65.820312 C 162.714844 65.03125 161.734375 64.21875 160.71875 63.101562 C 160.394531 62.742188 159.929688 62.15625 159.683594 61.789062 C 159.628906 61.710938 159.578125 61.648438 159.566406 61.648438 C 159.566406 61.648438 159.566406 61.652344 159.566406 61.652344 C 159.550781 61.695312 159.679688 62.203125 159.785156 62.511719 C 160.167969 63.625 160.859375 64.617188 161.800781 65.410156 C 162.523438 66.019531 163.433594 66.492188 164.277344 66.699219 C 164.414062 66.734375 164.527344 66.761719 164.53125 66.765625 C 164.535156 66.765625 164.507812 66.820312 164.46875 66.878906 C 164.3125 67.125 163.996094 67.335938 163.679688 67.402344 C 163.578125 67.425781 163.433594 67.4375 163.289062 67.4375 C 163.15625 67.4375 163.027344 67.425781 162.941406 67.40625 C 162.242188 67.25 161.703125 66.71875 161.089844 65.589844 C 161.019531 65.464844 160.960938 65.363281 160.953125 65.363281 C 160.925781 65.363281 160.90625 65.917969 160.925781 66.234375 C 160.957031 66.847656 161.054688 67.429688 161.210938 67.960938 L 161.253906 68.105469 L 161.136719 68.171875 C 160.679688 68.433594 160.039062 68.601562 159.496094 68.601562 C 159.230469 68.601562 158.710938 68.53125 158.710938 68.496094 C 158.710938 68.464844 159.03125 68.234375 159.164062 68.167969 C 159.425781 68.039062 159.71875 67.972656 160.003906 67.972656 C 160.167969 67.972656 160.328125 67.996094 160.476562 68.039062 C 160.53125 68.058594 160.578125 68.066406 160.597656 68.066406 C 160.601562 68.066406 160.601562 68.066406 160.601562 68.066406 C 160.609375 68.0625 160.542969 67.796875 160.457031 67.476562 C 160.367188 67.15625 159.949219 65.605469 159.527344 64.03125 C 159.105469 62.453125 158.753906 61.144531 158.746094 61.125 C 158.738281 61.101562 158.738281 61.089844 158.75 61.089844 C 158.757812 61.089844 158.769531 61.09375 158.78125 61.097656 C 158.851562 61.117188 158.945312 61.125 159.039062 61.125 C 159.132812 61.125 159.226562 61.117188 159.300781 61.097656 C 159.617188 61.023438 159.84375 60.90625 160.460938 60.511719 C 161.078125 60.117188 161.320312 60.007812 161.613281 60.007812 C 161.621094 60.007812 161.625 60.007812 161.632812 60.007812 C 161.761719 60.007812 161.804688 60.015625 161.910156 60.070312 C 161.984375 60.105469 162.046875 60.144531 162.050781 60.160156 C 162.054688 60.167969 161.8125 60.265625 161.511719 60.367188 C 161.136719 60.496094 160.980469 60.5625 161.007812 60.570312 C 161.03125 60.578125 161.425781 60.652344 161.882812 60.734375 C 162.382812 60.824219 162.679688 60.882812 162.625 60.886719 C 161.964844 60.933594 161.429688 61.070312 160.898438 61.328125 C 160.652344 61.449219 160.179688 61.746094 160.179688 61.785156 C 160.183594 61.800781 164.804688 65.875 164.839844 65.886719 C 164.839844 65.886719 164.84375 65.886719 164.84375 65.886719 C 164.878906 65.886719 164.609375 65.078125 164.429688 64.640625 C 164.300781 64.328125 164.015625 63.742188 163.875 63.503906 C 163.785156 63.347656 163.785156 63.34375 163.832031 63.328125 C 163.996094 63.265625 164.597656 62.980469 165 62.777344 C 166.597656 61.976562 168.019531 61.023438 169.382812 59.84375 C 169.804688 59.480469 170.5 58.816406 170.789062 58.503906 C 171.199219 58.058594 171.296875 57.878906 171.296875 57.546875 C 171.292969 57.285156 171.175781 57.003906 170.953125 56.710938 C 170.890625 56.632812 170.3125 55.960938 169.664062 55.214844 C 169.015625 54.46875 167.828125 53.097656 167.027344 52.164062 C 165.777344 50.722656 165.589844 50.507812 165.542969 50.507812 C 165.535156 50.507812 165.53125 50.507812 165.527344 50.511719 C 165.507812 50.539062 165.125 51.007812 164.667969 51.558594 C 164.214844 52.113281 163.792969 52.628906 163.726562 52.707031 C 163.664062 52.785156 163.609375 52.855469 163.609375 52.867188 C 163.609375 52.871094 163.824219 53.066406 164.085938 53.296875 C 165.082031 54.167969 166.078125 55.101562 166.929688 55.964844 C 167.265625 56.308594 167.578125 56.648438 167.628906 56.71875 C 167.921875 57.160156 167.882812 57.863281 167.527344 58.394531 C 167.300781 58.742188 167.027344 59.015625 166.535156 59.390625 C 166.398438 59.496094 166.292969 59.585938 166.296875 59.589844 C 166.296875 59.59375 166.296875 59.59375 166.300781 59.59375 C 166.34375 59.59375 166.78125 59.347656 167.03125 59.183594 C 167.402344 58.9375 167.703125 58.691406 168.03125 58.355469 C 168.441406 57.949219 168.714844 57.597656 169 57.117188 C 169.148438 56.871094 169.378906 56.402344 169.460938 56.175781 C 169.488281 56.101562 169.519531 56.039062 169.53125 56.039062 C 169.542969 56.039062 169.605469 56.09375 169.671875 56.160156 C 169.851562 56.335938 169.894531 56.464844 169.894531 56.796875 C 169.894531 57.101562 169.851562 57.285156 169.710938 57.609375 C 169.460938 58.1875 168.691406 59.15625 167.832031 59.984375 C 166.347656 61.40625 164.695312 62.179688 163.265625 62.179688 C 162.757812 62.179688 162.277344 62.082031 161.84375 61.878906 C 161.742188 61.832031 161.667969 61.789062 161.679688 61.785156 C 161.691406 61.78125 162.113281 61.660156 162.617188 61.515625 C 163.125 61.371094 163.550781 61.246094 163.566406 61.238281 C 163.589844 61.226562 163.550781 61.1875 163.445312 61.105469 C 163.359375 61.042969 163.183594 60.886719 163.054688 60.757812 C 162.324219 60.039062 161.835938 59.054688 161.65625 57.929688 C 161.605469 57.617188 161.582031 56.882812 161.613281 56.554688 C 161.726562 55.363281 162.1875 54.328125 162.964844 53.53125 C 163.0625 53.425781 163.148438 53.335938 163.148438 53.332031 C 163.148438 53.328125 163.109375 53.292969 163.0625 53.25 C 162.941406 53.144531 162.875 52.984375 162.859375 52.769531 C 162.847656 52.539062 162.886719 52.320312 163.050781 51.769531 C 163.214844 51.210938 163.25 51.03125 163.25 50.800781 C 163.246094 50.582031 163.210938 50.476562 163.101562 50.363281 C 163.042969 50.304688 162.933594 50.230469 162.902344 50.230469 C 162.898438 50.230469 162.894531 50.367188 162.898438 50.53125 C 162.894531 50.765625 162.886719 50.875 162.847656 51.011719 C 162.792969 51.226562 162.660156 51.511719 162.53125 51.691406 C 162.429688 51.832031 162.164062 52.101562 162.085938 52.140625 C 162.070312 52.148438 162.058594 52.152344 162.050781 52.152344 C 162.039062 52.152344 162.03125 52.136719 162.023438 52.097656 C 162 51.972656 162.007812 51.558594 162.042969 51.378906 C 162.128906 50.902344 162.375 50.449219 162.71875 50.128906 L 162.855469 49.996094 L 162.757812 49.921875 C 162.542969 49.765625 162.425781 49.53125 162.398438 49.210938 C 162.382812 49 162.414062 48.816406 162.542969 48.386719 C 162.8125 47.488281 162.769531 47.175781 162.253906 46.265625 C 161.875 45.59375 161.765625 45.332031 161.734375 44.996094 C 161.714844 44.800781 161.738281 44.671875 161.875 44.242188 C 162.019531 43.800781 162.058594 43.5625 162.039062 43.265625 C 162.011719 42.816406 161.871094 42.371094 161.507812 41.585938 C 160.988281 40.449219 160.574219 39.742188 160.121094 39.207031 C 159.640625 38.644531 159.027344 38.21875 158.484375 38.066406 C 158.265625 38.003906 158.035156 37.976562 157.804688 37.976562 C 157.207031 37.976562 156.597656 38.171875 156.15625 38.535156 C 155.796875 38.820312 155.585938 39.210938 155.542969 39.660156 L 155.53125 39.804688 L 155.335938 39.742188 C 155.085938 39.65625 154.730469 39.472656 154.503906 39.316406 C 154.210938 39.113281 153.855469 38.75 153.648438 38.445312 C 153.554688 38.300781 153.441406 38.117188 153.40625 38.035156 C 153.367188 37.953125 153.332031 37.886719 153.320312 37.886719 Z M 153.320312 37.886719 "/>
</g>
<path style=" stroke:none;fill-rule:nonzero;fill:rgb(0%,0%,0%);fill-opacity:1;" d="M 148.105469 96.703125 L 148.226562 96.835938 C 148.292969 96.90625 148.382812 97.035156 148.425781 97.117188 C 148.515625 97.308594 148.554688 97.46875 148.558594 97.667969 L 148.5625 97.820312 L 148.726562 97.820312 C 148.730469 97.820312 148.734375 97.820312 148.742188 97.820312 C 148.867188 97.820312 148.917969 97.832031 149.007812 97.878906 C 149.164062 97.957031 149.296875 98.113281 149.339844 98.265625 C 149.375 98.378906 149.375 98.398438 149.34375 98.554688 C 149.300781 98.753906 149.300781 98.875 149.339844 98.949219 C 149.371094 99 149.363281 99.015625 149.191406 99.238281 L 149.007812 99.472656 L 149.121094 100.121094 C 149.179688 100.472656 149.226562 100.773438 149.222656 100.785156 C 149.199219 100.859375 148.84375 100.972656 148.644531 100.972656 C 148.632812 100.972656 148.625 100.972656 148.617188 100.972656 L 148.492188 100.964844 L 148.429688 100.757812 C 148.277344 100.246094 148.121094 99.425781 148.070312 98.816406 C 148.023438 98.292969 148.035156 97.113281 148.089844 96.78125 Z M 148.105469 96.703125 "/>
<g clip-path="url(#clip6)" clip-rule="nonzero">
<path style=" stroke:none;fill-rule:nonzero;fill:rgb(0%,0%,0%);fill-opacity:1;" d="M 148.394531 101.050781 C 148.453125 101.050781 148.511719 101.066406 148.558594 101.097656 C 148.636719 101.144531 148.667969 101.28125 148.640625 101.449219 C 148.625 101.523438 148.617188 101.640625 148.617188 101.710938 C 148.617188 102.046875 148.902344 102.21875 149.671875 102.347656 C 149.824219 102.371094 150.042969 102.382812 150.269531 102.382812 C 150.558594 102.382812 150.859375 102.363281 151.066406 102.328125 C 151.222656 102.300781 151.394531 102.261719 151.453125 102.246094 C 151.503906 102.230469 151.550781 102.21875 151.558594 102.21875 C 151.5625 102.21875 151.5625 102.21875 151.5625 102.21875 C 151.5625 102.222656 151.574219 102.308594 151.582031 102.414062 C 151.597656 102.605469 151.597656 102.605469 151.546875 102.605469 C 151.515625 102.609375 151.054688 102.625 150.519531 102.648438 C 150.113281 102.664062 149.828125 102.675781 149.621094 102.675781 C 149.296875 102.675781 149.152344 102.652344 149.003906 102.601562 C 148.664062 102.484375 148.449219 102.226562 148.34375 101.8125 C 148.300781 101.632812 148.238281 101.160156 148.25 101.117188 C 148.265625 101.074219 148.328125 101.050781 148.394531 101.050781 Z M 148.394531 101.050781 "/>
</g>
<g clip-path="url(#clip7)" clip-rule="nonzero">
<path style=" stroke:none;fill-rule:nonzero;fill:rgb(0%,0%,0%);fill-opacity:1;" d="M 143.625 41.886719 L 143.640625 41.984375 C 143.644531 42.039062 143.671875 42.109375 143.691406 42.140625 C 143.714844 42.175781 143.761719 42.210938 143.796875 42.226562 C 143.832031 42.242188 143.863281 42.261719 143.863281 42.273438 C 143.863281 42.347656 143.425781 42.644531 143.316406 42.648438 C 143.289062 42.648438 143.285156 42.679688 143.292969 42.824219 C 143.304688 42.976562 143.316406 43.023438 143.410156 43.203125 C 143.550781 43.480469 143.734375 43.699219 144.273438 44.226562 C 145.222656 45.160156 146.144531 45.808594 147.355469 46.394531 C 147.777344 46.601562 147.777344 46.601562 147.855469 46.726562 C 147.960938 46.886719 148.257812 47.183594 148.433594 47.300781 C 148.605469 47.410156 148.9375 47.566406 149.09375 47.605469 C 149.167969 47.625 149.242188 47.667969 149.324219 47.742188 C 149.636719 48.011719 150.09375 48.191406 150.46875 48.191406 C 150.46875 48.191406 150.472656 48.191406 150.476562 48.191406 L 150.601562 48.1875 L 150.597656 48.339844 C 150.589844 48.457031 150.601562 48.515625 150.632812 48.589844 C 150.714844 48.765625 150.878906 48.914062 151.054688 48.964844 C 151.058594 48.964844 151.0625 48.964844 151.066406 48.964844 C 151.179688 48.964844 151.261719 48.484375 151.179688 48.21875 C 151.160156 48.148438 151.148438 48.085938 151.160156 48.074219 C 151.171875 48.066406 151.277344 48.007812 151.394531 47.945312 L 151.609375 47.832031 L 151.621094 47.902344 C 151.625 47.945312 151.703125 48.667969 151.789062 49.511719 C 151.960938 51.207031 151.980469 51.589844 151.914062 51.992188 C 151.871094 52.261719 151.765625 52.546875 151.636719 52.738281 C 151.574219 52.835938 151.535156 52.882812 151.519531 52.882812 C 151.507812 52.882812 151.503906 52.859375 151.515625 52.816406 C 151.546875 52.660156 151.550781 52.269531 151.527344 52.042969 C 151.433594 51.25 151.058594 50.5 150.488281 49.957031 C 150.191406 49.675781 149.929688 49.492188 148.769531 48.753906 C 147.558594 47.980469 146.9375 47.5625 146.296875 47.09375 C 145.035156 46.164062 144.109375 45.292969 143.386719 44.351562 C 142.761719 43.535156 142.570312 43.113281 142.667969 42.757812 C 142.730469 42.53125 142.984375 42.359375 143.199219 42.359375 C 143.253906 42.359375 143.308594 42.371094 143.355469 42.394531 L 143.421875 42.429688 L 143.417969 42.324219 C 143.417969 42.175781 143.460938 42.058594 143.546875 41.964844 Z M 143.625 41.886719 "/>
</g>
<path style=" stroke:none;fill-rule:nonzero;fill:rgb(0%,0%,0%);fill-opacity:1;" d="M 151.769531 46.492188 C 151.789062 46.492188 151.8125 46.496094 151.832031 46.503906 C 151.851562 46.507812 151.890625 46.550781 151.914062 46.59375 C 152.019531 46.757812 151.957031 47.054688 151.800781 47.148438 C 151.75 47.179688 151.703125 47.195312 151.671875 47.195312 C 151.644531 47.195312 151.628906 47.183594 151.636719 47.160156 C 151.644531 47.140625 151.625 47.027344 151.59375 46.910156 C 151.5625 46.789062 151.535156 46.671875 151.535156 46.648438 C 151.535156 46.566406 151.660156 46.492188 151.769531 46.492188 Z M 151.769531 46.492188 "/>
<path style=" stroke:none;fill-rule:nonzero;fill:rgb(0%,0%,0%);fill-opacity:1;" d="M 147.574219 44.910156 C 147.597656 44.910156 147.714844 44.933594 147.835938 44.960938 C 148.277344 45.074219 148.757812 45.292969 149.136719 45.554688 C 149.335938 45.691406 149.871094 46.175781 149.871094 46.21875 C 149.871094 46.230469 149.832031 46.238281 149.773438 46.238281 C 149.683594 46.238281 149.550781 46.222656 149.445312 46.199219 C 149.246094 46.148438 148.96875 46.015625 148.738281 45.859375 C 148.589844 45.761719 147.683594 45.054688 147.570312 44.949219 C 147.527344 44.910156 147.527344 44.910156 147.574219 44.910156 Z M 147.574219 44.910156 "/>
<path style=" stroke:none;fill-rule:nonzero;fill:rgb(0%,0%,0%);fill-opacity:1;" d="M 157.285156 41.335938 C 157.292969 41.335938 157.363281 41.378906 157.445312 41.433594 C 157.703125 41.601562 158.019531 41.691406 158.328125 41.691406 C 158.433594 41.691406 158.535156 41.679688 158.636719 41.660156 C 158.6875 41.648438 158.71875 41.640625 158.742188 41.640625 C 158.773438 41.640625 158.785156 41.652344 158.804688 41.679688 C 158.871094 41.757812 158.882812 41.902344 158.832031 42.011719 C 158.757812 42.183594 158.640625 42.253906 158.375 42.296875 C 158.328125 42.304688 158.277344 42.308594 158.230469 42.308594 C 157.785156 42.308594 157.320312 41.996094 157.257812 41.628906 C 157.246094 41.539062 157.261719 41.335938 157.285156 41.335938 Z M 157.285156 41.335938 "/>
</g>
</svg>
